<svg width="25" height="24" viewBox="0 0 25 24" fill="currentColor" xmlns="http://www.w3.org/2000/svg">
<path d="M19.5253 1.25C19.9697 1.24999 20.3408 1.24999 20.6454 1.27077C20.9625 1.29241 21.262 1.33905 21.5524 1.45933C22.2262 1.73844 22.7616 2.27379 23.0407 2.94762C23.161 3.23801 23.2076 3.53754 23.2292 3.85464C23.25 4.15925 23.25 4.53028 23.25 4.97474V9.02526C23.25 9.46972 23.25 9.84075 23.2292 10.1454C23.2076 10.4625 23.161 10.762 23.0407 11.0524C22.7616 11.7262 22.2262 12.2616 21.5524 12.5407C21.262 12.661 20.9625 12.7076 20.6454 12.7292C20.3408 12.75 19.9697 12.75 19.5253 12.75H19.4747C19.0303 12.75 18.6592 12.75 18.3546 12.7292C18.0375 12.7076 17.738 12.661 17.4476 12.5407C16.7738 12.2616 16.2384 11.7262 15.9593 11.0524C15.839 10.762 15.7924 10.4625 15.7708 10.1454C15.75 9.84076 15.75 9.46972 15.75 9.02526V4.97475C15.75 4.53029 15.75 4.15925 15.7708 3.85464C15.7924 3.53754 15.839 3.23801 15.9593 2.94762C16.2384 2.27379 16.7738 1.73844 17.4476 1.45933C17.738 1.33905 18.0375 1.29241 18.3546 1.27077C18.6592 1.24999 19.0303 1.24999 19.4747 1.25H19.5253Z" fill="currentColor"/>
<path d="M19.5253 15.25C19.9697 15.25 20.3408 15.25 20.6454 15.2708C20.9625 15.2924 21.262 15.339 21.5524 15.4593C22.2262 15.7384 22.7616 16.2738 23.0407 16.9476C23.161 17.238 23.2076 17.5375 23.2292 17.8546C23.25 18.1592 23.25 18.5303 23.25 18.9747V19.0253C23.25 19.4697 23.25 19.8408 23.2292 20.1454C23.2076 20.4625 23.161 20.762 23.0407 21.0524C22.7616 21.7262 22.2262 22.2616 21.5524 22.5407C21.262 22.661 20.9625 22.7076 20.6454 22.7292C20.3408 22.75 19.9697 22.75 19.5253 22.75H19.4747C19.0303 22.75 18.6592 22.75 18.3546 22.7292C18.0375 22.7076 17.738 22.661 17.4476 22.5407C16.7738 22.2616 16.2384 21.7262 15.9593 21.0524C15.839 20.762 15.7924 20.4625 15.7708 20.1454C15.75 19.8408 15.75 19.4697 15.75 19.0253V18.9747C15.75 18.5303 15.75 18.1592 15.7708 17.8546C15.7924 17.5375 15.839 17.238 15.9593 16.9476C16.2384 16.2738 16.7738 15.7384 17.4476 15.4593C17.738 15.339 18.0375 15.2924 18.3546 15.2708C18.6592 15.25 19.0303 15.25 19.4747 15.25H19.5253Z" fill="currentColor"/>
<path d="M8.55203 11.25C9.4505 11.25 10.1997 11.2499 10.7945 11.3299C11.4223 11.4143 11.9891 11.6 12.4445 12.0555C12.9 12.5109 13.0857 13.0777 13.1701 13.7055C13.2501 14.3003 13.25 15.0495 13.25 15.948V18.052C13.25 18.9505 13.2501 19.6997 13.1701 20.2945C13.0857 20.9223 12.9 21.4891 12.4445 21.9445C11.9891 22.4 11.4223 22.5857 10.7945 22.6701C10.1997 22.7501 9.4505 22.75 8.55203 22.75H6.44801C5.54954 22.75 4.8003 22.7501 4.20552 22.6701C3.57773 22.5857 3.01093 22.4 2.55546 21.9445C2.09999 21.4891 1.91432 20.9223 1.82991 20.2945C1.74995 19.6997 1.74997 18.9505 1.75 18.052V15.948C1.74997 15.0495 1.74995 14.3003 1.82991 13.7055C1.91432 13.0777 2.09999 12.5109 2.55546 12.0555C3.01093 11.6 3.57773 11.4143 4.20552 11.3299C4.8003 11.2499 5.54951 11.25 6.44797 11.25H8.55203Z" fill="currentColor"/>
<path d="M9.52526 1.25C9.96972 1.24999 10.3408 1.24999 10.6454 1.27077C10.9625 1.29241 11.262 1.33905 11.5524 1.45933C12.2262 1.73844 12.7616 2.27379 13.0407 2.94762C13.161 3.23801 13.2076 3.53754 13.2292 3.85464C13.25 4.15925 13.25 4.53028 13.25 4.97474V5.02526C13.25 5.46972 13.25 5.84075 13.2292 6.14537C13.2076 6.46247 13.161 6.76199 13.0407 7.05238C12.7616 7.72621 12.2262 8.26156 11.5524 8.54067C11.262 8.66095 10.9625 8.7076 10.6454 8.72923C10.3407 8.75001 9.96972 8.75001 9.52526 8.75H5.47474C5.03028 8.75001 4.65925 8.75001 4.35464 8.72923C4.03754 8.7076 3.73801 8.66095 3.44762 8.54067C2.77379 8.26156 2.23844 7.72621 1.95933 7.05238C1.83905 6.76199 1.79241 6.46247 1.77077 6.14537C1.74999 5.84075 1.74999 5.46972 1.75 5.02526V4.97475C1.74999 4.53029 1.74999 4.15925 1.77077 3.85464C1.79241 3.53754 1.83905 3.23801 1.95933 2.94762C2.23844 2.27379 2.77379 1.73844 3.44762 1.45933C3.73801 1.33905 4.03754 1.29241 4.35464 1.27077C4.65925 1.24999 5.03028 1.24999 5.47474 1.25H9.52526Z" fill="currentColor"/>
</svg>
