<svg width="800" height="800" viewBox="0 0 800 800" fill="none" xmlns="http://www.w3.org/2000/svg">
<path d="M419.667 29.288C408.727 27.7658 398.624 35.4006 397.102 46.3409L309.12 678.661C307.597 689.601 315.232 699.704 326.172 701.226L615.386 741.468C626.326 742.99 636.429 735.355 637.951 724.415L725.933 92.0951C727.456 81.1548 719.821 71.052 708.881 69.5297L419.667 29.288ZM626.473 699.631C624.95 710.571 614.848 718.206 603.907 716.683L343.972 680.516C333.032 678.993 325.397 668.89 326.919 657.95L408.572 71.1239C410.094 60.1836 420.197 52.5488 431.137 54.0711L691.072 90.2389C702.012 91.7611 709.647 101.864 708.125 112.804L626.473 699.631ZM477.45 159.293C478.115 160.743 476.461 161.984 474.881 161.764V161.764C473.238 161.536 472.021 159.814 473.088 158.545C473.112 158.518 473.135 158.49 473.159 158.463C473.752 157.792 474.494 157.522 475.378 157.645C476.199 157.759 476.833 158.208 477.286 158.982C477.346 159.081 477.4 159.184 477.45 159.293ZM455.917 289.379C452.511 288.905 450.051 286.695 448.53 282.741C447.013 278.784 446.73 273.422 447.673 266.649C448.617 259.867 450.354 254.789 452.892 251.393C455.435 248.005 458.404 246.55 461.81 247.024C465.209 247.497 467.656 249.716 469.145 253.676C470.63 257.642 470.906 263.001 469.967 269.751C469.024 276.526 467.295 281.606 464.786 285.003C462.275 288.396 459.323 289.853 455.917 289.379ZM689.406 133.387C690.928 122.447 683.293 112.344 672.353 110.821L443.526 78.982C432.585 77.4597 422.482 85.0945 420.96 96.0348L345.638 637.37C344.116 648.31 351.75 658.413 362.691 659.935L591.518 691.775C602.459 693.297 612.561 685.662 614.084 674.722L689.406 133.387ZM620.174 351.352C625.683 352.118 629.527 357.205 628.76 362.713V362.713C627.994 368.222 622.907 372.066 617.399 371.299L421.543 344.048C416.034 343.281 412.19 338.194 412.957 332.686V332.686C413.723 327.178 418.81 323.334 424.318 324.1L620.174 351.352ZM439.133 265.458C440.667 254.435 443.901 246.456 448.837 241.509C452.594 237.265 457.412 235.546 463.293 236.365C469.172 237.183 473.342 240.152 475.794 245.26C479.167 251.363 480.094 259.921 478.56 270.944C477.057 281.745 473.83 289.725 468.888 294.89C465.135 299.136 460.313 300.852 454.434 300.034C448.553 299.216 444.387 296.249 441.931 291.139C438.564 284.818 437.632 276.248 439.133 265.458ZM484.793 302.545C482.582 302.238 481.039 300.196 481.347 297.985L488.416 247.18C488.827 244.228 491.554 242.167 494.506 242.578V242.578C496.711 242.884 498.501 244.512 499.015 246.678L500.424 252.615C502.135 259.823 512.551 259.329 513.572 251.992L513.938 249.365C514.245 247.152 516.288 245.609 518.501 245.916V245.916C520.713 246.224 522.257 248.267 521.949 250.48L514.848 301.519C514.455 304.341 511.849 306.31 509.027 305.917V305.917C506.926 305.625 505.217 304.075 504.722 302.012L503.196 295.658C501.428 288.294 490.785 288.812 489.742 296.313L489.354 299.099C489.046 301.31 487.005 302.853 484.793 302.545V302.545ZM525.775 308.248C523.414 307.919 521.766 305.739 522.095 303.378L529.275 251.773C529.604 249.412 531.784 247.765 534.145 248.093V248.093C536.505 248.422 538.153 250.601 537.824 252.962L530.644 304.568C530.315 306.929 528.135 308.576 525.775 308.248V308.248ZM550.249 297.693C552.132 301.086 554.544 302.989 557.477 303.397C560.363 303.798 562.907 302.918 565.075 300.75C566.255 299.575 567.264 298.149 568.093 296.474C569.292 294.049 567.465 291.392 564.785 291.019V291.019C562.296 290.672 560.558 288.373 560.904 285.883L560.976 285.366C561.363 282.591 563.926 280.654 566.701 281.04L570.242 281.533C574.973 282.191 578.274 286.56 577.616 291.291L574.735 311.993C574.504 313.655 572.97 314.814 571.308 314.583L570.355 314.451C569.367 314.313 568.64 313.456 568.666 312.459V312.459C568.714 310.575 566.274 309.675 564.863 310.924C564.389 311.344 563.939 311.696 563.511 311.98C560.951 313.685 558.022 314.319 554.719 313.859C549.273 313.102 545.192 309.719 542.472 303.72C539.614 297.661 538.864 289.825 540.203 280.2C541.558 270.463 544.48 262.917 548.956 257.563C553.441 252.204 558.695 249.944 564.718 250.782C569.943 251.509 573.866 254.026 576.501 258.343C578.394 261.444 579.521 264.945 579.875 268.844C580.108 271.407 577.755 273.31 575.206 272.955V272.955C573.057 272.656 571.532 270.815 571.047 268.7C570.508 266.349 569.463 264.502 567.903 263.164C566.617 262.066 565.099 261.402 563.39 261.164C560.07 260.703 557.089 262.156 554.447 265.509C551.818 268.868 549.984 274.212 548.965 281.535C547.942 288.907 548.369 294.302 550.249 297.693ZM604.187 281.223C608.603 281.838 612.682 278.756 613.296 274.34L614.781 263.668C615.109 261.308 617.288 259.662 619.648 259.99V259.99C622.007 260.318 623.654 262.497 623.325 264.857L616.144 316.467C615.816 318.826 613.637 320.473 611.278 320.145V320.145C608.918 319.816 607.272 317.637 607.6 315.278L609.629 300.691C610.244 296.274 607.162 292.196 602.746 291.582V291.582C598.329 290.967 594.251 294.049 593.637 298.465L591.607 313.049C591.279 315.41 589.098 317.058 586.737 316.73V316.73C584.375 316.401 582.727 314.221 583.056 311.859L590.236 260.256C590.564 257.895 592.745 256.247 595.107 256.575V256.575C597.468 256.904 599.116 259.085 598.787 261.446L597.303 272.114C596.689 276.531 599.771 280.609 604.187 281.223V281.223ZM637.053 323.731C634.664 323.399 632.997 321.193 633.33 318.804L638.754 279.818C639.23 276.402 636.846 273.247 633.429 272.771L632.571 272.652C629.629 272.242 627.575 269.525 627.984 266.582V266.582C628.394 263.639 631.111 261.585 634.054 261.995L656.722 265.149C659.665 265.558 661.719 268.276 661.31 271.219V271.219C660.9 274.162 658.182 276.215 655.239 275.806L654.416 275.691C651.019 275.219 647.882 277.59 647.409 280.987L641.979 320.008C641.647 322.396 639.441 324.063 637.053 323.731V323.731ZM508.549 161.158C508.69 160.142 509.629 159.433 510.645 159.574V159.574C511.661 159.715 512.37 160.654 512.229 161.67L512.002 163.3C511.86 164.316 510.922 165.025 509.906 164.884V164.884C508.89 164.742 508.181 163.804 508.322 162.788L508.549 161.158ZM506.696 174.475C506.837 173.459 507.776 172.75 508.792 172.891V172.891C509.808 173.033 510.517 173.971 510.376 174.987L510.148 176.622C510.007 177.638 509.068 178.347 508.052 178.205V178.205C507.036 178.064 506.327 177.126 506.469 176.11L506.696 174.475ZM498.954 157.372C499.461 157.443 499.93 157.089 500 156.582L500.385 153.812C500.517 152.865 501.392 152.204 502.339 152.336V152.336C503.285 152.468 503.946 153.342 503.815 154.289L503.451 156.9C503.368 157.495 503.783 158.044 504.378 158.127V158.127C504.972 158.209 505.387 158.759 505.305 159.353L505.103 160.804C505.02 161.398 504.471 161.813 503.876 161.73V161.73C503.282 161.648 502.733 162.063 502.65 162.657L501.376 171.815C501.266 172.609 501.265 173.107 501.379 173.322C501.493 173.538 501.901 173.695 502.607 173.794C502.709 173.808 502.823 173.824 502.942 173.83V173.83C503.125 173.855 503.265 174.014 503.239 174.196L502.987 176.01C502.859 176.933 502.033 177.595 501.105 177.52V177.52C499.461 177.371 498.399 176.804 497.924 175.815C497.618 175.178 497.55 174.251 497.718 173.047L499.248 162.052C499.319 161.543 498.963 161.073 498.454 161.002V161.002C497.944 160.931 497.589 160.46 497.66 159.951L497.908 158.162C497.979 157.655 498.447 157.302 498.954 157.372V157.372ZM484.236 155.18L487.094 155.578C487.367 155.616 487.558 155.868 487.52 156.142V156.142C487.446 156.676 488.227 156.976 488.623 156.61C488.668 156.569 488.712 156.53 488.755 156.494C489.57 155.809 490.524 155.544 491.615 155.696C492.977 155.886 494.015 156.562 494.742 157.729C495.457 158.897 495.652 160.696 495.313 163.134L493.744 174.407C493.608 175.386 492.703 176.07 491.724 175.933V175.933C490.744 175.797 490.061 174.893 490.197 173.913L491.59 163.9C491.732 162.879 491.747 162.089 491.635 161.519C491.44 160.472 490.863 159.894 489.914 159.762C488.748 159.6 487.845 160.217 487.207 161.612C486.874 162.353 486.629 163.315 486.463 164.507L485.244 173.269C485.111 174.224 484.229 174.891 483.274 174.758V174.758C482.318 174.625 481.652 173.743 481.785 172.787L484.234 155.182C484.234 155.181 484.235 155.18 484.236 155.18V155.18ZM470.849 155.499C472.312 153.884 474.013 153.206 475.957 153.477C477.111 153.637 478.109 154.087 478.951 154.821C479.791 155.549 480.421 156.61 480.838 158.005C481.222 159.224 481.385 160.617 481.337 162.15V162.15C481.269 164.302 479.201 165.775 477.068 165.478L475.705 165.288C473.28 164.951 470.504 167.083 472.093 168.947V168.947C472.553 169.509 473.158 169.838 473.905 169.942C474.692 170.051 475.378 169.846 475.95 169.32C475.983 169.291 476.015 169.261 476.047 169.23C476.645 168.642 477.401 168.169 478.232 168.285V168.285C479.393 168.447 480.171 169.586 479.573 170.593C479.309 171.036 478.991 171.474 478.618 171.905C477.167 173.627 475.381 174.329 473.239 174.031C471.474 173.786 470.03 172.775 468.908 170.994C467.78 169.218 467.465 166.544 467.964 162.96C468.423 159.603 469.389 157.116 470.849 155.499ZM457.584 151.44C458.472 151.563 459.148 152.3 459.195 153.195L459.221 153.687C459.364 156.395 463.134 156.926 464.02 154.364L464.208 153.818C464.488 153.011 465.299 152.513 466.145 152.631V152.631C467.296 152.791 467.991 153.988 467.56 155.066L461.615 169.938C461.213 170.944 460.177 171.546 459.104 171.397V171.397C458.03 171.247 457.196 170.383 457.086 169.304L455.463 153.485C455.339 152.277 456.381 151.272 457.584 151.44V151.44ZM440.36 148.779C440.865 145.152 444.214 142.621 447.841 143.126L452.087 143.717C453.369 143.895 454.264 145.079 454.085 146.361V146.361C453.907 147.642 452.723 148.537 451.441 148.359L447.065 147.75C445.529 147.536 444.111 148.608 443.898 150.143V150.143C443.684 151.678 444.756 153.096 446.291 153.31L449.937 153.817C451.193 153.992 452.069 155.152 451.895 156.407V156.407C451.72 157.663 450.56 158.539 449.305 158.365L446.246 157.939C444.386 157.68 442.668 158.978 442.41 160.838V160.838C442.151 162.698 443.449 164.416 445.309 164.675L449.502 165.258C450.802 165.439 451.71 166.64 451.529 167.94V167.94C451.348 169.241 450.147 170.148 448.847 169.967L444.415 169.351C440.667 168.829 438.052 165.368 438.573 161.621L440.36 148.779ZM431.947 196.204C432.713 190.695 437.8 186.851 443.309 187.618L639.165 214.869C644.673 215.636 648.517 220.723 647.751 226.231V226.231C646.984 231.739 641.897 235.583 636.389 234.817L440.533 207.565C435.025 206.799 431.181 201.712 431.947 196.204V196.204ZM406.762 235.801C407.171 232.858 409.889 230.804 412.832 231.213L435.488 234.366C438.431 234.775 440.484 237.493 440.075 240.436V240.436C439.666 243.379 436.948 245.432 434.005 245.023L433.184 244.909C429.788 244.436 426.652 246.806 426.179 250.203L420.749 289.226C420.417 291.614 418.211 293.281 415.823 292.949V292.949C413.434 292.616 411.767 290.411 412.1 288.022L417.525 249.032C418 245.618 415.617 242.464 412.203 241.989L411.349 241.871C408.407 241.461 406.353 238.744 406.762 235.801V235.801ZM406.369 426.52C406.369 426.52 406.369 426.52 406.369 426.52L408.327 421.265C410.938 414.258 421.245 415.692 421.844 423.146V423.146C422.107 426.412 424.603 429.057 427.848 429.509L428.931 429.659C436.18 430.668 438.718 439.851 433.014 444.439L427.808 448.626C425.511 450.474 424.277 453.339 424.514 456.278L425.203 464.843C425.736 471.466 417.197 474.57 413.352 469.151V469.151C411.173 466.081 406.858 465.48 403.924 467.84V467.84C398.746 472.003 391.38 466.686 393.701 460.461L396.702 452.409C397.732 449.647 397.327 446.555 395.622 444.151L391.094 437.767C387.11 432.15 391.765 424.49 398.586 425.439L406.366 426.522C406.367 426.522 406.368 426.521 406.369 426.52V426.52ZM405.109 650.416C380.769 647.029 365.052 615.429 370.005 579.83C374.959 544.232 398.705 518.123 423.045 521.509C447.385 524.896 463.102 556.496 458.149 592.095C453.196 627.693 429.449 653.802 405.109 650.416ZM549.057 496.542C548.62 499.682 545.72 501.874 542.579 501.437L461.739 490.189C458.598 489.752 456.406 486.852 456.843 483.711V483.711C457.28 480.57 460.181 478.378 463.321 478.815L544.161 490.064C547.302 490.501 549.494 493.401 549.057 496.542V496.542ZM553.804 462.422C553.367 465.562 550.467 467.754 547.326 467.317L466.486 456.069C463.346 455.632 461.154 452.731 461.591 449.591V449.591C462.028 446.45 464.928 444.258 468.069 444.695L548.909 455.944C552.05 456.381 554.241 459.281 553.804 462.422V462.422ZM558.552 428.303C558.115 431.443 555.215 433.634 552.075 433.197L471.233 421.949C468.093 421.512 465.901 418.612 466.338 415.472V415.472C466.775 412.332 469.675 410.14 472.815 410.577L553.657 421.826C556.797 422.263 558.989 425.162 558.552 428.303V428.303ZM615.754 491.352C616.294 497.966 607.766 501.072 603.926 495.66V495.66C601.751 492.595 597.441 491.997 594.511 494.351V494.351C589.329 498.515 581.95 493.202 584.273 486.973L587.273 478.929C588.303 476.165 587.899 473.071 586.192 470.665L582.323 465.21C578.089 459.243 583.035 451.104 590.282 452.112L591.363 452.262C594.607 452.714 597.73 450.851 598.873 447.782V447.782C601.483 440.777 611.787 442.21 612.385 449.662V449.662C612.647 452.927 615.143 455.571 618.387 456.023L619.471 456.173C626.72 457.182 629.256 466.365 623.553 470.952L618.342 475.142C616.047 476.988 614.815 479.852 615.055 482.788L615.754 491.352ZM437.235 551.311C437.745 553.428 436.848 555.634 435.004 556.793L389.335 585.506C386.399 587.352 382.519 585.773 381.706 582.402V582.402C381.195 580.285 382.093 578.079 383.936 576.92L429.605 548.206C432.541 546.36 436.422 547.939 437.235 551.311V551.311ZM441.824 570.46C442.335 572.577 441.436 574.784 439.593 575.943L393.919 604.651C390.986 606.494 387.109 604.917 386.296 601.55V601.55C385.785 599.434 386.682 597.229 388.524 596.07L434.194 567.355C437.13 565.509 441.011 567.088 441.824 570.46V570.46ZM438.86 586.485C441.796 584.643 445.674 586.225 446.484 589.595V589.595C446.993 591.712 446.093 593.918 444.248 595.075L398.564 623.731C395.627 625.572 391.75 623.991 390.94 620.62V620.62C390.431 618.503 391.331 616.297 393.175 615.14L438.86 586.485Z" fill="#0A9FBF"/>
<path d="M415.908 113.047L485.205 711.953C486.612 723.985 478.018 734.844 465.987 736.25L176.377 769.766C164.346 771.172 153.487 762.578 152.08 750.547L82.7835 151.641C81.3772 139.61 89.971 128.75 102.002 127.344L391.612 93.8283C403.643 92.422 414.502 101.094 415.908 113.047Z" fill="white"/>
<path d="M173.878 781.641C157.081 781.641 142.471 768.985 140.518 751.875L71.2213 152.969C69.112 134.531 82.3151 117.813 100.753 115.703L390.284 82.1877C408.721 80.0783 425.44 93.2814 427.549 111.719L496.846 710.625C498.956 729.063 485.753 745.781 467.315 747.891L177.706 781.406C176.456 781.563 175.128 781.641 173.878 781.641ZM394.112 105.391C393.721 105.391 393.331 105.391 392.94 105.469L103.331 138.985C100.596 139.297 98.1745 140.625 96.5338 142.813C94.8932 145 94.112 147.578 94.4245 150.313L163.721 749.141C164.346 754.688 169.424 758.75 174.971 758.047L464.581 724.531C470.128 723.906 474.19 718.828 473.487 713.281L404.19 114.375C403.643 109.219 399.19 105.391 394.112 105.391Z" fill="#0A9FBF"/>
<path d="M204.128 618.833L185.538 621.054C182.116 621.463 179.673 624.569 180.082 627.992L182.304 646.582C182.713 650.004 185.819 652.447 189.241 652.038L207.831 649.816C211.254 649.407 213.696 646.301 213.287 642.879L211.066 624.289C210.657 620.866 207.551 618.424 204.128 618.833Z" stroke="#0A9FBF" stroke-width="12.4817"/>
<path d="M213.756 699.391L195.165 701.612C191.743 702.021 189.3 705.127 189.709 708.55L191.931 727.14C192.34 730.562 195.446 733.005 198.868 732.596L217.459 730.374C220.881 729.965 223.324 726.859 222.915 723.437L220.693 704.847C220.284 701.424 217.178 698.982 213.756 699.391Z" stroke="#0A9FBF" stroke-width="12.4817"/>
<path d="M284.686 609.205L266.096 611.427C262.673 611.836 260.23 614.942 260.64 618.364L262.861 636.954C263.27 640.377 266.376 642.82 269.799 642.411L288.389 640.189C291.811 639.78 294.254 636.674 293.845 633.252L291.623 614.661C291.214 611.239 288.108 608.796 284.686 609.205Z" stroke="#0A9FBF" stroke-width="12.4817" stroke-linejoin="round"/>
<path d="M212.411 661.84L206.214 662.58C204.503 662.785 203.282 664.338 203.486 666.049L204.227 672.246C204.431 673.957 205.984 675.178 207.695 674.974L213.892 674.233C215.603 674.029 216.825 672.476 216.62 670.765L215.88 664.568C215.675 662.857 214.122 661.635 212.411 661.84Z" fill="#0A9FBF"/>
<path d="M237.47 608.563L243.667 607.822C245.378 607.618 246.931 608.839 247.135 610.55L249.357 629.14C249.562 630.852 248.34 632.405 246.629 632.609L240.432 633.35C238.721 633.554 237.5 635.107 237.704 636.818L238.445 643.015C238.649 644.726 237.428 646.279 235.717 646.484L229.52 647.224C227.809 647.429 226.256 646.207 226.051 644.496L223.829 625.906C223.625 624.195 224.847 622.642 226.558 622.437L232.754 621.697C234.465 621.492 235.687 619.939 235.482 618.228L234.742 612.031C234.537 610.32 235.759 608.767 237.47 608.563Z" fill="#0A9FBF"/>
<path d="M238.678 671.271L220.088 673.493C218.377 673.697 217.156 675.25 217.36 676.962L218.101 683.158C218.305 684.87 219.858 686.091 221.569 685.886L240.16 683.665C241.871 683.46 243.092 681.907 242.888 680.196L242.147 673.999C241.943 672.288 240.39 671.067 238.678 671.271Z" fill="#0A9FBF"/>
<path d="M299.165 651.471L280.575 653.693C278.864 653.898 277.642 655.451 277.847 657.162L278.587 663.359C278.792 665.07 280.345 666.291 282.056 666.087L300.646 663.865C302.358 663.66 303.579 662.107 303.374 660.396L302.634 654.2C302.429 652.488 300.876 651.267 299.165 651.471Z" fill="#0A9FBF"/>
<path d="M267.909 705.489L249.319 707.711C247.607 707.915 246.386 709.468 246.591 711.179L247.331 717.376C247.536 719.087 249.089 720.309 250.8 720.104L269.39 717.883C271.101 717.678 272.323 716.125 272.118 714.414L271.377 708.217C271.173 706.506 269.62 705.285 267.909 705.489Z" fill="#0A9FBF"/>
<path d="M241.641 696.058L235.445 696.799C233.733 697.003 232.512 698.556 232.716 700.267L233.457 706.464C233.662 708.175 235.215 709.397 236.926 709.192L243.122 708.452C244.834 708.247 246.055 706.694 245.851 704.983L245.11 698.786C244.905 697.075 243.352 695.854 241.641 696.058Z" fill="#0A9FBF"/>
<path d="M241.407 667.802L240.666 661.605C240.462 659.894 241.683 658.341 243.394 658.137L261.985 655.915C263.695 655.71 265.249 656.932 265.453 658.643L268.045 680.331L277.34 679.221C279.051 679.016 280.605 680.238 280.809 681.949L281.55 688.145C281.754 689.856 280.532 691.41 278.822 691.614L269.526 692.725L260.231 693.836C258.52 694.04 256.967 692.819 256.763 691.108L254.541 672.518C254.336 670.807 252.783 669.585 251.072 669.789L244.875 670.53C243.165 670.735 241.611 669.513 241.407 667.802Z" fill="#0A9FBF"/>
<path d="M275.587 717.142L281.784 716.401C283.494 716.197 284.716 714.643 284.512 712.932L283.771 706.736C283.567 705.025 284.788 703.472 286.499 703.267L292.696 702.526C294.407 702.322 295.628 700.769 295.424 699.058L293.202 680.468C292.998 678.757 294.219 677.203 295.93 676.999L302.127 676.258C303.838 676.054 305.391 677.275 305.596 678.986L306.707 688.282L308.188 700.675L309.299 709.97C309.503 711.681 308.281 713.234 306.571 713.439L300.374 714.179C298.663 714.384 297.441 715.937 297.646 717.648L298.386 723.845C298.591 725.556 297.369 727.109 295.658 727.313L277.068 729.535C275.357 729.74 273.804 728.518 273.599 726.807L272.859 720.61C272.654 718.899 273.876 717.346 275.587 717.142Z" fill="#0A9FBF"/>
<path d="M180.921 687.602L178.699 669.011C178.494 667.301 179.716 665.747 181.427 665.543L187.624 664.802C189.335 664.598 190.888 665.819 191.092 667.53L191.833 673.727C192.037 675.438 193.59 676.66 195.302 676.455L201.498 675.715C203.21 675.51 204.763 676.732 204.967 678.443L205.708 684.639C205.912 686.35 204.691 687.904 202.98 688.108L184.389 690.33C182.678 690.534 181.125 689.313 180.921 687.602Z" fill="#0A9FBF"/>
<path d="M258.478 731.757L239.888 733.979C238.177 734.183 236.624 732.962 236.419 731.251L235.679 725.054C235.474 723.343 236.696 721.79 238.407 721.585L244.603 720.845C246.314 720.64 247.536 719.087 247.332 717.376L246.591 711.179C246.386 709.468 247.608 707.915 249.319 707.711L267.909 705.489C269.62 705.284 271.173 706.506 271.378 708.217L272.119 714.414C272.323 716.125 271.101 717.678 269.39 717.882L263.194 718.623C261.483 718.827 260.261 720.381 260.466 722.092L261.206 728.288C261.411 729.999 260.189 731.552 258.478 731.757Z" fill="#0A9FBF"/>
<path d="M399.42 349.884C398.842 349.331 397.998 349.16 397.252 349.44L377.062 357.062C376.231 357.374 375.302 357.126 374.734 356.449L364.24 343.89C364.118 343.742 363.977 343.612 363.816 343.508L354.512 337.186C354.26 337.015 354.051 336.79 353.892 336.526L340.708 314.181C340.647 314.066 340.573 313.963 340.485 313.87L333.289 305.642C333.272 305.619 333.255 305.602 333.239 305.584L323.178 293.161C322.841 292.741 322.671 292.206 322.725 291.667L322.841 290.372C322.896 289.755 323.224 289.195 323.734 288.844C324.249 288.493 324.888 288.39 325.485 288.562L326.863 288.966C327.635 289.194 328.472 288.948 329.003 288.337C329.53 287.731 329.66 286.873 329.338 286.136L327.352 281.643C327.056 280.967 326.423 280.501 325.686 280.421L310.604 278.739C310.285 278.706 309.954 278.746 309.656 278.856L298.249 283.056C297.913 283.18 297.548 283.214 297.191 283.151L286.625 281.393C286.234 281.329 285.866 281.155 285.575 280.885L282.593 278.179C282.178 277.807 281.634 277.613 281.08 277.649L274.679 278.017C273.618 278.083 272.77 278.937 272.73 280.004L272.517 285.211C272.491 285.777 272.243 286.308 271.822 286.679C271.396 287.05 270.839 287.237 270.281 287.195L256.482 286.102C255.727 286.039 255.071 285.58 254.759 284.896L253.457 282.052C253.095 281.266 252.281 280.786 251.419 280.85L240.619 281.646C239.988 281.694 239.375 281.45 238.947 280.992L234.955 276.716C234.555 276.288 234.356 275.708 234.405 275.126C234.452 274.538 234.749 274.006 235.215 273.65L236.072 272.999C236.951 272.336 237.152 271.101 236.543 270.186L232.415 264.024C231.924 263.3 231.033 262.959 230.183 263.178L190.673 273.187C190.507 273.225 190.349 273.291 190.198 273.37L178.995 279.412C178.793 279.526 178.573 279.598 178.344 279.633L170.874 280.839C170.374 280.923 169.926 281.18 169.609 281.569L157.114 296.613C156.831 296.954 156.662 297.375 156.638 297.814L156.249 304.54C156.221 305.13 155.936 305.676 155.476 306.046L143.916 315.247C143.643 315.461 143.426 315.746 143.296 316.066L134.225 337.68C134.075 338.036 134.025 338.42 134.085 338.802L136.984 357.426C137.006 357.588 137.014 357.748 136.997 357.91L136.313 366.424C136.264 367.046 136.5 367.661 136.95 368.098L171.208 400.809C171.776 401.349 172.601 401.522 173.344 401.262L186.437 396.54C186.638 396.469 186.847 396.427 187.064 396.418L206.036 395.694C206.297 395.69 206.557 395.624 206.803 395.519L220.315 389.47C220.958 389.182 221.702 389.242 222.292 389.624L231.531 395.652C231.979 395.939 232.529 396.049 233.057 395.948L240.83 394.442C241.401 394.337 241.988 394.467 242.452 394.815C242.922 395.157 243.225 395.677 243.288 396.258L244.111 403.861C244.123 403.966 244.124 404.069 244.12 404.171L243.782 412.347C243.762 412.922 243.979 413.49 244.392 413.897L254.255 423.72C254.462 423.93 254.625 424.185 254.733 424.46L264.683 450.873C264.825 451.24 264.854 451.64 264.774 452.022L260.55 472.762C260.448 473.258 260.533 473.778 260.785 474.217L274.356 497.495C274.457 497.668 274.535 497.854 274.582 498.058L278.557 514.653C278.647 515.037 278.854 515.383 279.132 515.659L291.002 527.124C291.35 527.465 291.567 527.907 291.619 528.392L292.613 537.574C292.677 538.164 292.993 538.702 293.486 539.046C293.97 539.392 294.583 539.501 295.166 539.36L313.483 534.931L328.849 531.073C329.331 530.949 329.756 530.66 330.041 530.246L350.782 500.496C350.982 500.203 351.11 499.854 351.139 499.497L351.644 493.934C351.692 493.39 351.957 492.881 352.38 492.529L354.69 490.605C355.206 490.165 355.484 489.509 355.426 488.836L354.012 471.963C353.975 471.487 354.103 471.008 354.376 470.614L358.779 464.264C359.006 463.939 359.314 463.692 359.681 463.536L369.57 459.398C370.421 459.044 370.933 458.178 370.834 457.261L368.618 436.787C368.599 436.614 368.561 436.448 368.501 436.289L361.41 417.323C361.068 416.409 361.408 415.382 362.229 414.851L363.826 413.825C364.117 413.638 364.352 413.389 364.514 413.095L377.08 390.549C377.258 390.225 377.525 389.958 377.84 389.768L389.219 383.115C389.653 382.86 389.982 382.45 390.139 381.973L399.953 352.028C400.201 351.266 399.999 350.434 399.42 349.884Z" fill="#0A9FBF"/>
<path d="M404.131 441.41C403.743 440.836 403.099 440.488 402.41 440.49C401.721 440.487 401.073 440.829 400.689 441.404L391.982 454.315C391.807 454.582 391.573 454.802 391.294 454.958L385.962 458.015C385.244 458.423 384.845 459.219 384.933 460.039L386.187 471.615C386.205 471.787 386.199 471.957 386.174 472.125L385.26 478.752C385.209 479.136 385.266 479.524 385.421 479.88L390.386 491C390.617 491.514 391.038 491.906 391.563 492.101C392.084 492.293 392.669 492.268 393.168 492.029L400.341 488.627C400.95 488.337 401.38 487.777 401.503 487.118L407.006 455.824L408.294 448.671C408.388 448.147 408.276 447.601 407.98 447.152L404.131 441.41Z" fill="#0A9FBF"/>
<path d="M158.996 178.402L158.972 178.191C158.958 178.071 158.756 177.465 158.366 176.372C157.993 175.257 157.724 174.506 157.557 174.119C157.411 173.729 156.886 172.256 155.981 169.699C155.095 167.119 154.202 165.099 153.302 163.638C152.4 162.158 151.879 161.426 151.739 161.442C151.618 161.456 151.298 162.295 150.779 163.96C148.239 172.237 147.101 177.518 147.364 179.804L147.385 179.984C147.45 180.545 148.404 180.72 150.249 180.507L151.542 180.358L151.809 180.297L154.429 180.025L155.722 179.876L155.959 179.819L156.441 179.763L157.396 179.592C158.539 179.46 159.072 179.064 158.996 178.402ZM171.771 192.471L171.833 193.012C171.923 193.794 171.357 194.256 170.134 194.397C168.931 194.535 167.831 194.154 166.833 193.254C165.855 192.351 164.802 190.877 163.672 188.834C162.543 186.79 161.744 185.592 161.277 185.239C160.233 184.466 158.258 184.247 155.35 184.582C150.899 185.095 148.089 185.825 146.918 186.773C146.211 187.342 145.495 188.877 144.767 191.378C144.04 193.88 143.62 195.259 143.507 195.516C142.853 196.891 141.914 197.65 140.691 197.79L140.18 197.849C139.238 197.958 138.712 197.541 138.604 196.599C138.518 195.857 138.904 193.303 139.762 188.938C142.897 172.954 144.76 163.912 145.351 161.812C145.962 159.71 146.645 158.057 147.4 156.853C148.153 155.628 149.241 154.934 150.665 154.77C152.108 154.603 153.375 155.016 154.464 156.008C155.551 156.98 157.071 159.232 159.022 162.766C162.74 169.468 166.021 176.78 168.864 184.7C169.162 185.519 169.703 186.869 170.489 188.749C171.274 190.629 171.702 191.87 171.771 192.471ZM183.668 159.529C183.795 160.632 184.163 161.443 184.771 161.962C184.905 162.068 186.068 162.462 188.26 163.144C189.817 163.615 190.658 164.391 190.783 165.474C190.866 166.196 190.198 167.004 188.777 167.899C187.377 168.792 186.484 169.86 186.099 171.103C185.347 173.567 185.364 178.207 186.149 185.024C186.605 188.974 186.729 191.458 186.521 192.478C186.226 193.974 185.287 194.814 183.703 194.996L183.102 195.066C182.199 195.17 181.518 194.72 181.057 193.717C180.785 193.118 180.511 191.626 180.236 189.24L180.137 187.85C180.101 187.367 180.056 186.884 180 186.403L179.844 184.257L179.632 182.149C179.181 178.239 178.588 174.945 177.853 172.267C177.541 171.145 176.983 170.183 176.18 169.382C175.394 168.558 174.953 167.725 174.855 166.883L174.797 166.372C174.741 165.891 175.081 165.141 175.817 164.121C176.573 163.1 177.059 162.119 177.276 161.18C178.595 155.705 179.43 152.724 179.78 152.237C181.26 150.095 183.554 148.846 186.662 148.488C188.486 148.277 189.812 148.409 190.638 148.882C191.463 149.336 191.897 149.753 191.941 150.134L191.993 150.585C192.085 151.387 191.693 152.042 190.817 152.549C190.513 152.726 189.612 153.023 188.116 153.439C186.618 153.836 185.568 154.333 184.966 154.93C183.874 156.031 183.441 157.564 183.668 159.529ZM198.561 167.381C198.401 165.998 198.454 164.956 198.718 164.255C198.981 163.534 199.573 163.12 200.495 163.014C201.417 162.907 202.518 163.116 203.797 163.639C205.077 164.162 205.786 164.415 205.927 164.399C206.087 164.38 206.407 164.161 206.887 163.74C208.674 162.152 210.32 161.272 211.824 161.098L212.666 161.001C213.588 160.895 214.389 161.057 215.068 161.486C215.768 161.914 216.171 162.588 216.277 163.511C216.381 164.413 216.056 165.121 215.303 165.634C214.983 165.854 214.288 166.086 213.219 166.331C212.151 166.577 211.118 166.96 210.122 167.481C209.145 168 208.323 168.887 207.655 170.142C206.689 171.98 206.49 175.366 207.058 180.298L207.326 183.68L207.488 185.612C207.694 187.396 207.554 188.743 207.07 189.652C206.606 190.559 205.692 191.091 204.328 191.248L203.877 191.3C202.674 191.438 201.872 190.911 201.47 189.718C201.439 189.62 201.209 187.717 200.782 184.008L200.085 177.963L199.996 177.455L199.882 176.462L199.793 175.955C199.753 175.614 199.714 175.273 199.675 174.932L199.107 171.066L198.665 168.283L198.561 167.381ZM227.792 173.52L227.982 175.174C228.327 178.161 229.207 180.426 230.625 181.97C232.059 183.491 233.809 184.132 235.875 183.894L236.172 183.829C238.357 183.577 239.973 182.436 241.019 180.406C242.062 178.356 242.382 175.576 241.977 172.067L241.825 170.744C241.511 168.017 240.708 165.814 239.417 164.135C238.127 162.455 236.509 161.727 234.564 161.951L233.692 162.052C231.607 162.292 230.005 163.462 228.886 165.562C227.787 167.659 227.422 170.312 227.792 173.52ZM248.304 170.637L248.414 171.6C248.941 176.171 248.125 180.013 245.964 183.127C244.939 184.627 243.544 185.834 241.78 186.748C240.017 187.662 238.202 188.227 236.338 188.442L235.345 188.556C231.797 188.965 228.734 187.866 226.158 185.258C224.088 183.16 222.812 180.026 222.332 175.856L222.158 174.352C222.125 173.706 222.048 172.861 221.927 171.819C221.814 170.836 221.966 169.417 222.381 167.561C223.195 163.871 225.02 161.193 227.855 159.525C229.567 158.515 231.285 157.911 233.009 157.712L233.971 157.601C237.961 157.141 241.343 158.194 244.118 160.759C246.391 162.853 247.786 166.146 248.304 170.637ZM254.83 153.764L253.763 146.086C253.67 145.284 253.774 144.683 254.073 144.283C254.372 143.883 255.073 143.619 256.176 143.492C257.299 143.363 258.221 144.049 258.942 145.55C259.266 146.244 259.733 148.354 260.342 151.88C260.97 155.383 261.659 157.487 262.411 158.193C263.53 159.263 267.337 159.423 273.833 158.675C276.119 158.411 277.503 157.642 277.986 156.367C278.312 155.497 278.372 153.286 278.166 149.734C277.957 146.162 277.931 143.991 278.086 143.222C278.444 141.393 279.565 140.369 281.45 140.152C282.071 140.081 282.609 140.252 283.063 140.667C283.538 141.08 283.881 142.208 284.094 144.053L284.464 147.271L284.559 148.357L285.069 152.778L285.525 157.266L285.725 159.528C285.858 161.037 285.964 162.132 286.043 162.813L286.986 172.852L287.781 179.221C287.955 180.725 287.38 181.553 286.057 181.706C284.392 181.897 283.21 181.424 282.51 180.286C281.83 179.145 281.247 176.46 280.759 172.229C280.271 167.999 279.619 165.514 278.803 164.775C278.006 164.034 276.004 163.849 272.796 164.218C267.383 164.842 264.24 165.865 263.368 167.286C262.836 168.14 262.694 170.34 262.94 173.887C263.206 177.432 263.251 179.844 263.073 181.125C262.802 183.005 261.915 184.031 260.411 184.204C259.349 184.327 258.649 184.164 258.313 183.715C257.975 183.246 257.718 182.25 257.542 180.726L256.928 175.403L256.834 174.317C256.425 170.768 256.167 168.177 256.06 166.544C255.973 164.908 255.825 163.188 255.617 161.384L255.523 160.297C255.459 159.573 255.389 158.87 255.31 158.189L255.215 157.103L254.83 153.764ZM306.818 175.168C308.161 175.013 309.385 174.527 310.489 173.709C311.611 172.869 312.421 171.698 312.919 170.199C313.436 168.697 313.602 165.549 313.415 160.756C313.248 155.96 313.196 153.304 313.258 152.789C313.419 151.186 314.111 150.314 315.334 150.173C316.577 150.03 317.413 150.411 317.843 151.316C318.27 152.202 318.636 153.968 318.941 156.614C319.246 159.261 319.662 161.904 320.19 164.546C320.736 167.164 321.103 169.296 321.293 170.94L321.509 172.286C321.705 173.991 321.559 175.186 321.069 175.872C320.597 176.536 319.91 176.92 319.008 177.024C318.126 177.126 317.267 176.991 316.432 176.62C315.597 176.249 315.009 176.083 314.668 176.122C314.327 176.162 313.717 176.425 312.839 176.912C311.981 177.397 311.1 177.864 310.197 178.314C309.312 178.741 308.087 179.044 306.523 179.225L305.802 179.308C302.594 179.678 300.092 178.859 298.296 176.851C296.5 174.844 295.299 171.204 294.691 165.931L294.327 162.773L294.267 161.987L294.09 160.454C293.582 156.043 293.406 153.554 293.565 152.987C293.793 152.148 294.579 151.651 295.922 151.496C297.285 151.339 298.321 152.043 299.03 153.607C299.302 154.205 299.754 157.241 300.384 162.715C301.015 168.188 301.64 171.489 302.257 172.616C303.313 174.546 304.833 175.397 306.818 175.168ZM347.549 157.613L347.302 155.996C347.052 153.831 346.263 152.094 344.933 150.784C343.624 149.472 342.258 148.898 340.834 149.062L340.233 149.132L339.966 149.193C337.6 149.466 335.912 150.595 334.901 152.58C334.123 154.112 333.879 156.142 334.171 158.668C334.18 159.276 334.197 159.691 334.223 159.911L334.343 161.482L334.523 163.046C334.909 166.394 335.584 168.643 336.55 169.791C337.535 170.937 339.06 171.391 341.125 171.153L341.396 171.122C343.702 170.856 345.438 169.701 346.604 167.657C347.788 165.59 348.164 162.682 347.732 158.933L347.614 157.911L347.549 157.613ZM329.495 169.659L328.868 164.216L328.818 163.521L328.662 162.167L328.533 160.78L328.377 159.427L328.201 157.375L327.723 153.225L327.292 148.429C327.259 147.966 327.214 147.493 327.159 147.012L326.821 143.547L326.665 142.193C326.193 138.103 325.991 135.729 326.057 135.072C326.157 134.004 326.689 133.414 327.651 133.303L328.222 133.237C329.706 133.066 330.719 133.478 331.26 134.472C331.799 135.446 332.252 137.527 332.619 140.715C332.984 143.883 333.279 145.819 333.502 146.525C333.744 147.208 334.175 147.514 334.797 147.442C334.877 147.433 335.295 147.273 336.052 146.962L337.57 146.391C338.739 145.952 339.985 145.656 341.308 145.503C342.651 145.348 344.017 145.475 345.405 145.884C348.141 146.707 350.339 148.769 351.999 152.072C353.08 154.223 353.744 156.371 353.992 158.516L354.234 160.622C354.412 162.165 354.297 163.895 353.888 165.812C353.105 169.417 351.151 172.12 348.027 173.923C346.673 174.688 345.214 175.161 343.65 175.341L342.357 175.491C341.515 175.588 340.339 175.52 338.829 175.288C337.319 175.055 336.354 174.964 335.933 175.012L333.694 175.422C332.411 175.57 331.459 175.243 330.839 174.441C330.218 173.639 329.77 172.045 329.495 169.659Z" fill="#0A9FBF"/>
</svg>
