<svg width="6492" height="6457" viewBox="0 0 6492 6457" fill="none" xmlns="http://www.w3.org/2000/svg">
<path d="M6352.38 3282.07H4492.02C4492.02 3282.07 4676.57 2778.18 4960.51 2778.18C5244.45 2778.18 5333.33 3125.96 5333.33 3125.96C5333.33 3125.96 5524.99 2937.08 5682.34 2937.08C5839.69 2937.08 5976.01 3186.7 5976.01 3186.7C5976.01 3186.7 6198.9 3051.92 6352.38 3282.07Z" fill="#EBEBEB"/>
<path d="M4142.85 659.691H3273.26C3273.26 659.691 3467.55 377.916 3620.73 377.916C3773.9 377.916 3819.04 565.869 3819.04 565.869C3819.04 565.869 3927.23 478.384 4027.08 493.996C4126.93 509.607 4142.85 659.691 4142.85 659.691Z" fill="#EBEBEB"/>
<path d="M5795.94 1247.66H4926.2C4926.2 1247.66 5120.49 966.042 5273.51 966.042C5426.53 966.042 5471.35 1153.84 5471.35 1153.84C5471.35 1153.84 5579.55 1066.2 5679.4 1081.81C5779.25 1097.42 5795.94 1247.66 5795.94 1247.66Z" fill="#EBEBEB"/>
<path d="M4572.39 2654.53H3702.8C3702.8 2654.53 3897.09 2372.91 4050.11 2372.91C4203.13 2372.91 4248.42 2560.71 4248.42 2560.71C4248.42 2560.71 4356.62 2473.07 4456.62 2488.68C4556.63 2504.29 4572.39 2654.53 4572.39 2654.53Z" fill="#EBEBEB"/>
<path d="M1007.93 3255.33H138.801C138.801 3255.33 332.628 2974.64 485.649 2974.64C638.67 2974.64 684.112 3162.28 684.112 3162.28C684.112 3162.28 792.309 3074.64 892.159 3090.41C992.009 3106.17 1007.93 3255.33 1007.93 3255.33Z" fill="#EBEBEB"/>
<path d="M2162.23 1510.43H468.336C468.336 1510.43 700.186 992.628 948.42 960.169C1196.65 927.71 1315.21 1345.04 1315.21 1345.04C1315.21 1345.04 1475.34 1197.58 1601.16 1197.58C1726.97 1197.58 1823.58 1391.72 1823.58 1391.72C1823.58 1391.72 2075.83 1258.95 2162.23 1510.43Z" fill="#EBEBEB"/>
<path d="M5119.41 3664.01H4606.86V6351.15H5119.41V3664.01Z" fill="#DBDBDB"/>
<path d="M4786 3751.34H4686.31V3853.97H4786V3751.34Z" fill="#EBEBEB"/>
<path d="M4913.52 3751.34H4813.83V3853.97H4913.52V3751.34Z" fill="#EBEBEB"/>
<path d="M4786 3925.38H4686.31V4028.01H4786V3925.38Z" fill="#EBEBEB"/>
<path d="M4913.52 3925.38H4813.83V4028.01H4913.52V3925.38Z" fill="#EBEBEB"/>
<path d="M4786 4099.57H4686.31V4202.21H4786V4099.57Z" fill="#EBEBEB"/>
<path d="M4913.52 4099.57H4813.83V4202.21H4913.52V4099.57Z" fill="#EBEBEB"/>
<path d="M4786 4273.77H4686.31V4376.4H4786V4273.77Z" fill="#EBEBEB"/>
<path d="M4913.52 4273.77H4813.83V4376.4H4913.52V4273.77Z" fill="#EBEBEB"/>
<path d="M4786 4447.97H4686.31V4550.6H4786V4447.97Z" fill="#EBEBEB"/>
<path d="M4913.52 4447.97H4813.83V4550.6H4913.52V4447.97Z" fill="#EBEBEB"/>
<path d="M4786 4622.16H4686.31V4724.8H4786V4622.16Z" fill="#EBEBEB"/>
<path d="M4913.52 4622.16H4813.83V4724.8H4913.52V4622.16Z" fill="#EBEBEB"/>
<path d="M4786 4796.36H4686.31V4898.99H4786V4796.36Z" fill="#EBEBEB"/>
<path d="M4913.52 4796.36H4813.83V4898.99H4913.52V4796.36Z" fill="#EBEBEB"/>
<path d="M4786 4970.56H4686.31V5073.19H4786V4970.56Z" fill="#EBEBEB"/>
<path d="M4913.52 4970.56H4813.83V5073.19H4913.52V4970.56Z" fill="#EBEBEB"/>
<path d="M4786 5144.75H4686.31V5247.39H4786V5144.75Z" fill="#EBEBEB"/>
<path d="M4913.52 5144.75H4813.83V5247.39H4913.52V5144.75Z" fill="#EBEBEB"/>
<path d="M4786 5318.95H4686.31V5421.58H4786V5318.95Z" fill="#EBEBEB"/>
<path d="M4913.52 5318.95H4813.83V5421.58H4913.52V5318.95Z" fill="#EBEBEB"/>
<path d="M4786 5493.15H4686.31V5595.78H4786V5493.15Z" fill="#EBEBEB"/>
<path d="M4913.52 5493.15H4813.83V5595.78H4913.52V5493.15Z" fill="#EBEBEB"/>
<path d="M4786 5667.34H4686.31V5769.98H4786V5667.34Z" fill="#EBEBEB"/>
<path d="M4913.52 5667.34H4813.83V5769.98H4913.52V5667.34Z" fill="#EBEBEB"/>
<path d="M4786 5841.54H4686.31V5944.17H4786V5841.54Z" fill="#EBEBEB"/>
<path d="M4913.52 5841.54H4813.83V5944.17H4913.52V5841.54Z" fill="#EBEBEB"/>
<path d="M4786 6015.74H4686.31V6118.37H4786V6015.74Z" fill="#EBEBEB"/>
<path d="M4940.11 6118.37H5039.8V6015.74H4940.11V6118.37Z" fill="#EBEBEB"/>
<path d="M4940.11 5944.17H5039.8V5841.54H4940.11V5944.17Z" fill="#EBEBEB"/>
<path d="M4940.11 5769.98H5039.8V5667.34H4940.11V5769.98Z" fill="#EBEBEB"/>
<path d="M4940.11 5595.78H5039.8V5493.15H4940.11V5595.78Z" fill="#EBEBEB"/>
<path d="M4940.11 5421.58H5039.8V5318.95H4940.11V5421.58Z" fill="#EBEBEB"/>
<path d="M4940.11 5247.54H5039.8V5144.91H4940.11V5247.54Z" fill="#EBEBEB"/>
<path d="M4940.11 5073.35H5039.8V4970.71H4940.11V5073.35Z" fill="#EBEBEB"/>
<path d="M4940.11 4899.15H5039.8V4796.52H4940.11V4899.15Z" fill="#EBEBEB"/>
<path d="M4940.11 4724.95H5039.8V4622.32H4940.11V4724.95Z" fill="#EBEBEB"/>
<path d="M4940.11 4550.75H5039.8V4448.12H4940.11V4550.75Z" fill="#EBEBEB"/>
<path d="M4940.11 4376.56H5039.8V4273.93H4940.11V4376.56Z" fill="#EBEBEB"/>
<path d="M4940.11 4202.36H5039.8V4099.73H4940.11V4202.36Z" fill="#EBEBEB"/>
<path d="M4940.11 4028.16H5039.8V3925.53H4940.11V4028.16Z" fill="#EBEBEB"/>
<path d="M4940.11 3853.81H5039.8V3751.18H4940.11V3853.81Z" fill="#EBEBEB"/>
<path d="M4913.52 6015.74H4813.83V6118.37H4913.52V6015.74Z" fill="#EBEBEB"/>
<path d="M5523.6 3664.01H5119.41V6351.15H5523.6V3664.01Z" fill="#A6A6A6"/>
<path d="M5399.64 6118.37H5481.87V6015.74H5399.64V6118.37Z" fill="#C7C7C7"/>
<path d="M5294.38 6118.37H5376.61V6015.74H5294.38V6118.37Z" fill="#C7C7C7"/>
<path d="M5399.64 5944.17H5481.87V5841.54H5399.64V5944.17Z" fill="#C7C7C7"/>
<path d="M5294.38 5944.17H5376.61V5841.54H5294.38V5944.17Z" fill="#C7C7C7"/>
<path d="M5399.64 5769.98H5481.87V5667.34H5399.64V5769.98Z" fill="#C7C7C7"/>
<path d="M5294.38 5769.98H5376.61V5667.34H5294.38V5769.98Z" fill="#C7C7C7"/>
<path d="M5399.64 5595.78H5481.87V5493.15H5399.64V5595.78Z" fill="#C7C7C7"/>
<path d="M5294.38 5595.78H5376.61V5493.15H5294.38V5595.78Z" fill="#C7C7C7"/>
<path d="M5399.64 5421.58H5481.87V5318.95H5399.64V5421.58Z" fill="#C7C7C7"/>
<path d="M5294.38 5421.58H5376.61V5318.95H5294.38V5421.58Z" fill="#C7C7C7"/>
<path d="M5399.64 5247.54H5481.87V5144.91H5399.64V5247.54Z" fill="#C7C7C7"/>
<path d="M5294.38 5247.54H5376.61V5144.91H5294.38V5247.54Z" fill="#C7C7C7"/>
<path d="M5399.64 5073.35H5481.87V4970.71H5399.64V5073.35Z" fill="#C7C7C7"/>
<path d="M5294.38 5073.35H5376.61V4970.71H5294.38V5073.35Z" fill="#C7C7C7"/>
<path d="M5399.64 4899.15H5481.87V4796.52H5399.64V4899.15Z" fill="#C7C7C7"/>
<path d="M5294.38 4899.15H5376.61V4796.52H5294.38V4899.15Z" fill="#C7C7C7"/>
<path d="M5399.64 4724.95H5481.87V4622.32H5399.64V4724.95Z" fill="#C7C7C7"/>
<path d="M5294.38 4724.95H5376.61V4622.32H5294.38V4724.95Z" fill="#C7C7C7"/>
<path d="M5399.64 4550.75H5481.87V4448.12H5399.64V4550.75Z" fill="#C7C7C7"/>
<path d="M5294.38 4550.75H5376.61V4448.12H5294.38V4550.75Z" fill="#C7C7C7"/>
<path d="M5399.64 4376.56H5481.87V4273.93H5399.64V4376.56Z" fill="#C7C7C7"/>
<path d="M5294.38 4376.56H5376.61V4273.93H5294.38V4376.56Z" fill="#C7C7C7"/>
<path d="M5399.64 4202.36H5481.87V4099.73H5399.64V4202.36Z" fill="#C7C7C7"/>
<path d="M5294.38 4202.36H5376.61V4099.73H5294.38V4202.36Z" fill="#C7C7C7"/>
<path d="M5399.64 4028.16H5481.87V3925.53H5399.64V4028.16Z" fill="#C7C7C7"/>
<path d="M5294.38 4028.16H5376.61V3925.53H5294.38V4028.16Z" fill="#C7C7C7"/>
<path d="M5399.64 3853.81H5481.87V3751.18H5399.64V3853.81Z" fill="#C7C7C7"/>
<path d="M5272.27 3751.34H5190.04V3853.97H5272.27V3751.34Z" fill="#C7C7C7"/>
<path d="M5272.27 3925.38H5190.04V4028.01H5272.27V3925.38Z" fill="#C7C7C7"/>
<path d="M5272.27 4099.57H5190.04V4202.21H5272.27V4099.57Z" fill="#C7C7C7"/>
<path d="M5272.27 4273.77H5190.04V4376.4H5272.27V4273.77Z" fill="#C7C7C7"/>
<path d="M5272.27 4447.97H5190.04V4550.6H5272.27V4447.97Z" fill="#C7C7C7"/>
<path d="M5272.27 4622.16H5190.04V4724.8H5272.27V4622.16Z" fill="#C7C7C7"/>
<path d="M5272.27 4796.36H5190.04V4898.99H5272.27V4796.36Z" fill="#C7C7C7"/>
<path d="M5272.27 4970.56H5190.04V5073.19H5272.27V4970.56Z" fill="#C7C7C7"/>
<path d="M5272.27 5144.75H5190.04V5247.39H5272.27V5144.75Z" fill="#C7C7C7"/>
<path d="M5272.27 5318.95H5190.04V5421.58H5272.27V5318.95Z" fill="#C7C7C7"/>
<path d="M5272.27 5493.15H5190.04V5595.78H5272.27V5493.15Z" fill="#C7C7C7"/>
<path d="M5272.27 5667.34H5190.04V5769.98H5272.27V5667.34Z" fill="#C7C7C7"/>
<path d="M5272.27 5841.54H5190.04V5944.17H5272.27V5841.54Z" fill="#C7C7C7"/>
<path d="M5272.27 6015.74H5190.04V6118.37H5272.27V6015.74Z" fill="#C7C7C7"/>
<path d="M5294.38 3853.81H5376.61V3751.18H5294.38V3853.81Z" fill="#C7C7C7"/>
<path d="M1479.82 3519.02H873.457V6350.99H1479.82V3519.02Z" fill="#EBEBEB"/>
<path d="M1479.82 3457.04H858.773V3519.02H1479.82V3457.04Z" fill="#C7C7C7"/>
<path d="M989.537 3610.53H928.174V6351.15H989.537V3610.53Z" fill="white"/>
<path d="M1098.51 3610.53H1037.14V6351.15H1098.51V3610.53Z" fill="white"/>
<path d="M1207.32 3610.53H1145.96V6351.15H1207.32V3610.53Z" fill="white"/>
<path d="M1316.29 3610.53H1254.77V6351.15H1316.29V3610.53Z" fill="white"/>
<path d="M1424.95 3610.53H1363.59V6351.15H1424.95V3610.53Z" fill="white"/>
<path d="M989.537 3688.89H928.174V3811.31H989.537V3688.89Z" fill="#EBEBEB"/>
<path d="M1098.51 3688.89H1037.14V3811.31H1098.51V3688.89Z" fill="#EBEBEB"/>
<path d="M1207.32 3688.89H1145.96V3811.31H1207.32V3688.89Z" fill="#EBEBEB"/>
<path d="M1316.29 3688.89H1254.77V3811.31H1316.29V3688.89Z" fill="#EBEBEB"/>
<path d="M1424.95 3688.89H1363.59V3811.31H1424.95V3688.89Z" fill="#EBEBEB"/>
<path d="M989.537 3887.66H928.174V4010.08H989.537V3887.66Z" fill="#EBEBEB"/>
<path d="M1098.51 3887.66H1037.14V4010.08H1098.51V3887.66Z" fill="#EBEBEB"/>
<path d="M1207.32 3887.66H1145.96V4010.08H1207.32V3887.66Z" fill="#EBEBEB"/>
<path d="M1316.29 3887.66H1254.77V4010.08H1316.29V3887.66Z" fill="#EBEBEB"/>
<path d="M1424.95 3887.66H1363.59V4010.08H1424.95V3887.66Z" fill="#EBEBEB"/>
<path d="M989.537 4086.59H928.174V4209.01H989.537V4086.59Z" fill="#EBEBEB"/>
<path d="M1098.51 4086.59H1037.14V4209.01H1098.51V4086.59Z" fill="#EBEBEB"/>
<path d="M1207.32 4086.59H1145.96V4209.01H1207.32V4086.59Z" fill="#EBEBEB"/>
<path d="M1316.29 4086.59H1254.77V4209.01H1316.29V4086.59Z" fill="#EBEBEB"/>
<path d="M1424.95 4086.59H1363.59V4209.01H1424.95V4086.59Z" fill="#EBEBEB"/>
<path d="M989.537 4285.52H928.174V4407.94H989.537V4285.52Z" fill="#EBEBEB"/>
<path d="M1098.51 4285.52H1037.14V4407.94H1098.51V4285.52Z" fill="#EBEBEB"/>
<path d="M1207.32 4285.52H1145.96V4407.94H1207.32V4285.52Z" fill="#EBEBEB"/>
<path d="M1316.29 4285.52H1254.77V4407.94H1316.29V4285.52Z" fill="#EBEBEB"/>
<path d="M1424.95 4285.52H1363.59V4407.94H1424.95V4285.52Z" fill="#EBEBEB"/>
<path d="M989.537 4484.45H928.174V4606.86H989.537V4484.45Z" fill="#EBEBEB"/>
<path d="M1098.51 4484.45H1037.14V4606.86H1098.51V4484.45Z" fill="#EBEBEB"/>
<path d="M1207.32 4484.45H1145.96V4606.86H1207.32V4484.45Z" fill="#EBEBEB"/>
<path d="M1316.29 4484.45H1254.77V4606.86H1316.29V4484.45Z" fill="#EBEBEB"/>
<path d="M1424.95 4484.45H1363.59V4606.86H1424.95V4484.45Z" fill="#EBEBEB"/>
<path d="M989.537 4683.37H928.174V4805.79H989.537V4683.37Z" fill="#EBEBEB"/>
<path d="M1098.51 4683.37H1037.14V4805.79H1098.51V4683.37Z" fill="#EBEBEB"/>
<path d="M1207.32 4683.37H1145.96V4805.79H1207.32V4683.37Z" fill="#EBEBEB"/>
<path d="M1316.29 4683.37H1254.77V4805.79H1316.29V4683.37Z" fill="#EBEBEB"/>
<path d="M1424.95 4683.37H1363.59V4805.79H1424.95V4683.37Z" fill="#EBEBEB"/>
<path d="M989.537 4882.3H928.174V5004.72H989.537V4882.3Z" fill="#EBEBEB"/>
<path d="M1098.51 4882.3H1037.14V5004.72H1098.51V4882.3Z" fill="#EBEBEB"/>
<path d="M1207.32 4882.3H1145.96V5004.72H1207.32V4882.3Z" fill="#EBEBEB"/>
<path d="M1316.29 4882.3H1254.77V5004.72H1316.29V4882.3Z" fill="#EBEBEB"/>
<path d="M1424.95 4882.3H1363.59V5004.72H1424.95V4882.3Z" fill="#EBEBEB"/>
<path d="M989.537 5081.23H928.174V5203.64H989.537V5081.23Z" fill="#EBEBEB"/>
<path d="M1098.51 5081.23H1037.14V5203.64H1098.51V5081.23Z" fill="#EBEBEB"/>
<path d="M1207.32 5081.23H1145.96V5203.64H1207.32V5081.23Z" fill="#EBEBEB"/>
<path d="M1316.29 5081.23H1254.77V5203.64H1316.29V5081.23Z" fill="#EBEBEB"/>
<path d="M1424.95 5081.23H1363.59V5203.64H1424.95V5081.23Z" fill="#EBEBEB"/>
<path d="M989.537 5280.16H928.174V5402.57H989.537V5280.16Z" fill="#EBEBEB"/>
<path d="M1098.51 5280.16H1037.14V5402.57H1098.51V5280.16Z" fill="#EBEBEB"/>
<path d="M1207.32 5280.16H1145.96V5402.57H1207.32V5280.16Z" fill="#EBEBEB"/>
<path d="M1316.29 5280.16H1254.77V5402.57H1316.29V5280.16Z" fill="#EBEBEB"/>
<path d="M1424.95 5280.16H1363.59V5402.57H1424.95V5280.16Z" fill="#EBEBEB"/>
<path d="M989.537 5479.08H928.174V5601.5H989.537V5479.08Z" fill="#EBEBEB"/>
<path d="M1098.51 5479.08H1037.14V5601.5H1098.51V5479.08Z" fill="#EBEBEB"/>
<path d="M1207.32 5479.08H1145.96V5601.5H1207.32V5479.08Z" fill="#EBEBEB"/>
<path d="M1316.29 5479.08H1254.77V5601.5H1316.29V5479.08Z" fill="#EBEBEB"/>
<path d="M1424.95 5479.08H1363.59V5601.5H1424.95V5479.08Z" fill="#EBEBEB"/>
<path d="M989.537 5678.01H928.174V5800.43H989.537V5678.01Z" fill="#EBEBEB"/>
<path d="M1098.51 5678.01H1037.14V5800.43H1098.51V5678.01Z" fill="#EBEBEB"/>
<path d="M1207.32 5678.01H1145.96V5800.43H1207.32V5678.01Z" fill="#EBEBEB"/>
<path d="M1316.29 5678.01H1254.77V5800.43H1316.29V5678.01Z" fill="#EBEBEB"/>
<path d="M1424.95 5678.01H1363.59V5800.43H1424.95V5678.01Z" fill="#EBEBEB"/>
<path d="M989.537 5876.94H928.174V5999.35H989.537V5876.94Z" fill="#EBEBEB"/>
<path d="M1098.51 5876.94H1037.14V5999.35H1098.51V5876.94Z" fill="#EBEBEB"/>
<path d="M1207.32 5876.94H1145.96V5999.35H1207.32V5876.94Z" fill="#EBEBEB"/>
<path d="M1316.29 5876.94H1254.77V5999.35H1316.29V5876.94Z" fill="#EBEBEB"/>
<path d="M1424.95 5876.94H1363.59V5999.35H1424.95V5876.94Z" fill="#EBEBEB"/>
<path d="M989.537 6075.87H928.174V6198.28H989.537V6075.87Z" fill="#EBEBEB"/>
<path d="M1098.51 6075.87H1037.14V6198.28H1098.51V6075.87Z" fill="#EBEBEB"/>
<path d="M1207.32 6075.87H1145.96V6198.28H1207.32V6075.87Z" fill="#EBEBEB"/>
<path d="M1316.29 6075.87H1254.77V6198.28H1316.29V6075.87Z" fill="#EBEBEB"/>
<path d="M1424.95 6075.87H1363.59V6198.28H1424.95V6075.87Z" fill="#EBEBEB"/>
<path d="M989.537 6274.79H928.174V6351.15H989.537V6274.79Z" fill="#EBEBEB"/>
<path d="M1098.51 6274.79H1037.14V6351.15H1098.51V6274.79Z" fill="#EBEBEB"/>
<path d="M1207.32 6274.79H1145.96V6351.15H1207.32V6274.79Z" fill="#EBEBEB"/>
<path d="M1316.29 6274.79H1254.77V6351.15H1316.29V6274.79Z" fill="#EBEBEB"/>
<path d="M1424.95 6274.79H1363.59V6351.15H1424.95V6274.79Z" fill="#EBEBEB"/>
<path d="M1869.18 3519.02H1479.82V6350.99H1869.18V3519.02Z" fill="#DBDBDB"/>
<path d="M1886.02 3457.04H1479.82V3519.02H1886.02V3457.04Z" fill="#C7C7C7"/>
<path d="M1596.21 3610.53H1534.69V6351.15H1596.21V3610.53Z" fill="#C7C7C7"/>
<path d="M1704.87 3610.53H1643.51V6351.15H1704.87V3610.53Z" fill="#C7C7C7"/>
<path d="M1813.69 3610.53H1752.32V6351.15H1813.69V3610.53Z" fill="#C7C7C7"/>
<path d="M1596.21 3688.89H1534.69V3811.31H1596.21V3688.89Z" fill="#DBDBDB"/>
<path d="M1704.87 3688.89H1643.51V3811.31H1704.87V3688.89Z" fill="#DBDBDB"/>
<path d="M1813.69 3688.89H1752.32V3811.31H1813.69V3688.89Z" fill="#DBDBDB"/>
<path d="M1596.21 3887.66H1534.69V4010.08H1596.21V3887.66Z" fill="#DBDBDB"/>
<path d="M1704.87 3887.66H1643.51V4010.08H1704.87V3887.66Z" fill="#DBDBDB"/>
<path d="M1813.69 3887.66H1752.32V4010.08H1813.69V3887.66Z" fill="#DBDBDB"/>
<path d="M1596.21 4086.59H1534.69V4209.01H1596.21V4086.59Z" fill="#DBDBDB"/>
<path d="M1704.87 4086.59H1643.51V4209.01H1704.87V4086.59Z" fill="#DBDBDB"/>
<path d="M1813.69 4086.59H1752.32V4209.01H1813.69V4086.59Z" fill="#DBDBDB"/>
<path d="M1596.21 4285.52H1534.69V4407.94H1596.21V4285.52Z" fill="#DBDBDB"/>
<path d="M1704.87 4285.52H1643.51V4407.94H1704.87V4285.52Z" fill="#DBDBDB"/>
<path d="M1813.69 4285.52H1752.32V4407.94H1813.69V4285.52Z" fill="#DBDBDB"/>
<path d="M1596.21 4484.45H1534.69V4606.86H1596.21V4484.45Z" fill="#DBDBDB"/>
<path d="M1704.87 4484.45H1643.51V4606.86H1704.87V4484.45Z" fill="#DBDBDB"/>
<path d="M1813.69 4484.45H1752.32V4606.86H1813.69V4484.45Z" fill="#DBDBDB"/>
<path d="M1596.21 4683.37H1534.69V4805.79H1596.21V4683.37Z" fill="#DBDBDB"/>
<path d="M1704.87 4683.37H1643.51V4805.79H1704.87V4683.37Z" fill="#DBDBDB"/>
<path d="M1813.69 4683.37H1752.32V4805.79H1813.69V4683.37Z" fill="#DBDBDB"/>
<path d="M1596.21 4882.3H1534.69V5004.72H1596.21V4882.3Z" fill="#DBDBDB"/>
<path d="M1704.87 4882.3H1643.51V5004.72H1704.87V4882.3Z" fill="#DBDBDB"/>
<path d="M1813.69 4882.3H1752.32V5004.72H1813.69V4882.3Z" fill="#DBDBDB"/>
<path d="M1596.21 5081.23H1534.69V5203.64H1596.21V5081.23Z" fill="#DBDBDB"/>
<path d="M1704.87 5081.23H1643.51V5203.64H1704.87V5081.23Z" fill="#DBDBDB"/>
<path d="M1813.69 5081.23H1752.32V5203.64H1813.69V5081.23Z" fill="#DBDBDB"/>
<path d="M1596.21 5280.16H1534.69V5402.57H1596.21V5280.16Z" fill="#DBDBDB"/>
<path d="M1704.87 5280.16H1643.51V5402.57H1704.87V5280.16Z" fill="#DBDBDB"/>
<path d="M1813.69 5280.16H1752.32V5402.57H1813.69V5280.16Z" fill="#DBDBDB"/>
<path d="M1596.21 5479.08H1534.69V5601.5H1596.21V5479.08Z" fill="#DBDBDB"/>
<path d="M1704.87 5479.08H1643.51V5601.5H1704.87V5479.08Z" fill="#DBDBDB"/>
<path d="M1813.69 5479.08H1752.32V5601.5H1813.69V5479.08Z" fill="#DBDBDB"/>
<path d="M1596.21 5678.01H1534.69V5800.43H1596.21V5678.01Z" fill="#DBDBDB"/>
<path d="M1704.87 5678.01H1643.51V5800.43H1704.87V5678.01Z" fill="#DBDBDB"/>
<path d="M1813.69 5678.01H1752.32V5800.43H1813.69V5678.01Z" fill="#DBDBDB"/>
<path d="M1596.21 5876.94H1534.69V5999.35H1596.21V5876.94Z" fill="#DBDBDB"/>
<path d="M1704.87 5876.94H1643.51V5999.35H1704.87V5876.94Z" fill="#DBDBDB"/>
<path d="M1813.69 5876.94H1752.32V5999.35H1813.69V5876.94Z" fill="#DBDBDB"/>
<path d="M1596.21 6075.87H1534.69V6198.28H1596.21V6075.87Z" fill="#DBDBDB"/>
<path d="M1704.87 6075.87H1643.51V6198.28H1704.87V6075.87Z" fill="#DBDBDB"/>
<path d="M1813.69 6075.87H1752.32V6198.28H1813.69V6075.87Z" fill="#DBDBDB"/>
<path d="M1596.21 6274.79H1534.69V6351.15H1596.21V6274.79Z" fill="#DBDBDB"/>
<path d="M1704.87 6274.79H1643.51V6351.15H1704.87V6274.79Z" fill="#DBDBDB"/>
<path d="M1813.69 6274.79H1752.32V6351.15H1813.69V6274.79Z" fill="#DBDBDB"/>
<path d="M715.953 4559.87H112.061V6351.15H715.953V4559.87Z" fill="#EBEBEB"/>
<path d="M715.953 4407.94H198V4559.87H715.953V4407.94Z" fill="#C7C7C7"/>
<path d="M649.798 4639.17H178.369V6351.15H649.798V4639.17Z" fill="#DBDBDB"/>
<path d="M649.798 4802.54H178.369V4843.04H649.798V4802.54Z" fill="white"/>
<path d="M649.798 4970.09H178.369V5010.59H649.798V4970.09Z" fill="white"/>
<path d="M649.798 5137.65H178.369V5178.14H649.798V5137.65Z" fill="white"/>
<path d="M649.798 5305.2H178.369V5345.69H649.798V5305.2Z" fill="white"/>
<path d="M649.798 5472.75H178.369V5513.24H649.798V5472.75Z" fill="white"/>
<path d="M649.798 5640.3H178.369V5680.79H649.798V5640.3Z" fill="white"/>
<path d="M649.798 5807.85H178.369V5848.34H649.798V5807.85Z" fill="white"/>
<path d="M649.798 5975.4H178.369V6015.89H649.798V5975.4Z" fill="white"/>
<path d="M649.798 6143.1H178.369V6183.6H649.798V6143.1Z" fill="white"/>
<path d="M649.798 6310.65H178.369V6351.15H649.798V6310.65Z" fill="white"/>
<path d="M1094.18 4559.87H715.953V6351.15H1094.18V4559.87Z" fill="#DBDBDB"/>
<path d="M1037.45 4407.94H715.953V4559.87H1037.45V4407.94Z" fill="#A6A6A6"/>
<path d="M1058.78 4639.17H768.041V6351.15H1058.78V4639.17Z" fill="#C7C7C7"/>
<path d="M1058.78 4802.54H768.041V4843.04H1058.78V4802.54Z" fill="white"/>
<path d="M1058.78 4970.09H768.041V5010.59H1058.78V4970.09Z" fill="white"/>
<path d="M1058.78 5137.65H768.041V5178.14H1058.78V5137.65Z" fill="white"/>
<path d="M1058.78 5305.2H768.041V5345.69H1058.78V5305.2Z" fill="white"/>
<path d="M1058.78 5472.75H768.041V5513.24H1058.78V5472.75Z" fill="white"/>
<path d="M1058.78 5640.3H768.041V5680.79H1058.78V5640.3Z" fill="white"/>
<path d="M1058.78 5807.85H768.041V5848.34H1058.78V5807.85Z" fill="white"/>
<path d="M1058.78 5975.4H768.041V6015.89H1058.78V5975.4Z" fill="white"/>
<path d="M1058.78 6143.1H768.041V6183.6H1058.78V6143.1Z" fill="white"/>
<path d="M1058.78 6310.65H768.041V6351.15H1058.78V6310.65Z" fill="white"/>
<path d="M2408.31 5302.41H1941.51V6350.99H2408.31V5302.41Z" fill="#DBDBDB"/>
<path d="M2097.47 5393.14H2014.93V5457.44H2097.47V5393.14Z" fill="#C7C7C7"/>
<path d="M2097.47 5530.4H2014.93V5594.7H2097.47V5530.4Z" fill="#C7C7C7"/>
<path d="M2097.47 5667.65H2014.93V5731.95H2097.47V5667.65Z" fill="#C7C7C7"/>
<path d="M2097.47 5804.91H2014.93V5869.21H2097.47V5804.91Z" fill="#C7C7C7"/>
<path d="M2097.47 5942.16H2014.93V6006.46H2097.47V5942.16Z" fill="#C7C7C7"/>
<path d="M2097.47 6079.27H2014.93V6143.56H2097.47V6079.27Z" fill="#C7C7C7"/>
<path d="M2097.47 6216.52H2014.93V6280.82H2097.47V6216.52Z" fill="#C7C7C7"/>
<path d="M2216.33 5393.14H2133.79V5457.44H2216.33V5393.14Z" fill="#C7C7C7"/>
<path d="M2216.33 5530.4H2133.79V5594.7H2216.33V5530.4Z" fill="#C7C7C7"/>
<path d="M2216.33 5667.65H2133.79V5731.95H2216.33V5667.65Z" fill="#C7C7C7"/>
<path d="M2216.33 5804.91H2133.79V5869.21H2216.33V5804.91Z" fill="#C7C7C7"/>
<path d="M2216.33 5942.16H2133.79V6006.46H2216.33V5942.16Z" fill="#C7C7C7"/>
<path d="M2216.33 6079.27H2133.79V6143.56H2216.33V6079.27Z" fill="#C7C7C7"/>
<path d="M2216.33 6216.52H2133.79V6280.82H2216.33V6216.52Z" fill="#C7C7C7"/>
<path d="M2334.89 5393.14H2252.35V5457.44H2334.89V5393.14Z" fill="#C7C7C7"/>
<path d="M2334.89 5530.4H2252.35V5594.7H2334.89V5530.4Z" fill="#C7C7C7"/>
<path d="M2334.89 5667.65H2252.35V5731.95H2334.89V5667.65Z" fill="#C7C7C7"/>
<path d="M2334.89 5804.91H2252.35V5869.21H2334.89V5804.91Z" fill="#C7C7C7"/>
<path d="M2334.89 5942.16H2252.35V6006.46H2334.89V5942.16Z" fill="#C7C7C7"/>
<path d="M2334.89 6079.27H2252.35V6143.56H2334.89V6079.27Z" fill="#C7C7C7"/>
<path d="M2334.89 6216.52H2252.35V6280.82H2334.89V6216.52Z" fill="#C7C7C7"/>
<path d="M2735.83 5302.41H2408.3V6350.99H2735.83V5302.41Z" fill="#A6A6A6"/>
<path d="M2635.05 6270.46H2702.29V6206.17H2635.05V6270.46Z" fill="#C7C7C7"/>
<path d="M2635.05 6133.36H2702.29V6069.06H2635.05V6133.36Z" fill="#C7C7C7"/>
<path d="M2635.05 5996.11H2702.29V5931.81H2635.05V5996.11Z" fill="#C7C7C7"/>
<path d="M2635.05 5859.01H2702.29V5794.71H2635.05V5859.01Z" fill="#C7C7C7"/>
<path d="M2635.05 5721.6H2702.29V5657.3H2635.05V5721.6Z" fill="#C7C7C7"/>
<path d="M2635.05 5584.34H2702.29V5520.04H2635.05V5584.34Z" fill="#C7C7C7"/>
<path d="M2635.05 5447.24H2702.29V5382.94H2635.05V5447.24Z" fill="#C7C7C7"/>
<path d="M2538.29 6270.46H2605.53V6206.17H2538.29V6270.46Z" fill="#C7C7C7"/>
<path d="M2538.29 6133.36H2605.53V6069.06H2538.29V6133.36Z" fill="#C7C7C7"/>
<path d="M2538.29 5996.11H2605.53V5931.81H2538.29V5996.11Z" fill="#C7C7C7"/>
<path d="M2538.29 5859.01H2605.53V5794.71H2538.29V5859.01Z" fill="#C7C7C7"/>
<path d="M2538.29 5721.6H2605.53V5657.3H2538.29V5721.6Z" fill="#C7C7C7"/>
<path d="M2538.29 5584.34H2605.53V5520.04H2538.29V5584.34Z" fill="#C7C7C7"/>
<path d="M2538.29 5447.24H2605.53V5382.94H2538.29V5447.24Z" fill="#C7C7C7"/>
<path d="M2441.85 6270.46H2509.08V6206.17H2441.85V6270.46Z" fill="#C7C7C7"/>
<path d="M2441.85 6133.36H2509.08V6069.06H2441.85V6133.36Z" fill="#C7C7C7"/>
<path d="M2441.85 5996.11H2509.08V5931.81H2441.85V5996.11Z" fill="#C7C7C7"/>
<path d="M2441.85 5859.01H2509.08V5794.71H2441.85V5859.01Z" fill="#C7C7C7"/>
<path d="M2441.85 5721.6H2509.08V5657.3H2441.85V5721.6Z" fill="#C7C7C7"/>
<path d="M2441.85 5584.34H2509.08V5520.04H2441.85V5584.34Z" fill="#C7C7C7"/>
<path d="M2441.85 5447.24H2509.08V5382.94H2441.85V5447.24Z" fill="#C7C7C7"/>
<path d="M5881.11 4099.57H5558.68V4480.58H5881.11V4099.57Z" fill="#DBDBDB"/>
<path d="M6085.76 4099.57H5881.26V4494.49H6085.76V4099.57Z" fill="#C7C7C7"/>
<path d="M6099.36 4267.9H5896.41V4494.65H6099.36V4267.9Z" fill="#DBDBDB"/>
<path d="M6225.95 4267.9H6099.36V4494.65H6225.95V4267.9Z" fill="#C7C7C7"/>
<path d="M5956.54 4455.85H5435.03V6350.99H5956.54V4455.85Z" fill="#EBEBEB"/>
<path d="M5658.69 4537.31H5494.69V4604.23H5658.69V4537.31Z" fill="white"/>
<path d="M5868.44 4537.31H5704.44V4604.23H5868.44V4537.31Z" fill="white"/>
<path d="M5658.69 4651.07H5494.69V4718H5658.69V4651.07Z" fill="white"/>
<path d="M5868.44 4651.07H5704.44V4718H5868.44V4651.07Z" fill="white"/>
<path d="M5658.69 4764.83H5494.69V4831.76H5658.69V4764.83Z" fill="white"/>
<path d="M5868.44 4764.83H5704.44V4831.76H5868.44V4764.83Z" fill="white"/>
<path d="M5658.69 4878.59H5494.69V4945.52H5658.69V4878.59Z" fill="white"/>
<path d="M5868.44 4878.59H5704.44V4945.52H5868.44V4878.59Z" fill="white"/>
<path d="M5658.69 4992.35H5494.69V5059.28H5658.69V4992.35Z" fill="white"/>
<path d="M5868.44 4992.35H5704.44V5059.28H5868.44V4992.35Z" fill="white"/>
<path d="M5658.69 5106.11H5494.69V5173.04H5658.69V5106.11Z" fill="white"/>
<path d="M5868.44 5106.11H5704.44V5173.04H5868.44V5106.11Z" fill="white"/>
<path d="M5658.69 5219.87H5494.69V5286.8H5658.69V5219.87Z" fill="white"/>
<path d="M5868.44 5219.87H5704.44V5286.8H5868.44V5219.87Z" fill="white"/>
<path d="M5658.69 5333.64H5494.69V5400.56H5658.69V5333.64Z" fill="white"/>
<path d="M5868.44 5333.64H5704.44V5400.56H5868.44V5333.64Z" fill="white"/>
<path d="M5658.69 5447.4H5494.69V5514.32H5658.69V5447.4Z" fill="white"/>
<path d="M5868.44 5447.4H5704.44V5514.32H5868.44V5447.4Z" fill="white"/>
<path d="M5658.69 5561.16H5494.69V5628.09H5658.69V5561.16Z" fill="white"/>
<path d="M5868.44 5561.16H5704.44V5628.09H5868.44V5561.16Z" fill="white"/>
<path d="M5658.69 5674.92H5494.69V5741.85H5658.69V5674.92Z" fill="white"/>
<path d="M5868.44 5674.92H5704.44V5741.85H5868.44V5674.92Z" fill="white"/>
<path d="M5658.69 5788.68H5494.69V5855.76H5658.69V5788.68Z" fill="white"/>
<path d="M5868.44 5788.68H5704.44V5855.76H5868.44V5788.68Z" fill="white"/>
<path d="M5658.69 5902.44H5494.69V5969.37H5658.69V5902.44Z" fill="white"/>
<path d="M5868.44 5902.44H5704.44V5969.37H5868.44V5902.44Z" fill="white"/>
<path d="M5658.69 6016.2H5494.69V6083.13H5658.69V6016.2Z" fill="white"/>
<path d="M5868.44 6016.2H5704.44V6083.13H5868.44V6016.2Z" fill="white"/>
<path d="M6379.12 4455.85H5956.54V6350.99H6379.12V4455.85Z" fill="#C7C7C7"/>
<path d="M6202.15 6083.13H6336.77V6016.2H6202.15V6083.13Z" fill="#EBEBEB"/>
<path d="M6029.8 6083.13H6164.43V6016.2H6029.8V6083.13Z" fill="#EBEBEB"/>
<path d="M6202.15 5969.37H6336.77V5902.44H6202.15V5969.37Z" fill="#EBEBEB"/>
<path d="M6029.8 5969.37H6164.43V5902.44H6029.8V5969.37Z" fill="#EBEBEB"/>
<path d="M6202.15 5855.61H6336.77V5788.53H6202.15V5855.61Z" fill="#EBEBEB"/>
<path d="M6029.8 5855.61H6164.43V5788.53H6029.8V5855.61Z" fill="#EBEBEB"/>
<path d="M6202.15 5741.85H6336.77V5674.92H6202.15V5741.85Z" fill="#EBEBEB"/>
<path d="M6029.8 5741.85H6164.43V5674.92H6029.8V5741.85Z" fill="#EBEBEB"/>
<path d="M6202.15 5628.09H6336.77V5561.16H6202.15V5628.09Z" fill="#EBEBEB"/>
<path d="M6029.8 5628.09H6164.43V5561.16H6029.8V5628.09Z" fill="#EBEBEB"/>
<path d="M6202.15 5514.32H6336.77V5447.4H6202.15V5514.32Z" fill="#EBEBEB"/>
<path d="M6029.8 5514.32H6164.43V5447.4H6029.8V5514.32Z" fill="#EBEBEB"/>
<path d="M6202.15 5400.56H6336.77V5333.64H6202.15V5400.56Z" fill="#EBEBEB"/>
<path d="M6029.8 5400.56H6164.43V5333.64H6029.8V5400.56Z" fill="#EBEBEB"/>
<path d="M6202.15 5286.8H6336.77V5219.87H6202.15V5286.8Z" fill="#EBEBEB"/>
<path d="M6029.8 5286.8H6164.43V5219.87H6029.8V5286.8Z" fill="#EBEBEB"/>
<path d="M6202.15 5173.04H6336.77V5106.11H6202.15V5173.04Z" fill="#EBEBEB"/>
<path d="M6029.8 5173.04H6164.43V5106.11H6029.8V5173.04Z" fill="#EBEBEB"/>
<path d="M6202.15 5059.28H6336.77V4992.35H6202.15V5059.28Z" fill="#EBEBEB"/>
<path d="M6029.8 5059.28H6164.43V4992.35H6029.8V5059.28Z" fill="#EBEBEB"/>
<path d="M6202.15 4945.52H6336.77V4878.59H6202.15V4945.52Z" fill="#EBEBEB"/>
<path d="M6029.8 4945.52H6164.43V4878.59H6029.8V4945.52Z" fill="#EBEBEB"/>
<path d="M6202.15 4831.76H6336.77V4764.83H6202.15V4831.76Z" fill="#EBEBEB"/>
<path d="M6029.8 4831.76H6164.43V4764.83H6029.8V4831.76Z" fill="#EBEBEB"/>
<path d="M6202.15 4718H6336.77V4651.07H6202.15V4718Z" fill="#EBEBEB"/>
<path d="M6029.8 4718H6164.43V4651.07H6029.8V4718Z" fill="#EBEBEB"/>
<path d="M6202.15 4604.39H6336.77V4537.46H6202.15V4604.39Z" fill="#EBEBEB"/>
<path d="M6029.8 4604.39H6164.43V4537.46H6029.8V4604.39Z" fill="#EBEBEB"/>
<path d="M3750.1 5116.16H3135.08V6351.15H3750.1V5116.16Z" fill="#C7C7C7"/>
<path d="M3340.65 5222.97H3231.84V5298.55H3340.65V5222.97Z" fill="#DBDBDB"/>
<path d="M3340.65 5384.64H3231.84V5460.38H3340.65V5384.64Z" fill="#DBDBDB"/>
<path d="M3340.65 5546.16H3231.84V5621.9H3340.65V5546.16Z" fill="#DBDBDB"/>
<path d="M3340.65 5707.84H3231.84V5783.58H3340.65V5707.84Z" fill="#DBDBDB"/>
<path d="M3340.65 5869.36H3231.84V5945.1H3340.65V5869.36Z" fill="#DBDBDB"/>
<path d="M3340.65 6031.04H3231.84V6106.78H3340.65V6031.04Z" fill="#DBDBDB"/>
<path d="M3340.65 6192.56H3231.84V6268.3H3340.65V6192.56Z" fill="#DBDBDB"/>
<path d="M3497.23 5222.97H3388.41V5298.55H3497.23V5222.97Z" fill="#DBDBDB"/>
<path d="M3497.23 5384.64H3388.41V5460.38H3497.23V5384.64Z" fill="#DBDBDB"/>
<path d="M3497.23 5546.16H3388.41V5621.9H3497.23V5546.16Z" fill="#DBDBDB"/>
<path d="M3497.23 5707.84H3388.41V5783.58H3497.23V5707.84Z" fill="#DBDBDB"/>
<path d="M3497.23 5869.36H3388.41V5945.1H3497.23V5869.36Z" fill="#DBDBDB"/>
<path d="M3497.23 6031.04H3388.41V6106.78H3497.23V6031.04Z" fill="#DBDBDB"/>
<path d="M3497.23 6192.56H3388.41V6268.3H3497.23V6192.56Z" fill="#DBDBDB"/>
<path d="M3653.34 5222.97H3544.53V5298.55H3653.34V5222.97Z" fill="#DBDBDB"/>
<path d="M3653.34 5384.64H3544.53V5460.38H3653.34V5384.64Z" fill="#DBDBDB"/>
<path d="M3653.34 5546.16H3544.53V5621.9H3653.34V5546.16Z" fill="#DBDBDB"/>
<path d="M3653.34 5707.84H3544.53V5783.58H3653.34V5707.84Z" fill="#DBDBDB"/>
<path d="M3653.34 5869.36H3544.53V5945.1H3653.34V5869.36Z" fill="#DBDBDB"/>
<path d="M3653.34 6031.04H3544.53V6106.78H3653.34V6031.04Z" fill="#DBDBDB"/>
<path d="M3653.34 6192.56H3544.53V6268.3H3653.34V6192.56Z" fill="#DBDBDB"/>
<path d="M3750.1 4987.41H3340.65V5116.01H3750.1V4987.41Z" fill="#DBDBDB"/>
<path d="M3750.25 4907.8H3490.58V4987.41H3750.25V4907.8Z" fill="#EBEBEB"/>
<path d="M4181.65 5116.16H3750.1V6351.15H4181.65V5116.16Z" fill="#A6A6A6"/>
<path d="M4049.03 6256.24H4137.6V6180.51H4049.03V6256.24Z" fill="#C7C7C7"/>
<path d="M4049.03 6094.57H4137.6V6018.83H4049.03V6094.57Z" fill="#C7C7C7"/>
<path d="M4049.03 5933.05H4137.6V5857.31H4049.03V5933.05Z" fill="#C7C7C7"/>
<path d="M4049.03 5771.37H4137.6V5695.63H4049.03V5771.37Z" fill="#C7C7C7"/>
<path d="M4049.03 5609.85H4137.6V5534.11H4049.03V5609.85Z" fill="#C7C7C7"/>
<path d="M4049.03 5448.17H4137.6V5372.43H4049.03V5448.17Z" fill="#C7C7C7"/>
<path d="M4049.03 5286.65H4137.6V5210.91H4049.03V5286.65Z" fill="#C7C7C7"/>
<path d="M3921.51 6256.24H4010.08V6180.51H3921.51V6256.24Z" fill="#C7C7C7"/>
<path d="M3921.51 6094.57H4010.08V6018.83H3921.51V6094.57Z" fill="#C7C7C7"/>
<path d="M3921.51 5933.05H4010.08V5857.31H3921.51V5933.05Z" fill="#C7C7C7"/>
<path d="M3921.51 5771.37H4010.08V5695.63H3921.51V5771.37Z" fill="#C7C7C7"/>
<path d="M3921.51 5609.85H4010.08V5534.11H3921.51V5609.85Z" fill="#C7C7C7"/>
<path d="M3921.51 5448.17H4010.08V5372.43H3921.51V5448.17Z" fill="#C7C7C7"/>
<path d="M3921.51 5286.65H4010.08V5210.91H3921.51V5286.65Z" fill="#C7C7C7"/>
<path d="M3794.46 6256.24H3883.03V6180.51H3794.46V6256.24Z" fill="#C7C7C7"/>
<path d="M3794.46 6094.57H3883.03V6018.83H3794.46V6094.57Z" fill="#C7C7C7"/>
<path d="M3794.46 5933.05H3883.03V5857.31H3794.46V5933.05Z" fill="#C7C7C7"/>
<path d="M3794.46 5771.37H3883.03V5695.63H3794.46V5771.37Z" fill="#C7C7C7"/>
<path d="M3794.46 5609.85H3883.03V5534.11H3794.46V5609.85Z" fill="#C7C7C7"/>
<path d="M3794.46 5448.17H3883.03V5372.43H3794.46V5448.17Z" fill="#C7C7C7"/>
<path d="M3794.46 5286.65H3883.03V5210.91H3794.46V5286.65Z" fill="#C7C7C7"/>
<path d="M4116.27 4987.41H3750.1V5116.01H4116.27V4987.41Z" fill="#C7C7C7"/>
<path d="M3948.56 4907.8H3750.1V4987.41H3948.56V4907.8Z" fill="#DBDBDB"/>
<path d="M6491.19 6449.14L5679.86 6452.85L4868.39 6454.24L3245.59 6456.87L1622.8 6454.24L811.475 6452.85L0 6449.14L811.475 6445.28L1622.8 6444.04L3245.59 6441.42L4868.39 6444.04L5679.86 6445.43L6491.19 6449.14Z" fill="#263238"/>
<path d="M6491.19 6350.99H0V6445.12H6491.19V6350.99Z" fill="#C7C7C7"/>
<path d="M455.045 6350.99C460.46 6366.11 463.079 6382.08 462.773 6398.14C463.078 6413.94 460.458 6429.66 455.045 6444.51C444.738 6413.98 444.738 6380.91 455.045 6350.38V6350.99Z" fill="#263238"/>
<path d="M962.487 6350.99C972.794 6381.52 972.794 6414.59 962.487 6445.12C957.074 6430.28 954.454 6414.56 954.759 6398.75C954.378 6382.49 956.998 6366.3 962.487 6350.99Z" fill="#263238"/>
<path d="M1469.77 6350.99C1475.19 6366.11 1477.81 6382.08 1477.5 6398.14C1477.81 6413.94 1475.19 6429.66 1469.77 6444.51C1459.47 6413.98 1459.47 6380.91 1469.77 6350.38V6350.99Z" fill="#263238"/>
<path d="M1977.22 6350.99C1987.52 6381.52 1987.52 6414.59 1977.22 6445.12C1971.8 6430.28 1969.18 6414.56 1969.49 6398.75C1969.11 6382.49 1971.73 6366.3 1977.22 6350.99Z" fill="#263238"/>
<path d="M2484.51 6350.99C2489.92 6366.11 2492.54 6382.08 2492.23 6398.14C2492.54 6413.94 2489.92 6429.66 2484.51 6444.51C2474.2 6413.98 2474.2 6380.91 2484.51 6350.38V6350.99Z" fill="#263238"/>
<path d="M2991.95 6350.99C3002.26 6381.52 3002.26 6414.59 2991.95 6445.12C2986.53 6430.28 2983.91 6414.56 2984.22 6398.75C2983.84 6382.49 2986.46 6366.3 2991.95 6350.99Z" fill="#263238"/>
<path d="M3499.24 6350.99C3504.65 6366.11 3507.27 6382.08 3506.97 6398.14C3507.27 6413.94 3504.65 6429.66 3499.24 6444.51C3488.93 6413.98 3488.93 6380.91 3499.24 6350.38V6350.99Z" fill="#263238"/>
<path d="M4006.68 6350.99C4016.99 6381.52 4016.99 6414.59 4006.68 6445.12C4001.27 6430.28 3998.64 6414.56 3998.95 6398.75C3998.57 6382.49 4001.19 6366.3 4006.68 6350.99Z" fill="#263238"/>
<path d="M4513.97 6350.99C4519.38 6366.11 4522 6382.08 4521.7 6398.14C4522 6413.94 4519.38 6429.66 4513.97 6444.51C4503.66 6413.98 4503.66 6380.91 4513.97 6350.38V6350.99Z" fill="#263238"/>
<path d="M5021.41 6350.99C5031.72 6381.52 5031.72 6414.59 5021.41 6445.12C5016 6430.28 5013.38 6414.56 5013.68 6398.75C5013.3 6382.49 5015.92 6366.3 5021.41 6350.99Z" fill="#263238"/>
<path d="M5528.7 6350.99C5534.11 6366.11 5536.73 6382.08 5536.43 6398.14C5536.73 6413.94 5534.11 6429.66 5528.7 6444.51C5518.39 6413.98 5518.39 6380.91 5528.7 6350.38V6350.99Z" fill="#263238"/>
<path d="M6036.14 6350.99C6046.45 6381.52 6046.45 6414.59 6036.14 6445.12C6030.73 6430.28 6028.11 6414.56 6028.41 6398.75C6028.03 6382.49 6030.65 6366.3 6036.14 6350.99Z" fill="#263238"/>
<path d="M5320.65 426.914L5316.94 415.94C5326.68 412.539 5336.57 409.448 5346.47 406.356L5349.87 417.331L5320.65 426.914Z" fill="#263238"/>
<path d="M3855.36 1676.28L3852.89 1664.84C3873.29 1660.67 3893.54 1655.56 3913.17 1649.38L3916.26 1660.51C3896.47 1666.85 3875.92 1671.95 3855.36 1676.28ZM3990.61 1635.93L3986.43 1625.12C4005.44 1617.7 4024.61 1609.66 4043.16 1600.38L4048.1 1610.9C4029.25 1620.01 4009.93 1628.36 3990.61 1635.93ZM4117.2 1574.11L4111.17 1564.22C4128.63 1553.71 4146.1 1542.27 4163.1 1530.37L4169.75 1539.79C4152.44 1551.39 4134.82 1562.82 4117.2 1573.49V1574.11ZM4232.04 1492.19L4224.62 1483.22C4240.08 1470.39 4255.53 1456.48 4270.99 1442.11L4278.87 1450.61C4263.57 1464.52 4247.8 1478.43 4232.04 1491.57V1492.19ZM4335.13 1395.43L4326.63 1387.39C4340.54 1373.02 4354.61 1357.56 4368.83 1341.02L4377.49 1348.75C4363.27 1364.67 4349.05 1380.28 4335.13 1394.81V1395.43ZM4427.87 1289.4L4418.91 1281.98C4432.05 1266.52 4444.88 1249.67 4457.71 1233.13L4466.83 1240.24C4454.15 1256.32 4441.22 1272.5 4428.03 1288.78L4427.87 1289.4ZM4514.12 1177.8L4504.85 1171L4541.95 1120.61L4551.22 1127.41L4514.12 1177.8ZM4597.13 1064.04L4587.7 1057.24L4624.64 1006.54L4633.91 1013.34L4597.13 1064.04ZM4680.44 949.813L4671.16 942.858C4683.68 926.164 4696.36 909.471 4709.19 892.932L4718.31 900.043C4705.48 916.581 4692.96 933.12 4680.44 949.813ZM4766.84 838.989L4757.87 831.569C4771.17 816.113 4784.61 799.42 4798.37 783.654L4807.03 791.227C4793.43 806.993 4779.98 822.914 4766.84 838.989ZM4859.58 733.42L4851.08 725.537C4865.76 710.08 4880.6 694.623 4895.13 680.712L4903.32 689.059C4888.64 702.506 4873.8 717.963 4859.43 733.42H4859.58ZM4960.51 636.352L4952.94 627.541C4968.39 613.63 4985.24 600.183 5001.32 587.663L5008.58 596.783C4992.2 609.766 4976.74 622.441 4960.36 636.352H4960.51ZM5071.34 551.031L5064.84 541.448C5082.16 529.701 5099.93 518.263 5117.71 507.752L5123.73 517.644C5105.96 528.155 5088.34 539.438 5071.18 551.031H5071.34ZM5191.74 480.548L5186.64 470.192C5205.19 460.918 5224.51 452.108 5243.68 443.916L5248.16 454.581C5228.99 462.619 5210.14 471.429 5191.59 480.548H5191.74Z" fill="#263238"/>
<path d="M3745.62 1692.66L3744.54 1681.07C3754.84 1680.14 3765.14 1679.06 3775.45 1677.82L3776.84 1689.26L3745.62 1692.66Z" fill="#263238"/>
<path d="M5466.56 215.93L5348.17 411.92L5534.26 317.634L6195.04 215.466L5466.56 215.93Z" fill="#FF725E"/>
<path opacity="0.1" d="M5466.56 215.93L5348.17 411.92L5534.26 317.634L6195.04 215.466L5466.56 215.93Z" fill="black"/>
<path d="M5545.39 370.96L5348.17 411.921L5534.26 317.635L5545.39 370.96Z" fill="#263238"/>
<path d="M5534.26 317.634L6195.04 215.466L5591.92 609.457L5534.26 317.634Z" fill="#FF725E"/>
<path d="M5466.56 215.93L5242.91 0L6195.04 215.466L5466.56 215.93Z" fill="#FF725E"/>
<path d="M1782.46 1874.12H1583.23V6351.15H1782.46V1874.12Z" fill="#37474F"/>
<path d="M1782.62 6350.99H1890.66L1890.66 1873.97H1782.62L1782.62 6350.99Z" fill="#455A64"/>
<path d="M1782.46 1817.71H1564.83V1873.97H1782.46V1817.71Z" fill="#263238"/>
<path d="M1782.46 1874.12H1909.36V1817.86H1782.46V1874.12Z" fill="#37474F"/>
<path d="M1782.46 1767.93H1608.73V1817.86H1782.46V1767.93Z" fill="#37474F"/>
<path d="M1869.33 1767.93H1782.46V1817.86H1869.33V1767.93Z" fill="#455A64"/>
<path d="M1852.17 1655.56C1852.14 1677.78 1845.53 1699.49 1833.16 1717.95C1820.79 1736.41 1803.23 1750.79 1782.7 1759.27C1762.16 1767.75 1739.57 1769.96 1717.79 1765.6C1696 1761.25 1675.99 1750.53 1660.29 1734.81C1644.59 1719.09 1633.9 1699.07 1629.58 1677.28C1625.26 1655.48 1627.49 1632.9 1636 1612.37C1644.51 1591.85 1658.91 1574.31 1677.39 1561.97C1695.87 1549.63 1717.59 1543.04 1739.8 1543.04C1754.57 1543.04 1769.2 1545.95 1782.84 1551.61C1796.48 1557.27 1808.88 1565.56 1819.32 1576.01C1829.75 1586.46 1838.03 1598.86 1843.66 1612.51C1849.3 1626.17 1852.19 1640.79 1852.17 1655.56Z" fill="#37474F"/>
<path d="M925.855 2261.16V2740.31H409.447V2265.64C409.427 2232.3 415.977 2199.28 428.722 2168.47C441.468 2137.66 460.159 2109.66 483.729 2086.08C507.298 2062.49 535.283 2043.78 566.086 2031.02C596.888 2018.26 629.904 2011.69 663.246 2011.69H676.384C742.548 2011.69 806.002 2037.97 852.787 2084.75C899.571 2131.54 925.855 2194.99 925.855 2261.16Z" fill="#FF725E"/>
<path d="M1739.8 2222.21V2740.78H925.854V2261.62C925.915 2228.82 919.507 2196.33 906.997 2166.01C894.487 2135.69 876.121 2108.13 852.949 2084.92C829.778 2061.7 802.256 2043.29 771.958 2030.72C741.661 2018.15 709.183 2011.69 676.383 2011.69H1529.9C1585.63 2011.85 1639.01 2034.1 1678.36 2073.56C1717.71 2113.03 1739.8 2166.48 1739.8 2222.21Z" fill="#FF725E"/>
<path opacity="0.1" d="M1739.8 2222.21V2740.78H925.854V2261.62C925.915 2228.82 919.507 2196.33 906.997 2166.01C894.487 2135.69 876.121 2108.13 852.949 2084.92C829.778 2061.7 802.256 2043.29 771.958 2030.72C741.661 2018.15 709.183 2011.69 676.383 2011.69H1529.9C1585.63 2011.85 1639.01 2034.1 1678.36 2073.56C1717.71 2113.03 1739.8 2166.48 1739.8 2222.21Z" fill="#020100"/>
<path opacity="0.1" d="M1067.13 2251.88V2740.78H1033.9V2261.62C1033.96 2228.83 1027.55 2196.36 1015.05 2166.05C1002.55 2135.74 984.202 2108.19 961.047 2084.97C937.892 2061.76 910.388 2043.34 880.108 2030.77C849.829 2018.19 817.367 2011.71 784.58 2011.69H826.931C890.635 2011.69 951.73 2036.99 996.776 2082.04C1041.82 2127.08 1067.13 2188.18 1067.13 2251.88Z" fill="#020100"/>
<path opacity="0.1" d="M1664.22 2251.88V2740.78H1630.99V2261.62C1630.99 2195.48 1604.73 2132.05 1557.97 2085.27C1511.22 2038.49 1447.81 2012.19 1381.67 2012.15H1424.02C1487.65 2012.15 1548.67 2037.39 1593.7 2082.34C1638.74 2127.28 1664.1 2188.26 1664.22 2251.88Z" fill="#020100"/>
<g opacity="0.1">
<path d="M1247.82 2612.18V2534.89L1219.84 2591.16H1204.38L1176.41 2534.89V2612.18H1146.42V2482.96H1178.88L1212.42 2550.35L1245.96 2482.96H1278.27V2612.18H1247.82Z" fill="#020100"/>
<path d="M1337.47 2482.96H1364.51L1410.88 2612.18H1379.97L1369.92 2583.12H1329.74L1319.84 2612.18H1288.93L1337.47 2482.96ZM1366.06 2562.56L1350.6 2516.19L1335.15 2562.56H1366.06Z" fill="#020100"/>
<path d="M1424.33 2612.18V2482.96H1454.16V2612.18H1424.33Z" fill="#020100"/>
<path d="M1478.89 2612.18V2482.96H1508.73V2585.9H1571.33V2612.18H1478.89Z" fill="#020100"/>
</g>
<path opacity="0.3" d="M899.423 2272.9V2703.53H435.723V2276.92C435.723 2246.93 441.64 2217.23 453.136 2189.53C464.632 2161.83 481.481 2136.67 502.717 2115.49C523.953 2094.31 549.159 2077.53 576.891 2066.11C604.622 2054.69 634.335 2048.86 664.327 2048.94H676.074C735.367 2049.1 792.175 2072.77 834.043 2114.75C875.912 2156.74 899.423 2213.61 899.423 2272.9Z" fill="#020100"/>
<path d="M352.102 2789.16L409.446 2741.24H925.854L873.919 2784.67C706.832 2924.87 478.228 3038.63 338.036 3038.63H304.341C166.622 3038.16 146.683 2947.28 352.102 2789.16Z" fill="#37474F"/>
<path d="M925.7 2740.78L873.92 2784.21C706.833 2924.4 478.229 3038.16 338.037 3038.16H301.405C166.313 3036.77 148.074 2945.42 352.102 2788.69L409.292 2740.78H925.7Z" fill="#37474F"/>
<path d="M887.522 2740.78L835.742 2784.21C669.273 2923.32 441.751 3037.24 301.405 3038.16C166.313 3036.77 148.074 2945.42 352.102 2788.69L409.292 2740.78H887.522Z" fill="#455A64"/>
<path d="M1659.89 2953.46V3085.31L1385.85 2740.78H1490.8L1659.89 2953.46Z" fill="#455A64"/>
<path d="M1659.89 3085.31H1621.25L1347.2 2740.78H1386L1659.89 3085.31Z" fill="#37474F"/>
<path d="M1236.22 1788.65V1910.75H1124.47V2369.35C1124.47 2379.6 1120.4 2389.43 1113.15 2396.68C1105.91 2403.92 1096.08 2408 1085.83 2408C1075.58 2408 1065.75 2403.92 1058.51 2396.68C1051.26 2389.43 1047.19 2379.6 1047.19 2369.35V1758.04L1124.47 1770.56L1236.22 1788.65Z" fill="#455A64"/>
<path d="M1236.23 1788.65V1910.75H1124.47V2369.35C1124.44 2378.24 1121.35 2386.83 1115.72 2393.7C1110.09 2400.57 1102.26 2405.29 1093.56 2407.07C1090.93 2407.69 1088.23 2408 1085.52 2408C1083.37 2408.24 1081.19 2408.24 1079.03 2408C1071.11 2406.78 1063.79 2403.04 1058.16 2397.33C1050.95 2390.05 1046.9 2380.22 1046.88 2369.97V1758.04L1124.16 1770.56L1236.23 1788.65Z" fill="#455A64"/>
<path d="M1085.37 2408H1055.23C1046.78 2408.09 1038.62 2404.93 1032.43 2399.18C1026.25 2393.43 1022.51 2385.51 1021.99 2377.08V1758.04H1046.72V2369.35C1046.74 2379.6 1050.79 2389.43 1058.01 2396.71C1065.6 2403.44 1075.24 2407.42 1085.37 2408Z" fill="#37474F"/>
<path d="M899.424 2272.9V2575.7L822.141 2543.4L777.007 2524.38L757.068 2516.04L744.085 2510.47L730.328 2504.75L726.155 2503.05L720.745 2500.74L607.293 2452.82L631.251 2395.79L635.888 2384.97L656.445 2336.43L664.637 2316.65L668.038 2308.92L682.258 2274.91L697.715 2236.58L759.541 2088.82L840.534 2122.97C864.507 2149.39 881.741 2181.21 890.768 2215.71C896.115 2234.32 899.025 2253.55 899.424 2272.9Z" fill="#EBEBEB"/>
<path d="M899.423 2351.73V2385.43L897.568 2381.56V2379.86L896.177 2376.93C895.602 2375.98 895.085 2375 894.631 2373.99L876.238 2336.12C876.238 2334.58 874.692 2333.03 873.919 2331.33L857.69 2297.33C854.289 2290.52 851.043 2283.72 847.797 2276.77L846.87 2274.6L822.294 2222.82C816.266 2209.69 810.083 2196.55 804.055 2183.26C789.835 2152.34 775.151 2120.5 761.395 2088.51C778.088 2118.03 793.699 2148.01 809.928 2177.85C817.657 2193.3 825.385 2207.06 833.114 2221.74L857.535 2268.11L860.781 2274.45L871.137 2294.54L883.811 2319.43C883.811 2320.67 885.203 2321.9 885.821 2323.14L899.423 2351.73Z" fill="#DBDBDB"/>
<path d="M899.423 2379.56V2380.95H897.569L892.932 2382.34C873.302 2388.37 853.672 2393.78 833.887 2398.88L827.395 2400.42L813.021 2403.98H811.32L794.318 2408L761.086 2415.41C737.592 2420.36 714.716 2425 690.449 2429.02H687.667L673.292 2431.34C653.353 2434.74 633.414 2437.52 613.32 2439.68C630.632 2433.96 647.943 2429.02 665.409 2424.23L680.866 2420.21L685.658 2418.82C709.77 2412.63 734.192 2407.22 758.458 2401.81L780.252 2397.18C786.744 2396.09 793.082 2394.7 799.573 2393.47C806.065 2392.23 815.03 2390.37 823.067 2389.14L832.032 2387.59L836.978 2386.67C854.908 2383.57 872.993 2380.79 891.386 2378.63H896.95L899.423 2379.56Z" fill="#DBDBDB"/>
<path d="M899.577 2302.89H499.559V2697.96H899.577V2302.89Z" fill="white"/>
<path d="M899.423 2485.28V2504.6L895.713 2507.85L888.603 2514.18C887.741 2514.86 886.916 2515.58 886.13 2516.35L883.966 2518.36L882.421 2519.75L822.603 2571.68L814.411 2578.64L810.856 2581.57L807.301 2578.64L777.315 2552.52L761.859 2539.69C758.767 2536.9 755.521 2534.28 752.43 2531.34C751.606 2530.85 750.873 2530.22 750.266 2529.48L739.446 2520.21L738.055 2518.97L735.582 2516.81L733.109 2514.8C712.5 2497.39 692.51 2479.77 673.137 2461.94L665.1 2454.83L652.271 2443.39L630.941 2424.38C615.484 2411.09 601.109 2397.64 586.425 2384.04L581.17 2379.4L575.451 2374.3C550.102 2350.65 524.444 2327.93 499.404 2303.51C526.144 2324.07 552.421 2345.86 578.852 2366.88C580.861 2368.58 583.025 2370.13 585.034 2371.98L591.681 2377.39L635.578 2413.41L657.835 2431.8L680.557 2450.81L690.294 2459C708.636 2474.36 726.927 2489.81 745.165 2505.37L749.184 2508.77L759.849 2517.89L764.641 2521.91L773.606 2529.64L810.547 2560.55C832.186 2542 853.98 2523.3 875.774 2504.91L882.266 2499.34C886.439 2495.79 890.458 2492.23 894.786 2488.83L899.423 2485.28Z" fill="#DBDBDB"/>
<path d="M746.401 2513.72L736.509 2522.07C721.052 2535.2 705.596 2547.88 688.593 2560.09C668.809 2575.55 648.561 2589.77 628.158 2604.14C607.755 2618.52 587.043 2632.27 566.331 2645.72C545.619 2659.17 523.98 2672.46 502.031 2684.52C520.888 2667.98 540.673 2652.52 560.457 2637.37C580.242 2622.23 600.645 2607.7 620.893 2593.32C641.141 2578.95 662.162 2565.04 682.72 2551.59C699.413 2540.92 716.415 2530.26 733.881 2520.67L746.092 2513.87L746.401 2513.72Z" fill="#DBDBDB"/>
<path d="M899.423 2527.48V2533.97L886.131 2522.84L882.421 2519.75L876.238 2514.49H877.32L884.74 2518.67L889.376 2521.45L899.423 2527.48Z" fill="#DBDBDB"/>
<path d="M2316.49 4690.33C2316.49 4690.33 1826.52 5105.65 1826.05 5105.8C1731.92 5184.79 1650.77 5255.73 1612.29 5296.23C1602.31 5304.64 1594.38 5315.21 1589.1 5327.14C1589.1 5327.14 1589.1 5327.92 1589.1 5328.22C1593.58 5372.12 2202.42 6142.79 2232.72 6162.89C2263.01 6182.98 2321.59 6097.97 2321.75 6049.12C2321.9 6000.28 2220.82 5600.88 2220.82 5600.88L2706.62 5181.08L2316.49 4690.33Z" fill="#EB9481"/>
<path d="M1926.68 5020.33C1926.68 5020.33 1826.52 5105.34 1826.05 5105.49C1731.92 5184.48 1650.77 5255.42 1612.29 5295.92C1603.36 5305.27 1595.58 5315.65 1589.1 5326.83C1589.1 5326.83 1589.1 5327.61 1589.1 5327.92C1593.58 5371.81 2202.42 6142.48 2232.72 6162.58C2263.01 6182.67 2321.59 6097.66 2321.75 6048.82C2321.9 5999.97 2220.82 5600.57 2220.82 5600.57L2324.07 5515.41L1926.68 5020.33Z" fill="#EBEBEB"/>
<path d="M2231.94 6163.19C2201.03 6143.56 1592.81 5372.89 1588.33 5328.53C1586.32 5311.69 1693.43 5216.47 1826.05 5105.19L1830.38 5101.63L2228.54 5594.39L2220.04 5600.88C2220.04 5600.88 2321.13 6000.13 2320.97 6049.12C2320.82 6098.12 2262.09 6183.13 2231.94 6163.19Z" fill="#FF725E"/>
<path d="M2254.82 6130.89C2155.43 5998.58 1741.97 5473.83 1633.62 5350.48C1632.69 5349.56 1631.92 5350.48 1632.84 5350.48C1728.52 5483.87 2146.16 6005.23 2252.81 6131.97C2254.98 6135.22 2256.37 6133.67 2254.82 6130.89Z" fill="#263238"/>
<path d="M2251.58 5644.31C2220.66 5585.73 2163.47 5529.32 2096.24 5519.11C2093.61 5519.11 2092.99 5522.36 2094.84 5523.6C2149.21 5560.02 2199.52 5602.14 2244.93 5649.26C2245.63 5650 2246.58 5650.45 2247.6 5650.54C2248.61 5650.63 2249.62 5650.34 2250.44 5649.73C2251.26 5649.12 2251.83 5648.23 2252.03 5647.24C2252.24 5646.24 2252.08 5645.2 2251.58 5644.31Z" fill="#263238"/>
<path d="M2258.38 5698.72C2227.46 5640.14 2170.27 5583.88 2103.81 5573.52C2101.18 5573.52 2100.72 5576.77 2102.57 5578.01C2156.89 5614.43 2207.15 5656.55 2252.5 5703.67C2253.23 5704.04 2254.05 5704.18 2254.87 5704.09C2255.68 5703.99 2256.45 5703.66 2257.07 5703.14C2257.7 5702.61 2258.16 5701.91 2258.39 5701.12C2258.62 5700.34 2258.62 5699.5 2258.38 5698.72Z" fill="#263238"/>
<path d="M2265.33 5753.28C2234.42 5694.55 2177.23 5638.29 2109.99 5627.93C2107.36 5627.93 2106.9 5631.33 2108.76 5632.57C2163.07 5668.93 2213.33 5711.01 2258.69 5758.08C2259.39 5758.74 2260.31 5759.14 2261.27 5759.2C2262.24 5759.26 2263.2 5758.99 2263.98 5758.42C2264.77 5757.85 2265.33 5757.03 2265.58 5756.09C2265.83 5755.16 2265.74 5754.16 2265.33 5753.28Z" fill="#263238"/>
<path d="M2575.39 4202.67C2544.48 4378.26 1835.33 5092.51 1835.33 5092.51L2354.36 5664.41C2354.36 5664.41 3359.05 4613.35 3297.22 4228.17C3242.66 3893.38 2708.32 2554.52 2708.32 2554.52L2128.23 2568.13C2128.23 2568.13 2606.15 4030.02 2575.39 4202.67Z" fill="#37474F"/>
<path d="M2408.61 5524.06C2339.52 5441.99 2360.54 5464.55 2290.52 5383.25C2256.21 5343.53 2030.85 5082.46 1992.37 5050.93C1991.44 5050.93 1990.05 5050.93 1990.66 5052.48C2016.94 5094.67 2246.94 5351.72 2281.87 5390.82C2353.43 5470.74 2333.8 5447.09 2405.52 5526.07C2405.65 5526.27 2405.82 5526.45 2406.02 5526.59C2406.22 5526.72 2406.45 5526.82 2406.69 5526.87C2406.92 5526.92 2407.17 5526.92 2407.4 5526.88C2407.64 5526.83 2407.87 5526.74 2408.07 5526.61C2408.28 5526.48 2408.45 5526.31 2408.59 5526.11C2408.72 5525.91 2408.82 5525.69 2408.87 5525.45C2408.92 5525.21 2408.92 5524.97 2408.88 5524.73C2408.84 5524.49 2408.75 5524.26 2408.61 5524.06Z" fill="#263238"/>
<path d="M2673.7 4142.85C2664.42 4099.42 2653.91 4056.14 2643.71 4013.02C2623.1 3924.81 2601.1 3836.81 2577.71 3749.02C2531.75 3574.97 2482.24 3402.01 2429.17 3230.14C2375.69 3057.79 2319.43 2885.61 2255.28 2716.82C2247.25 2695.95 2239.06 2675.24 2231.02 2654.99C2230.89 2654.64 2230.64 2654.36 2230.3 2654.2C2229.97 2654.04 2229.59 2654.02 2229.24 2654.14C2228.89 2654.27 2228.61 2654.52 2228.45 2654.86C2228.29 2655.19 2228.27 2655.57 2228.39 2655.92C2284.5 2825.17 2342.31 2993.96 2395.17 3164.29C2448.03 3334.62 2496.87 3504.34 2543.4 3676.06C2566.74 3762.15 2588.53 3848.56 2610.02 3935.12C2620.32 3977.67 2630.62 4020.28 2640.93 4062.94C2653.27 4106.11 2662.41 4150.12 2668.29 4194.63C2670.85 4236.92 2660.03 4278.94 2637.37 4314.73C2616.51 4350.75 2591 4384.9 2567.82 4418.91C2519.75 4487.38 2059.91 5024.5 2045.07 5039.03C2043.84 5040.27 2045.07 5041.97 2046.93 5040.73C2108.76 4982.46 2499.5 4539.47 2548.81 4471.15C2573.07 4437.46 2596.88 4403.14 2620.22 4368.67C2643.54 4337.24 2662.13 4302.56 2675.4 4265.73C2685.54 4225.32 2684.95 4182.97 2673.7 4142.85Z" fill="#263238"/>
<path d="M2588.99 2557.31L2567.2 4095.71C2501.97 3711.77 2128.23 2568.13 2128.23 2568.13L2588.99 2557.31Z" fill="#263238"/>
<path d="M2425.46 5407.98C2425.46 5407.98 2564.57 6014.81 2564.57 6015.12C2569.06 6138.77 2575.24 6245.42 2583.74 6300.76C2583.67 6301.06 2583.67 6301.38 2583.74 6301.69C2584.25 6314.84 2587.8 6327.69 2594.1 6339.25L2594.87 6340.02C2632.27 6363.51 3615.01 6355.48 3648.55 6344.04C3682.09 6332.6 3651.8 6233.83 3613.46 6203.85C3575.13 6173.86 3197.68 6008.47 3197.68 6008.47L3052.08 5402.11L2425.46 5407.98Z" fill="#EB9481"/>
<path d="M3649.01 6344.19C3614.85 6356.09 2632.74 6363.82 2595.33 6340.33L2594.56 6339.56C2588.16 6328.04 2584.61 6315.16 2584.2 6302C2584.13 6301.85 2584.1 6301.69 2584.1 6301.53C2584.1 6301.37 2584.13 6301.21 2584.2 6301.07C2575.86 6245.73 2569.83 6138.31 2565.19 6015.58L2541.08 5909.86L3171.09 5895.18L3198.3 6008.63C3198.3 6008.63 3575.59 6174.01 3614.24 6204.16C3652.88 6234.3 3683.33 6332.29 3649.01 6344.19Z" fill="#EBEBEB"/>
<path d="M3649.01 6344.19C3614.85 6355.94 2632.89 6363.67 2595.33 6340.17C2580.8 6331.52 2571.37 6188.54 2564.42 6015.58C2564.42 6013.88 2564.42 6012.03 2564.42 6010.17L3198.14 5998.27V6008.94C3198.14 6008.94 3575.28 6174.17 3613.93 6204.31C3652.57 6234.45 3683.17 6332.29 3649.01 6344.19Z" fill="#FF725E"/>
<path d="M3637.57 6306.01C3472.03 6303.23 2804 6307.71 2640.15 6317.45C2638.76 6317.45 2638.76 6318.53 2640.15 6318.53C2804.15 6324.87 3472.19 6314.98 3637.57 6308.8C3641.13 6308.64 3641.13 6306.01 3637.57 6306.01Z" fill="#263238"/>
<path d="M3251.31 6010.02C3186.09 5998.27 3106.48 6008.94 3057.18 6056.39C3055.17 6058.24 3057.18 6060.87 3059.96 6060.25C3122.01 6039.58 3186.12 6025.69 3251.16 6018.83C3251.74 6018.84 3252.31 6018.74 3252.85 6018.52C3253.39 6018.31 3253.88 6018 3254.3 6017.59C3254.71 6017.19 3255.05 6016.71 3255.28 6016.18C3255.51 6015.65 3255.63 6015.08 3255.64 6014.5C3255.65 6013.92 3255.55 6013.35 3255.34 6012.81C3255.12 6012.27 3254.81 6011.78 3254.41 6011.36C3254 6010.95 3253.52 6010.61 3252.99 6010.38C3252.46 6010.15 3251.89 6010.03 3251.31 6010.02Z" fill="#263238"/>
<path d="M3298.61 6038C3233.38 6026.25 3153.78 6036.91 3104.32 6084.37C3102.46 6086.22 3104.32 6088.85 3107.1 6088.23C3169.21 6067.57 3233.36 6053.68 3298.45 6046.81C3299.03 6046.82 3299.61 6046.71 3300.15 6046.5C3300.68 6046.29 3301.18 6045.97 3301.59 6045.57C3302.01 6045.17 3302.34 6044.69 3302.57 6044.16C3302.8 6043.63 3302.93 6043.06 3302.94 6042.48C3302.95 6041.9 3302.84 6041.32 3302.63 6040.79C3302.42 6040.25 3302.1 6039.76 3301.7 6039.34C3301.3 6038.92 3300.82 6038.59 3300.29 6038.36C3299.76 6038.13 3299.19 6038.01 3298.61 6038Z" fill="#263238"/>
<path d="M3345.75 6065.97C3280.53 6054.22 3200.92 6064.89 3151.62 6112.34C3149.61 6114.2 3151.62 6116.82 3154.4 6116.21C3216.45 6095.55 3280.56 6081.66 3345.6 6074.78C3346.77 6074.8 3347.9 6074.36 3348.74 6073.55C3349.58 6072.73 3350.06 6071.62 3350.08 6070.45C3350.1 6069.29 3349.66 6068.16 3348.84 6067.32C3348.03 6066.48 3346.92 6065.99 3345.75 6065.97Z" fill="#263238"/>
<path d="M2652.21 2555.61C2652.21 2567.82 2605.07 3065.68 2589.3 3079.74C2573.54 3093.81 2470.91 3165.84 2440.46 3185.47C2440.46 3185.47 2738.77 4045.17 2819.14 4332.2C2935.84 4748.45 3221.02 5998.58 3221.02 5998.58L2538.61 6014.04C2538.61 6014.04 2303.2 4823.1 2203.2 4426.64C2117.57 4086.59 1795.76 3068.46 1795.76 3068.46C1752.81 2906.12 1757.16 2734.88 1808.28 2574.93C1808.28 2574.93 2652.37 2555.14 2652.21 2555.61Z" fill="#37474F"/>
<path d="M3193.5 5866.43C3086.24 5868.28 3116.99 5866.43 3009.72 5869.36C2957.33 5870.91 2612.49 5881.26 2563.8 5891.31C2562.72 5891.31 2562.87 5893.32 2563.8 5893.48C2613.11 5899.66 2957.64 5883.27 3010.03 5880.8C3117.15 5875.55 3086.39 5875.86 3193.5 5869.52C3193.91 5869.52 3194.31 5869.35 3194.6 5869.06C3194.89 5868.78 3195.05 5868.38 3195.05 5867.97C3195.05 5867.56 3194.89 5867.17 3194.6 5866.88C3194.31 5866.59 3193.91 5866.43 3193.5 5866.43Z" fill="#263238"/>
<path d="M2618.98 3053.93C2553.47 3091.92 2491.4 3135.57 2433.5 3184.38C2433.25 3184.56 2433.03 3184.78 2432.86 3185.03C2432.69 3185.29 2432.58 3185.58 2432.52 3185.88C2432.46 3186.18 2432.46 3186.49 2432.53 3186.79C2432.59 3187.09 2432.71 3187.38 2432.88 3187.63C2433.05 3187.88 2433.27 3188.1 2433.53 3188.27C2433.79 3188.44 2434.07 3188.55 2434.38 3188.61C2434.68 3188.67 2434.99 3188.67 2435.29 3188.6C2435.59 3188.54 2435.87 3188.42 2436.13 3188.25C2498.88 3146.67 2563.34 3106.33 2623.93 3061.5C2624.66 3060.75 2625.11 3059.77 2625.21 3058.72C2625.31 3057.67 2625.05 3056.62 2624.48 3055.74C2623.9 3054.86 2623.05 3054.2 2622.05 3053.87C2621.05 3053.54 2619.97 3053.56 2618.98 3053.93Z" fill="#263238"/>
<path d="M2555.76 2583.74C2555.76 2581.42 2550.97 2581.73 2551.43 2583.74C2565.14 2659.91 2574.99 2736.72 2580.96 2813.89C2584.05 2849.44 2590.54 3048.37 2527.32 3045.74C2516.66 3045.74 2509.7 3036.15 2505.22 3021.16C2501.92 3001.04 2501.09 2980.59 2502.75 2960.26C2502.75 2918.37 2500.27 2876.8 2496.41 2835.06C2489.87 2757.45 2475.26 2680.73 2452.82 2606.15C2452.64 2605.7 2452.31 2605.34 2451.88 2605.12C2451.45 2604.9 2450.96 2604.84 2450.49 2604.95C2450.02 2605.06 2449.61 2605.34 2449.33 2605.73C2449.05 2606.12 2448.92 2606.6 2448.96 2607.08C2469.76 2712.61 2482.53 2819.57 2487.13 2927.03C2488.68 2978.81 2476.78 3059.34 2531.03 3057.64C2585.28 3055.94 2598.11 2922.55 2598.42 2886.53C2597.43 2784.18 2583.09 2682.38 2555.76 2583.74Z" fill="#263238"/>
<path d="M2529.64 3050.07C2526.64 3064.15 2524.47 3078.39 2523.15 3092.73C2520.98 3104.01 2520.98 3115.6 2523.15 3126.89C2523.15 3128.89 2526.55 3128.59 2527.48 3126.89C2532.06 3115.86 2534.88 3104.17 2535.82 3092.26C2538.3 3078.97 2540.92 3065.83 2542.93 3052.54C2542.85 3050.98 2542.24 3049.5 2541.22 3048.32C2540.19 3047.15 2538.79 3046.36 2537.26 3046.07C2535.73 3045.79 2534.14 3046.03 2532.76 3046.75C2531.38 3047.47 2530.28 3048.64 2529.64 3050.07Z" fill="#263238"/>
<path d="M2447.72 5507.68C2445.56 5492.22 2443.08 5476.76 2440.46 5460.53C2435.51 5430.39 2429.64 5400.41 2425 5370.27C2414.18 5309.83 2402.43 5249.55 2390.22 5189.42C2365.95 5069.48 2338.44 4949.85 2309.69 4830.98C2293.31 4763.75 2274.61 4697.28 2254.98 4630.97C2253.58 4626.34 2247.09 4628.81 2248.02 4633.29C2260.39 4694.04 2272.44 4754.94 2286.35 4815.53C2300.26 4876.12 2314.02 4936.24 2327.62 4996.68C2354.21 5116.16 2379.25 5236.1 2405.68 5355.58C2413.25 5389.28 2420.05 5423.13 2427.47 5456.82C2431.18 5473.72 2435.05 5490.57 2439.06 5507.37C2443.08 5524.06 2448.65 5540.45 2451.89 5557.29C2451.89 5558.84 2454.52 5558.07 2454.21 5557.29C2450.66 5540.45 2450.04 5523.91 2447.72 5507.68Z" fill="#263238"/>
<path d="M2897.04 4590.01C2871.7 4477.34 2838.46 4366.36 2805.08 4255.84C2737.84 4033.42 2659.63 3814.4 2581.73 3595.53L2514.34 3406.34C2503.05 3375.43 2447.56 3204.63 2440.92 3188.56C2440.8 3188.21 2440.54 3187.92 2440.21 3187.76C2439.87 3187.6 2439.49 3187.58 2439.14 3187.71C2438.79 3187.83 2438.51 3188.09 2438.35 3188.42C2438.19 3188.75 2438.17 3189.14 2438.29 3189.48C2453.75 3247.45 2476.62 3332 2494.86 3389.49C2513.1 3446.99 2532.73 3502.33 2551.9 3559.52C2589.3 3670.34 2627.33 3781.01 2663.8 3892.3C2735.83 4112.09 2807.4 4331.89 2867.06 4555.55C2883.6 4618.15 2900.29 4680.74 2915.59 4743.81C2930.89 4806.87 2944.34 4869.93 2959.03 4933C2959.03 4934.7 2962.27 4934.08 2962.12 4933C2946.18 4817.65 2924.47 4703.18 2897.04 4590.01Z" fill="#263238"/>
<path d="M2486.67 5192.21C2444.16 4977.05 2393.93 4763.28 2339.21 4551.06C2284.5 4338.84 2223.44 4125.7 2156.98 3915.64C2090.52 3705.58 2017.87 3497.54 1939.66 3291.34C1900.62 3194.42 1867.33 3095.27 1839.96 2994.42C1815.23 2893.95 1801.17 2785.14 1822.34 2682.81C1827.62 2656.85 1834.85 2631.33 1843.98 2606.46C1843.98 2604.76 1841.97 2603.37 1841.35 2605.07C1764.07 2798.28 1821.88 3006.17 1888.81 3192.42C1925.44 3294.9 1964.24 3396.6 2000.4 3499.24C2037.71 3604.55 2073.41 3710.37 2107.52 3816.72C2175.53 4027.55 2238.9 4239.61 2296.24 4453.53C2353.59 4667.45 2405.37 4882.61 2450.81 5099.16C2496.25 5315.71 2536.9 5534.73 2577.09 5753.13C2582.35 5781.57 2586.68 5810.16 2591 5838.76C2591 5840.3 2593.79 5840.3 2593.63 5838.76C2562.87 5622.83 2529.18 5407.05 2486.67 5192.21Z" fill="#263238"/>
<path d="M2349.11 1671.79C2419.74 1932.7 2585.59 2336.43 2723.78 2331.48C2849.75 2326.54 3125.65 2096.39 3242.04 2020.34C3358.43 1944.29 3087.47 1661.75 3020.7 1710.13C2917.6 1784.94 2763.96 1917.86 2737.22 1909.98C2703.99 1900.09 2659.94 1820.02 2466.42 1585.39C2386.36 1488.94 2318.19 1560.66 2349.11 1671.79Z" fill="#EB9481"/>
<path d="M3144.04 1595.9C3199.07 1574.88 3260.59 1546.44 3322.41 1546.13C3384.24 1545.82 3437.26 1626.2 3437.87 1649.54C3438.49 1672.88 3418.4 1819.56 3356.73 1820.49C3295.05 1821.41 3329.68 1709.2 3327.05 1696.83C3324.42 1684.47 3321.64 1667.77 3310.05 1669.32C3298.46 1670.87 3096.9 1772.11 3096.9 1772.11L3144.04 1595.9Z" fill="#EB9481"/>
<path d="M3148.06 1604.25C3151.62 1604.25 3315.46 1535.16 3377.28 1534.85C3439.11 1534.54 3492.9 1614.45 3492.9 1638.1C3492.9 1661.75 3473.43 1808.12 3411.75 1809.05C3350.08 1809.98 3384.7 1697.76 3382.08 1685.4C3379.45 1673.03 3376.67 1656.18 3365.07 1657.73C3353.48 1659.27 3151.93 1760.67 3151.93 1760.67L3148.06 1604.25Z" fill="#EB9481"/>
<path d="M3390.42 1801.78C3383.67 1790.82 3379.84 1778.32 3379.29 1765.46C3377.74 1752.33 3378.21 1739.04 3380.68 1726.05C3383.82 1714.86 3386.04 1703.43 3387.33 1691.89C3386.99 1680.46 3383.8 1669.31 3378.06 1659.43C3373.11 1650.93 3363.99 1654.02 3356.26 1656.96C3344.92 1661.51 3333.83 1666.67 3323.03 1672.41L3288.41 1691.73C3276.2 1697.86 3264.38 1704.72 3253.01 1712.29C3252.79 1712.39 3252.61 1712.58 3252.52 1712.81C3252.44 1713.04 3252.45 1713.3 3252.55 1713.53C3252.65 1713.75 3252.84 1713.93 3253.07 1714.02C3253.3 1714.1 3253.56 1714.09 3253.79 1713.99C3264.35 1709.38 3274.67 1704.22 3284.7 1698.53L3319.63 1681.53C3330.6 1676.43 3341.27 1670.56 3352.4 1666.08C3356.26 1664.37 3363.99 1659.89 3367.86 1660.82C3371.72 1661.75 3375.12 1673.34 3376.36 1677.05C3379.14 1688.08 3378.66 1699.68 3374.97 1710.44C3371.96 1721.55 3370.1 1732.95 3369.4 1744.44C3368.54 1755.27 3369.64 1766.16 3372.65 1776.59C3376.74 1785.88 3381.93 1794.65 3388.1 1802.71C3389.34 1804.1 3391.35 1802.71 3390.42 1801.78Z" fill="#263238"/>
<path d="M2956.09 1770.87C2956.09 1770.87 3123.49 1610.89 3158.42 1579.21C3228.44 1515.37 3526.44 1385.38 3568.33 1379.97C3610.22 1374.56 3627.22 1460.19 3425.05 1554.32C3318.55 1603.78 3301.39 1665.92 3303.71 1700.08C3306.03 1734.24 3340.65 1797.15 3398 1794.21C3455.34 1791.27 3490.74 1706.57 3543.44 1696.06C3596.15 1685.55 3563.38 1783.08 3527.99 1839.81C3490.12 1894.56 3437.48 1937.44 3376.2 1963.46C3326.9 1983.25 3175.27 2053.11 3175.27 2053.11L2956.09 1770.87Z" fill="#EB9481"/>
<path d="M3468.48 1752.17C3447.15 1769.48 3423.19 1791.74 3394.75 1793.44C3366.31 1795.14 3345.75 1776.59 3331.53 1752.94C3315.93 1729.72 3309.84 1701.39 3314.53 1673.8C3320.67 1648.85 3333.81 1626.16 3352.4 1608.42C3375.47 1586.95 3401.5 1568.89 3429.68 1554.79C3430.92 1554.79 3429.68 1552.31 3428.45 1552.93C3402.32 1565.45 3320.25 1601 3306.18 1673.96C3301.62 1702.13 3307.97 1730.99 3323.96 1754.64C3337.25 1777.21 3356.26 1798.85 3384.24 1801.01C3418.25 1803.02 3446.84 1774.74 3470.8 1753.56C3471.11 1752.01 3469.56 1751.24 3468.48 1752.17Z" fill="#263238"/>
<path d="M2955.63 1749.08L3220.71 2139.98C3220.71 2139.98 2820.07 2377.24 2704.61 2343.23C2589.15 2309.23 2407.69 1984.02 2329.48 1696.83C2251.26 1409.65 2431.34 1515.99 2502.28 1604.09C2573.23 1692.2 2727.33 1894.68 2735.52 1891.74C2743.71 1888.81 2955.63 1749.08 2955.63 1749.08Z" fill="#FF725E"/>
<path d="M3105.56 2204.12C3080.67 2217.41 3053.31 2231.48 3024.56 2245.55L2793.49 1854.8C2816.67 1839.34 2843.57 1822.34 2868.76 1805.96C2941.56 1928.07 3029.97 2076.6 3105.56 2204.12Z" fill="#EBEBEB"/>
<path d="M2993.34 2260.69L2966.75 2272.9L2739.23 1889.11C2744.18 1886.33 2752.53 1881.08 2763.34 1873.66C2834.91 1994.22 2920.08 2137.35 2993.34 2260.69Z" fill="#EBEBEB"/>
<path d="M2937.85 2285.73C2846.19 2325.61 2756.08 2355.13 2708.47 2344.31L2704.3 2343.23C2588.68 2309.23 2407.53 1984.17 2329.17 1696.83C2317.51 1658.4 2311.01 1618.58 2309.85 1578.44C2309.85 1576.89 2309.85 1575.65 2309.85 1574.11C2309.85 1572.56 2309.85 1569.63 2309.85 1567.31C2309.77 1566.38 2309.77 1565.45 2309.85 1564.52C2309.68 1562.47 2309.68 1560.4 2309.85 1558.34L2937.85 2285.73Z" fill="#263238"/>
<path d="M3076.96 2104.58C3068.61 2090.67 3059.96 2076.76 3051.46 2063C3034.3 2035.34 2931.36 1871.34 2891.02 1821.72C2889.93 1820.33 2887.93 1821.72 2888.54 1823.42C2917.29 1880.92 3023.79 2041.83 3041.56 2068.41C3050.68 2081.86 3059.65 2095.46 3068.92 2108.91C3078.2 2122.36 3089.02 2134.88 3098.29 2148.48C3099.22 2149.71 3101.38 2148.48 3100.61 2147.24C3092.11 2133.33 3085.31 2118.49 3076.96 2104.58Z" fill="#263238"/>
<path d="M1750.93 2827.34C1753.41 2829.96 2775.87 2708.01 2784.83 2697.04C2797.51 2681.58 2536.13 1662.67 2425.62 1528.2C2401.97 1499.45 2327 1493.73 2263.79 1503.78C2247.3 1506.21 2231.06 1510.09 2215.25 1515.37H2213.71C2200.91 1519.51 2188.94 1525.84 2178.31 1534.08C2006.43 1681.07 1874.28 2178.93 1844.6 2328.24C1795.14 2574.62 1742.12 2817.91 1750.93 2827.34Z" fill="#FF725E"/>
<path d="M2763.81 2586.52C2516.5 2618.52 1980 2688.07 1766.7 2713.57C1774.12 2675.71 1783.08 2630.57 1793.28 2580.8L2733.51 2463.18C2745.42 2509.55 2755.77 2551.59 2763.81 2586.52Z" fill="#EBEBEB"/>
<path d="M2720.84 2412.94C2476.62 2444.63 2025.29 2502.9 1803.64 2529.95L1812.3 2487.6L2710.79 2374.3C2714.19 2387.28 2717.59 2400.27 2720.84 2412.94Z" fill="#EBEBEB"/>
<path d="M2108.76 1801.32C2160.54 2067.95 2396.87 2563.18 2544.32 2606.92C2715.12 2657.47 3298.92 2455.76 3412.37 2368.43C3457.51 2333.8 3205.72 2043.84 3149.61 2065.48C2912.19 2159.14 2701.36 2209.38 2669.68 2189.13C2621.45 2158.22 2422.37 1885.71 2292.23 1716.93C2128.85 1504.86 2085.42 1681.84 2108.76 1801.32Z" fill="#EB9481"/>
<path d="M3397.38 2376.93C3423.35 2366.88 3600.48 2231.94 3652.1 2169.34C3708.22 2104.48 3753.33 2030.86 3785.65 1951.41C3836.19 1825.59 3859.22 1733.93 3845.47 1693.43C3830.01 1646.29 3824.91 1638.72 3705.12 1848C3637.42 1966.55 3570.49 1981.24 3512.22 1981.39C3368.76 1982.06 3227.55 2017.15 3100.46 2083.71C3100.46 2083.71 3297.68 2415.11 3397.38 2376.93Z" fill="#EB9481"/>
<path d="M3931.25 1537.17L3629.23 1937.03C3624.9 1942.52 3619.1 1946.67 3612.51 1949C3605.91 1951.32 3598.79 1951.73 3591.98 1950.17L3373.27 1883.09C3370.45 1882.51 3367.85 1881.16 3365.76 1879.18C3363.67 1877.21 3362.17 1874.7 3361.44 1871.92C3360.7 1869.14 3360.75 1866.21 3361.58 1863.46C3362.41 1860.71 3364 1858.25 3366.16 1856.35L3668.18 1456.48C3672.48 1450.96 3678.28 1446.79 3684.88 1444.46C3691.48 1442.13 3698.61 1441.75 3705.43 1443.34L3924.14 1510.43C3926.96 1511 3929.56 1512.36 3931.65 1514.33C3933.74 1516.3 3935.23 1518.82 3935.97 1521.6C3936.71 1524.37 3936.66 1527.3 3935.83 1530.05C3934.99 1532.8 3933.41 1535.27 3931.25 1537.17Z" fill="#37474F"/>
<path d="M3904.51 1503.78L3685.8 1436.7C3678.97 1435.15 3671.84 1435.59 3665.25 1437.94C3658.65 1440.29 3652.86 1444.47 3648.55 1449.99L3346.68 1849.85C3344.34 1851.72 3342.58 1854.22 3341.63 1857.06C3340.68 1859.9 3340.58 1862.95 3341.33 1865.85C3342.08 1868.75 3343.66 1871.36 3345.87 1873.38C3348.09 1875.4 3350.84 1876.73 3353.79 1877.21L3572.5 1944.29C3579.32 1945.82 3586.43 1945.39 3593.01 1943.07C3599.6 1940.75 3605.4 1936.62 3609.75 1931.16L3911.62 1531.29C3914.02 1529.44 3915.82 1526.93 3916.8 1524.07C3917.78 1521.21 3917.9 1518.12 3917.14 1515.19C3916.38 1512.26 3914.78 1509.62 3912.54 1507.59C3910.29 1505.56 3907.5 1504.24 3904.51 1503.78ZM3605.12 1913.85C3601.2 1919.02 3595.9 1922.98 3589.83 1925.28C3583.76 1927.58 3577.16 1928.12 3570.8 1926.83L3375.27 1866.86C3364.3 1863.46 3361.83 1851.4 3369.86 1841.66L3651.02 1469.31C3666.48 1447.98 3676.83 1449.53 3687.81 1452.93L3726.91 1464.98C3729.23 1464.98 3729.39 1468.54 3726.91 1471.32L3725.99 1472.56C3720.89 1479.36 3725.06 1480.59 3730.16 1482.14L3820.74 1509.96C3823.14 1511.31 3825.98 1511.66 3828.64 1510.94C3831.3 1510.22 3833.57 1508.48 3834.96 1506.1L3835.88 1504.86C3836.72 1503.52 3837.92 1502.45 3839.34 1501.77C3840.77 1501.08 3842.35 1500.82 3843.92 1501L3883.18 1513.05C3894 1516.3 3900.8 1521.86 3885.96 1541.49L3605.12 1913.85Z" fill="#263238"/>
<path d="M3794.31 1491.57L3769.73 1483.84C3769.6 1483.74 3769.5 1483.61 3769.42 1483.46C3769.35 1483.32 3769.32 1483.15 3769.32 1482.99C3769.32 1482.83 3769.35 1482.67 3769.42 1482.52C3769.5 1482.37 3769.6 1482.24 3769.73 1482.14C3770.02 1481.74 3770.43 1481.44 3770.9 1481.27C3771.37 1481.11 3771.88 1481.09 3772.36 1481.21L3797.09 1488.79C3797.25 1488.88 3797.38 1489.02 3797.47 1489.18C3797.56 1489.34 3797.61 1489.53 3797.61 1489.71C3797.61 1489.9 3797.56 1490.08 3797.47 1490.25C3797.38 1490.41 3797.25 1490.55 3797.09 1490.64C3796.76 1491.04 3796.32 1491.34 3795.83 1491.5C3795.34 1491.67 3794.81 1491.69 3794.31 1491.57Z" fill="white"/>
<path d="M3886.27 1541.49L3605.12 1913.85C3601.2 1919.02 3595.9 1922.99 3589.83 1925.28C3583.76 1927.58 3577.16 1928.12 3570.8 1926.83L3375.28 1866.86C3364.3 1863.46 3361.83 1851.4 3369.87 1841.66L3651.02 1469.31C3666.48 1447.98 3676.83 1449.53 3687.81 1452.93L3726.91 1464.98C3729.23 1464.98 3729.39 1468.54 3726.91 1471.32L3725.99 1472.56C3720.89 1479.36 3725.06 1480.59 3730.16 1482.14L3820.74 1509.96C3823.14 1511.31 3825.98 1511.66 3828.64 1510.94C3831.3 1510.22 3833.57 1508.48 3834.96 1506.1L3835.88 1504.86C3836.72 1503.52 3837.92 1502.45 3839.34 1501.77C3840.77 1501.08 3842.35 1500.82 3843.92 1501L3883.18 1513.05C3894.77 1516.3 3901.11 1521.71 3886.27 1541.49Z" fill="white"/>
<path d="M3886.27 1541.49L3865.25 1569.32L3630 1497.13L3651.02 1469.31C3666.48 1447.98 3676.83 1449.53 3687.81 1452.93L3726.91 1464.98C3729.23 1464.98 3729.39 1468.54 3726.91 1471.32L3725.99 1472.56C3720.89 1479.36 3725.06 1480.59 3730.16 1482.14L3820.74 1509.96C3823.14 1511.31 3825.98 1511.66 3828.64 1510.94C3831.3 1510.22 3833.57 1508.48 3834.96 1506.1L3835.88 1504.86C3836.72 1503.52 3837.92 1502.45 3839.34 1501.77C3840.77 1501.08 3842.35 1500.82 3843.92 1501L3883.03 1513.05C3894.77 1516.3 3901.11 1521.71 3886.27 1541.49Z" fill="#FF725E"/>
<path d="M3664.01 1490.8L3661.53 1482.91L3672.82 1479.36L3673.13 1480.59L3663.85 1483.69L3665.86 1490.18L3664.01 1490.8Z" fill="white"/>
<path d="M3864.79 1542.42C3864.46 1542.63 3864.09 1542.74 3863.71 1542.74C3863.32 1542.74 3862.95 1542.63 3862.62 1542.42C3862.5 1542.34 3862.39 1542.22 3862.32 1542.09C3862.25 1541.95 3862.21 1541.8 3862.21 1541.65C3862.21 1541.5 3862.25 1541.34 3862.32 1541.21C3862.39 1541.08 3862.5 1540.96 3862.62 1540.88C3862.86 1540.53 3863.18 1540.26 3863.57 1540.09C3863.95 1539.93 3864.38 1539.88 3864.79 1539.95C3865.1 1541.03 3865.41 1541.8 3864.79 1542.42Z" fill="white"/>
<path d="M3861.54 1546.75C3861.2 1546.97 3860.79 1547.09 3860.38 1547.09C3859.97 1547.09 3859.57 1546.97 3859.22 1546.75C3859.1 1546.66 3858.99 1546.55 3858.92 1546.42C3858.85 1546.28 3858.81 1546.13 3858.81 1545.98C3858.81 1545.82 3858.85 1545.67 3858.92 1545.54C3858.99 1545.4 3859.1 1545.29 3859.22 1545.2C3859.44 1544.84 3859.77 1544.56 3860.16 1544.39C3860.54 1544.22 3860.97 1544.18 3861.39 1544.28C3861.72 1544.26 3862.04 1544.37 3862.28 1544.58C3862.53 1544.8 3862.68 1545.11 3862.7 1545.44C3862.72 1545.76 3862.61 1546.09 3862.39 1546.33C3862.18 1546.58 3861.87 1546.73 3861.54 1546.75Z" fill="white"/>
<path d="M3858.3 1551.08C3857.95 1551.3 3857.55 1551.41 3857.14 1551.41C3856.73 1551.41 3856.32 1551.3 3855.98 1551.08C3855.2 1551.08 3855.05 1550.15 3855.98 1549.38C3856.27 1549.07 3856.64 1548.84 3857.04 1548.7C3857.44 1548.57 3857.88 1548.54 3858.3 1548.6C3858.62 1548.6 3858.94 1548.73 3859.17 1548.97C3859.4 1549.2 3859.53 1549.51 3859.53 1549.84C3859.53 1550.17 3859.4 1550.48 3859.17 1550.72C3858.94 1550.95 3858.62 1551.08 3858.3 1551.08Z" fill="white"/>
<path d="M3713.93 1471.32H3712.85C3712.69 1470.7 3712.35 1470.14 3711.89 1469.71C3711.43 1469.27 3710.85 1468.97 3710.22 1468.85C3708.71 1468.39 3707.1 1468.39 3705.58 1468.85H3706.36H3707.9H3710.53H3711.61V1469.77L3713.93 1471.32Z" fill="white"/>
<path d="M3706.05 1470.86C3707.11 1470.55 3708.23 1470.55 3709.29 1470.86C3709.93 1470.87 3710.54 1471.08 3711.04 1471.47C3711.55 1471.86 3711.91 1472.41 3712.07 1473.02H3711.15C3710.97 1472.64 3710.72 1472.3 3710.4 1472.04C3710.08 1471.77 3709.7 1471.58 3709.29 1471.47C3708.34 1470.85 3707.17 1470.63 3706.05 1470.86Z" fill="white"/>
<path d="M3709.29 1472.71H3708.37C3708.3 1472.49 3708.18 1472.29 3708.02 1472.13C3707.86 1471.97 3707.66 1471.85 3707.44 1471.78C3706.88 1471.64 3706.3 1471.64 3705.74 1471.78C3707.9 1470.86 3709.29 1471.32 3709.29 1472.71Z" fill="white"/>
<path d="M3707.9 1473.18C3707.9 1473.18 3707.9 1473.18 3706.97 1473.18H3707.75C3707.75 1473.18 3708.06 1473.02 3707.9 1473.18Z" fill="white"/>
<path d="M3676.22 1460.96C3676.45 1460.61 3676.78 1460.33 3677.16 1460.14C3677.54 1459.95 3677.96 1459.86 3678.38 1459.88C3678.54 1459.98 3678.67 1460.11 3678.76 1460.28C3678.86 1460.44 3678.9 1460.62 3678.9 1460.81C3678.9 1461 3678.86 1461.18 3678.76 1461.34C3678.67 1461.51 3678.54 1461.64 3678.38 1461.74C3678.09 1462.14 3677.68 1462.44 3677.21 1462.61C3676.74 1462.77 3676.23 1462.79 3675.75 1462.66C3675.64 1462.53 3675.57 1462.37 3675.53 1462.21C3675.5 1462.04 3675.5 1461.86 3675.55 1461.7C3675.59 1461.53 3675.68 1461.38 3675.79 1461.25C3675.91 1461.12 3676.05 1461.02 3676.22 1460.96Z" fill="white"/>
<path d="M3681.16 1462.51C3681.46 1462.11 3681.87 1461.81 3682.33 1461.64C3682.8 1461.48 3683.31 1461.46 3683.79 1461.58C3683.95 1461.68 3684.08 1461.82 3684.18 1461.98C3684.27 1462.14 3684.32 1462.32 3684.32 1462.51C3684.32 1462.7 3684.27 1462.88 3684.18 1463.04C3684.08 1463.21 3683.95 1463.34 3683.79 1463.44C3683.47 1463.81 3683.06 1464.09 3682.6 1464.25C3682.14 1464.42 3681.64 1464.46 3681.16 1464.37C3681 1464.27 3680.87 1464.13 3680.78 1463.97C3680.69 1463.81 3680.64 1463.62 3680.64 1463.44C3680.64 1463.25 3680.69 1463.07 3680.78 1462.91C3680.87 1462.74 3681 1462.61 3681.16 1462.51Z" fill="white"/>
<path d="M3686.11 1463.9C3686.38 1463.52 3686.77 1463.24 3687.22 1463.1C3687.66 1462.96 3688.14 1462.97 3688.58 1463.13C3689.51 1463.13 3689.66 1464.21 3688.58 1464.98C3688.19 1465.23 3687.73 1465.36 3687.27 1465.36C3686.8 1465.36 3686.35 1465.23 3685.95 1464.98C3685.64 1465.6 3685.49 1464.67 3686.11 1463.9Z" fill="white"/>
<path d="M3690.9 1465.45C3691.23 1465.09 3691.64 1464.81 3692.1 1464.65C3692.55 1464.49 3693.05 1464.44 3693.53 1464.52C3693.69 1464.62 3693.82 1464.75 3693.91 1464.91C3694 1465.08 3694.05 1465.26 3694.05 1465.45C3694.05 1465.63 3694 1465.82 3693.91 1465.98C3693.82 1466.14 3693.69 1466.28 3693.53 1466.37C3693.22 1466.76 3692.81 1467.05 3692.35 1467.22C3691.88 1467.38 3691.38 1467.41 3690.9 1467.3C3690.74 1467.21 3690.61 1467.07 3690.52 1466.91C3690.42 1466.74 3690.38 1466.56 3690.38 1466.37C3690.38 1466.19 3690.42 1466 3690.52 1465.84C3690.61 1465.68 3690.74 1465.54 3690.9 1465.45Z" fill="white"/>
<path d="M3695.85 1466.99C3696.14 1466.59 3696.55 1466.29 3697.02 1466.12C3697.49 1465.96 3697.99 1465.94 3698.47 1466.07C3699.4 1466.07 3699.56 1467.15 3698.47 1467.92C3698.18 1468.32 3697.77 1468.62 3697.3 1468.79C3696.83 1468.95 3696.33 1468.98 3695.85 1468.85C3695.69 1468.75 3695.55 1468.62 3695.46 1468.45C3695.37 1468.29 3695.32 1468.11 3695.32 1467.92C3695.32 1467.73 3695.37 1467.55 3695.46 1467.39C3695.55 1467.23 3695.69 1467.09 3695.85 1466.99Z" fill="white"/>
<path d="M3877.62 1530.21L3857.68 1524.03L3866.18 1512.9L3886.12 1518.93L3877.62 1530.21Z" fill="white"/>
<path d="M3876.07 1520.63L3867.88 1518.15L3865.25 1521.55L3873.44 1524.18L3876.07 1520.63Z" fill="white"/>
<path d="M3878.23 1525.11L3877.15 1524.8L3879.32 1522.02L3880.4 1522.33L3878.23 1525.11Z" fill="white"/>
<path d="M3408.35 1848.93L3406.65 1848.31L3401.09 1855.73L3397.69 1854.65L3400.47 1850.94L3394.6 1849.08L3391.81 1852.79L3388.41 1851.86L3393.98 1844.45L3392.12 1843.98L3405.88 1839.04L3408.35 1848.93Z" fill="#EBEBEB"/>
<path d="M3592.13 1899.16L3572.5 1893.13L3574.36 1890.81L3593.99 1896.69L3592.13 1899.16Z" fill="#EBEBEB"/>
<path d="M3587.5 1905.34L3568.02 1899.32L3569.87 1896.84L3589.35 1902.87L3587.5 1905.34Z" fill="#EBEBEB"/>
<path d="M3582.86 1911.53L3563.38 1905.5L3565.24 1903.03L3584.71 1909.05L3582.86 1911.53Z" fill="#EBEBEB"/>
<path d="M3496.61 1874.74L3487.03 1878.3L3485.48 1871.34L3487.03 1870.72L3488.42 1876.59L3496.15 1873.5L3496.61 1874.74Z" fill="#EBEBEB"/>
<path d="M3486.87 1891.28C3484.98 1891.59 3483.05 1891.59 3481.15 1891.28C3478.91 1890.59 3476.85 1889.39 3475.14 1887.78C3473.42 1886.18 3472.1 1884.2 3471.26 1882C3470.58 1879.6 3470.48 1877.06 3471 1874.61C3471.51 1872.16 3472.61 1869.87 3474.2 1867.94C3477.01 1864.4 3480.77 1861.75 3485.05 1860.29C3489.33 1858.84 3493.93 1858.65 3498.31 1859.75C3500.57 1860.38 3502.63 1861.56 3504.33 1863.18C3506.03 1864.79 3507.3 1866.8 3508.05 1869.02C3508.76 1871.42 3508.87 1873.95 3508.39 1876.4C3507.9 1878.85 3506.83 1881.14 3505.27 1883.09C3502.99 1885.72 3500.16 1887.82 3496.98 1889.24C3493.81 1890.65 3490.35 1891.35 3486.87 1891.28ZM3492.28 1873.66C3490.4 1873.82 3488.61 1874.58 3487.18 1875.82C3489.28 1875.76 3491.29 1874.99 3492.9 1873.66H3492.28Z" fill="#EBEBEB"/>
<path d="M3740.21 1509.34C3741.46 1507.83 3743.1 1506.69 3744.95 1506.03C3746.8 1505.38 3748.79 1505.24 3750.72 1505.63C3751.38 1505.79 3752.01 1506.1 3752.54 1506.52C3753.07 1506.95 3753.51 1507.49 3753.81 1508.11C3753.81 1508.11 3753.81 1509.19 3753.04 1509.34C3752.26 1509.5 3751.8 1509.34 3751.64 1509.34C3751.44 1508.91 3751.14 1508.53 3750.76 1508.24C3750.39 1507.94 3749.95 1507.74 3749.48 1507.64C3748.18 1507.18 3746.76 1507.18 3745.46 1507.64C3744.22 1508.09 3743.1 1508.83 3742.22 1509.81C3741.86 1510.23 3741.6 1510.73 3741.46 1511.26C3741.33 1511.8 3741.32 1512.36 3741.44 1512.9C3741.64 1513.41 3741.94 1513.88 3742.35 1514.25C3742.75 1514.63 3743.23 1514.91 3743.76 1515.06C3744.87 1515.37 3746.05 1515.37 3747.16 1515.06H3748.4C3748.37 1515.34 3748.24 1515.6 3748.04 1515.79C3747.85 1515.99 3747.59 1516.11 3747.32 1516.15C3745.7 1516.61 3743.99 1516.61 3742.37 1516.15C3741.72 1515.91 3741.13 1515.53 3740.65 1515.04C3740.17 1514.54 3739.81 1513.94 3739.6 1513.28C3739.39 1512.62 3739.34 1511.92 3739.44 1511.24C3739.55 1510.56 3739.81 1509.91 3740.21 1509.34Z" fill="white"/>
<path d="M3749.79 1518.15L3756.59 1509.19C3756.85 1509.05 3757.14 1508.98 3757.44 1508.98C3757.74 1508.98 3758.03 1509.05 3758.29 1509.19C3758.39 1509.26 3758.46 1509.36 3758.52 1509.46C3758.57 1509.57 3758.6 1509.69 3758.6 1509.81C3758.6 1509.93 3758.57 1510.05 3758.52 1510.15C3758.46 1510.26 3758.39 1510.35 3758.29 1510.43L3755.51 1513.98L3759.99 1515.37L3762.77 1511.66C3763.01 1511.53 3763.28 1511.46 3763.55 1511.46C3763.82 1511.46 3764.08 1511.53 3764.32 1511.66C3764.32 1511.66 3765.09 1511.66 3764.32 1512.74L3757.52 1521.86C3757.28 1522 3757.02 1522.07 3756.75 1522.07C3756.47 1522.07 3756.21 1522 3755.97 1521.86C3755.97 1521.86 3755.2 1521.86 3755.97 1520.63L3758.75 1516.92L3754.27 1515.53L3751.49 1519.24C3751.23 1519.37 3750.94 1519.44 3750.64 1519.44C3750.34 1519.44 3750.05 1519.37 3749.79 1519.24C3749.79 1519.24 3749.48 1518.77 3749.79 1518.15Z" fill="white"/>
<path d="M3768.49 1521.71L3764.16 1520.47L3761.85 1522.17C3761.66 1522.28 3761.44 1522.34 3761.23 1522.34C3761.01 1522.34 3760.8 1522.28 3760.61 1522.17C3760.61 1522.17 3760.61 1521.25 3760.61 1520.78L3771.27 1512.9C3771.49 1512.79 3771.73 1512.73 3771.97 1512.73C3772.21 1512.73 3772.45 1512.79 3772.67 1512.9C3772.67 1512.9 3772.67 1512.9 3772.67 1513.67L3769.73 1523.87C3769.61 1524.15 3769.42 1524.38 3769.17 1524.54C3768.92 1524.71 3768.63 1524.8 3768.34 1524.8C3768.34 1524.8 3768.34 1524.8 3768.34 1524.03L3768.49 1521.71ZM3768.49 1519.85L3769.57 1515.99L3765.71 1518.93L3768.49 1519.85Z" fill="white"/>
<path d="M3783.95 1518.62L3781.32 1517.69L3775.14 1526.04C3774.88 1526.19 3774.59 1526.27 3774.29 1526.27C3773.99 1526.27 3773.7 1526.19 3773.44 1526.04V1524.96L3779.62 1516.76L3776.99 1515.84C3776.99 1515.84 3776.22 1515.84 3776.99 1514.75C3777.23 1514.62 3777.5 1514.55 3777.77 1514.55C3778.04 1514.55 3778.31 1514.62 3778.54 1514.75L3785.96 1517.07V1518.15C3785.72 1518.44 3785.4 1518.64 3785.03 1518.73C3784.67 1518.81 3784.29 1518.77 3783.95 1518.62Z" fill="white"/>
<path d="M3538.34 1660.51L3706.51 1712.14L3742.06 1665.15L3573.74 1613.52L3538.34 1660.51Z" fill="#455A64"/>
<path d="M3722.12 1716.93L3706.51 1712.14L3717.49 1697.61L3722.12 1716.93Z" fill="#455A64"/>
<path d="M3725.68 1671.18L3576.68 1625.42L3577.29 1624.65L3726.3 1670.25L3725.68 1671.18Z" fill="white"/>
<path d="M3691.05 1666.54L3572.96 1630.37L3573.58 1629.44L3691.67 1665.61L3691.05 1666.54Z" fill="white"/>
<path d="M3702.49 1681.84L3565.7 1639.95L3566.32 1639.03L3703.11 1681.07L3702.49 1681.84Z" fill="white"/>
<path d="M3710.99 1690.5L3562.15 1644.74L3562.76 1643.82L3711.77 1689.57L3710.99 1690.5Z" fill="white"/>
<path d="M3707.44 1695.29L3558.44 1649.54L3559.05 1648.61L3708.06 1694.36L3707.44 1695.29Z" fill="white"/>
<path d="M3662.46 1687.4L3554.73 1654.33L3555.5 1653.55L3663.23 1686.48L3662.46 1687.4Z" fill="white"/>
<path d="M3454.57 1771.33L3622.89 1822.96L3658.29 1775.97L3490.12 1724.35L3454.57 1771.33Z" fill="#455A64"/>
<path d="M3638.5 1827.75L3622.89 1822.96L3633.71 1808.59L3638.5 1827.75Z" fill="#455A64"/>
<path d="M3641.9 1782L3492.9 1736.25L3493.52 1735.48L3642.52 1781.07L3641.9 1782Z" fill="white"/>
<path d="M3607.28 1777.36L3489.19 1741.19L3489.96 1740.27L3608.05 1776.44L3607.28 1777.36Z" fill="white"/>
<path d="M3618.72 1792.67L3482.08 1750.78L3482.7 1749.85L3619.34 1791.89L3618.72 1792.67Z" fill="white"/>
<path d="M3627.37 1801.32L3478.37 1755.57L3478.99 1754.64L3627.99 1800.39L3627.37 1801.32Z" fill="white"/>
<path d="M3623.66 1806.11L3474.66 1760.36L3475.43 1759.43L3624.44 1805.18L3623.66 1806.11Z" fill="white"/>
<path d="M3578.84 1798.23L3471.11 1765.15L3471.72 1764.38L3579.46 1797.46L3578.84 1798.23Z" fill="white"/>
<path d="M3792.76 1623.41L3624.59 1571.79L3654.42 1532.07L3822.75 1583.69L3792.76 1623.41Z" fill="#FF725E"/>
<path d="M3608.98 1567L3624.59 1571.79L3635.41 1557.26L3608.98 1567Z" fill="#FF725E"/>
<path d="M3782.1 1581.37L3658.13 1543.35L3658.75 1542.42L3782.87 1580.6L3782.1 1581.37Z" fill="white"/>
<path d="M3803.42 1593.89L3654.42 1548.14L3655.19 1547.21L3804.04 1592.96L3803.42 1593.89Z" fill="white"/>
<path d="M3799.72 1598.68L3650.87 1552.93L3651.49 1552.16L3800.49 1597.76L3799.72 1598.68Z" fill="white"/>
<path d="M3784.41 1599.92L3647.16 1557.88L3647.78 1556.95L3785.03 1598.99L3784.41 1599.92Z" fill="white"/>
<path d="M3792.45 1608.27L3643.6 1562.67L3644.22 1561.74L3793.22 1607.49L3792.45 1608.27Z" fill="white"/>
<path d="M3749.94 1601.16L3639.89 1567.46L3640.51 1566.53L3750.72 1600.38L3749.94 1601.16Z" fill="white"/>
<path d="M3765.71 1659.12L3597.54 1607.49L3619.64 1578.13L3787.97 1629.75L3765.71 1659.12Z" fill="#FF725E"/>
<path d="M3581.93 1602.7L3597.54 1607.49L3608.36 1593.12L3581.93 1602.7Z" fill="#FF725E"/>
<path d="M3772.05 1635.01L3623.36 1589.41L3623.97 1588.48L3772.67 1634.08L3772.05 1635.01Z" fill="white"/>
<path d="M3742.06 1631.76L3619.64 1594.2L3620.42 1593.27L3742.83 1630.83L3742.06 1631.76Z" fill="white"/>
<path d="M3750.72 1640.26L3616.09 1598.99L3616.71 1598.07L3751.49 1639.49L3750.72 1640.26Z" fill="white"/>
<path d="M3716.25 1635.63L3612.38 1603.78L3613.15 1602.86L3717.02 1634.85L3716.25 1635.63Z" fill="white"/>
<path d="M3682.25 1769.79L3513.92 1718.16L3545.3 1676.74L3713.47 1728.36L3682.25 1769.79Z" fill="#DBDBDB"/>
<path d="M3498.46 1713.37L3513.92 1718.16L3524.9 1703.63L3498.46 1713.37Z" fill="#DBDBDB"/>
<path d="M3678.69 1745.37L3538.03 1702.24L3538.81 1701.32L3679.46 1744.59L3678.69 1745.37Z" fill="white"/>
<path d="M3663.7 1746.76L3534.48 1707.04L3535.1 1706.11L3664.31 1745.83L3663.7 1746.76Z" fill="white"/>
<path d="M3677.92 1733.31L3545.3 1692.66L3546.07 1691.73L3678.54 1732.38L3677.92 1733.31Z" fill="white"/>
<path d="M3696.16 1733L3549.01 1687.87L3549.63 1686.94L3696.77 1732.07L3696.16 1733Z" fill="white"/>
<path d="M3664.62 1752.94L3530.77 1711.83L3531.54 1711.05L3665.24 1752.01L3664.62 1752.94Z" fill="white"/>
<path d="M3603.26 1874.43L3434.94 1822.81L3461.06 1788.34L3629.23 1839.96L3603.26 1874.43Z" fill="#FF725E"/>
<path d="M3419.33 1818.01L3434.94 1822.81L3445.76 1808.28L3419.33 1818.01Z" fill="#FF725E"/>
<path d="M3613.77 1844.91L3464.92 1799.16L3465.54 1798.38L3614.54 1843.98L3613.77 1844.91Z" fill="white"/>
<path d="M3610.22 1849.7L3461.21 1803.95L3461.83 1803.18L3610.84 1848.77L3610.22 1849.7Z" fill="white"/>
<path d="M3594.76 1850.94L3457.5 1808.89L3458.28 1807.97L3595.38 1850.01L3594.76 1850.94Z" fill="white"/>
<path d="M3602.95 1859.28L3453.95 1813.69L3454.57 1812.76L3603.57 1858.51L3602.95 1859.28Z" fill="white"/>
<path d="M3560.45 1852.17L3450.24 1818.48L3451.01 1817.55L3561.06 1851.4L3560.45 1852.17Z" fill="white"/>
<path d="M3541.28 1980.15C3481.15 1982.47 3673.9 1856.5 3675.29 1787.1C3676.68 1717.7 3610.37 1741.66 3558.59 1781.54C3379.14 1920.65 3241.11 1916.78 3151.46 2047.24C3061.81 2177.69 3541.28 1980.15 3541.28 1980.15Z" fill="#EB9481"/>
<path d="M3357.35 1900.86C3318.33 1911.53 3280.83 1927.11 3245.75 1947.23C3214.54 1967.7 3187.53 1993.93 3166.15 2024.52C3165.22 2025.91 3167.07 2027.61 3168.16 2026.22C3216.07 1964.39 3288.41 1932.39 3357.81 1901.48C3357.78 1901.35 3357.72 1901.23 3357.64 1901.12C3357.56 1901.01 3357.46 1900.93 3357.35 1900.86Z" fill="#263238"/>
<path d="M2681.42 2172.28C2728.57 2183.87 3052.38 2086.96 3052.38 2086.96L3245.59 2526.39C3245.59 2526.39 2680.81 2671.69 2547.26 2628.87C2413.71 2586.06 2197.32 2139.98 2124.52 1879.84C2056.05 1635.32 2135.96 1472.87 2317.57 1723.57C2318.19 1723.57 2656.85 2166.25 2681.42 2172.28Z" fill="#FF725E"/>
<path d="M3142.96 2550.81C3106.48 2559.16 3062.9 2569.05 3015.75 2579.1L2838.77 2146.31C2881.12 2135.96 2925.49 2123.9 2962.43 2113.55C3016.99 2244.93 3083.14 2405.21 3142.96 2550.81Z" fill="#EBEBEB"/>
<path d="M2966.29 2589.15L2925.33 2597.34L2748.82 2165.94C2761.18 2163.62 2774.63 2160.84 2788.54 2157.75C2842.02 2286.97 2907.09 2444.63 2966.29 2589.15Z" fill="#EBEBEB"/>
<path d="M2540.46 2614.81C2428.09 2560.55 2284.19 2266.1 2256.52 2208.29C2238.75 2171.35 2222.52 2133.64 2206.44 2095.92C2174.45 2020.19 2144.61 1943.68 2116.33 1866.7C2116.39 1866.54 2116.42 1866.36 2116.4 1866.18C2116.38 1866.01 2116.32 1865.84 2116.22 1865.69C2116.12 1865.55 2115.99 1865.43 2115.83 1865.34C2115.68 1865.26 2115.5 1865.22 2115.32 1865.22C2115.15 1865.22 2114.97 1865.26 2114.82 1865.34C2114.66 1865.43 2114.53 1865.55 2114.43 1865.69C2114.33 1865.84 2114.27 1866.01 2114.25 1866.18C2114.23 1866.36 2114.25 1866.54 2114.32 1866.7C2130.29 1926.37 2149.2 1985.2 2171.05 2043.22C2157.11 2021.73 2144.46 1999.43 2133.18 1976.44C2133.18 1975.36 2130.7 1976.44 2131.17 1977.37C2142.7 2004.81 2157.49 2030.75 2175.22 2054.66C2197.48 2112.93 2222.36 2170.12 2249.87 2225.76C2257.76 2241.22 2424.69 2602.75 2549.58 2633.66C2593.01 2644.48 2740.47 2630.42 2771.69 2622.53C2772.93 2622.53 2773.24 2620.52 2771.69 2620.52C2729.19 2621.14 2580.96 2634.59 2540.46 2614.81Z" fill="#263238"/>
<path d="M3121.94 2474.92C3116.07 2459.47 3110.19 2444.01 3104.16 2429.48C3092.11 2399.34 3019.46 2219.73 2988.55 2163.78C2988.55 2162.23 2985.46 2163.78 2985.92 2165.02C3004 2226.84 3080.67 2403.82 3094.12 2433.04C3100.61 2448.49 3107.1 2462.87 3113.9 2477.7C3120.7 2492.54 3129.36 2506.92 3135.85 2521.91C3135.85 2523.3 3138.94 2521.91 3138.32 2520.98C3132.14 2505.99 3128.12 2490.07 3121.94 2474.92Z" fill="#263238"/>
<path d="M3052.69 2087.58C3025.64 2089.43 2782.97 2151.88 2729.34 2164.86C2716.61 2169.47 2703.15 2171.67 2689.62 2171.35C2676.38 2167.73 2664.87 2159.51 2657.16 2148.17C2639.23 2128.54 2442.46 1880.77 2428.24 1868.71C2422.99 1864.07 2418.82 1863.3 2423.92 1871.18C2432.73 1884.63 2624.08 2129.31 2641.39 2149.4C2658.7 2169.5 2672.3 2186.04 2699.04 2184.34C2710.48 2183.56 3038.01 2102.11 3054.55 2095C3057.33 2093.61 3056.87 2087.27 3052.69 2087.58Z" fill="#263238"/>
<path d="M2410.93 1675.04C2362.09 1684 2237.35 1626.66 2206.44 1556.02C2204.28 1551.08 2215.72 1503.16 2226.84 1444.12C2233.34 1408.26 2239.83 1368.07 2242.3 1331.13C2242.3 1323.56 2469.36 1408.41 2469.36 1408.41C2452.02 1453.54 2440.29 1500.62 2434.43 1548.6C2433.87 1553.74 2433.87 1558.92 2434.43 1564.06C2434.51 1564.88 2434.51 1565.71 2434.43 1566.53C2437.98 1595.28 2463.49 1665.3 2410.93 1675.04Z" fill="#EB9481"/>
<path d="M2435.82 1563.44V1565.92C2427.88 1566.25 2419.92 1566 2412.01 1565.14C2275.69 1549.69 2254.67 1375.8 2251.57 1331.9C2292.38 1341.48 2470.44 1407.95 2470.44 1407.95C2453.11 1453.07 2441.37 1500.16 2435.51 1548.14C2435.14 1553.24 2435.24 1558.36 2435.82 1563.44Z" fill="#263238"/>
<path d="M2149.41 1088.92C2140.91 1174.86 2230.4 1400.22 2298.56 1440.87C2397.18 1499.92 2535.36 1479.67 2579.41 1366.52C2622.23 1256.78 2500.43 964.651 2426.55 930.492C2318.19 879.485 2161.93 961.869 2149.41 1088.92Z" fill="#EB9481"/>
<path d="M2405.68 1183.21C2405.68 1183.21 2404.75 1184.45 2405.68 1184.91C2412.02 1200.37 2416.96 1218.3 2405.68 1228.81C2420.83 1220.61 2414.18 1197.12 2405.68 1183.21Z" fill="#263238"/>
<path d="M2385.89 1172.54C2360.7 1180.27 2378.01 1230.2 2401.35 1222.93C2424.69 1215.67 2406.91 1166.21 2385.89 1172.54Z" fill="#263238"/>
<path d="M2495.79 1154.61C2495.79 1154.61 2497.34 1154.61 2497.49 1155.54C2502.44 1171 2510.63 1188.31 2526.4 1188.62C2508.62 1192.95 2497.95 1170.22 2495.79 1154.61Z" fill="#263238"/>
<path d="M2503.67 1133.75C2527.94 1123.24 2547.11 1172.39 2524.69 1182.13C2502.28 1191.86 2483.73 1142.56 2503.67 1133.75Z" fill="#263238"/>
<path d="M2358.23 1156.62C2364.13 1152.45 2369.8 1147.96 2375.23 1143.18C2381.82 1139.24 2386.97 1133.27 2389.91 1126.17C2390.34 1123.74 2389.96 1121.24 2388.85 1119.04C2387.73 1116.84 2385.94 1115.06 2383.73 1113.96C2379.03 1112.51 2374.03 1112.35 2369.24 1113.49C2364.46 1114.64 2360.07 1117.04 2356.53 1120.45C2348.21 1126.19 2342.36 1134.86 2340.14 1144.72C2339.72 1146.99 2339.98 1149.34 2340.89 1151.47C2341.79 1153.59 2343.3 1155.4 2345.23 1156.67C2347.16 1157.94 2349.43 1158.62 2351.74 1158.61C2354.05 1158.6 2356.31 1157.91 2358.23 1156.62Z" fill="#263238"/>
<path d="M2514.65 1102.06C2507.23 1103.3 2500.43 1103.14 2493.01 1103.76C2485.47 1105.37 2477.61 1104.5 2470.6 1101.29C2468.61 1099.85 2467.16 1097.8 2466.46 1095.45C2465.76 1093.1 2465.86 1090.59 2466.73 1088.3C2469.19 1084.01 2472.75 1080.44 2477.04 1077.97C2481.33 1075.5 2486.2 1074.21 2491.15 1074.24C2501.13 1072.9 2511.25 1075.26 2519.59 1080.89C2521.43 1082.27 2522.82 1084.17 2523.6 1086.33C2524.38 1088.49 2524.52 1090.84 2524 1093.08C2523.47 1095.32 2522.31 1097.36 2520.65 1098.95C2518.99 1100.55 2516.91 1101.63 2514.65 1102.06Z" fill="#263238"/>
<path d="M2441.85 1279.5C2447.88 1284.24 2454.82 1287.68 2462.24 1289.62C2469.65 1291.57 2477.39 1291.96 2484.97 1290.79C2491.6 1289.81 2498.05 1287.88 2504.14 1285.07L2507.69 1283.37L2510.78 1281.67C2511.53 1281.21 2512.13 1280.54 2512.48 1279.74C2512.84 1278.94 2512.95 1278.05 2512.79 1277.18C2512.88 1276.67 2512.88 1276.15 2512.79 1275.64V1274.4C2509.08 1262.35 2501.66 1244.73 2501.66 1244.73C2506.76 1244.73 2532.58 1247.66 2529.79 1241.48C2509.77 1188.42 2484.45 1137.52 2454.21 1089.54C2453.28 1088 2450.81 1089.54 2451.43 1090.93C2469.67 1140.08 2496.41 1185.68 2515.42 1234.83C2506.29 1233.92 2497.09 1234.28 2488.06 1235.92C2486.52 1237 2503.52 1269.77 2503.52 1275.33C2494.12 1279.69 2483.94 1282.11 2473.58 1282.46C2463.23 1282.8 2452.91 1281.06 2443.24 1277.34C2440.76 1277.18 2439.99 1278.58 2441.85 1279.5Z" fill="#263238"/>
<path d="M2494.55 1281.51C2490.97 1292.25 2484.69 1301.88 2476.31 1309.49C2471.61 1313.49 2465.77 1315.92 2459.62 1316.44C2446.17 1317.53 2442 1306.24 2440.92 1295.89C2440.28 1290.29 2440.28 1284.64 2440.92 1279.04C2458.07 1285.6 2476.87 1286.47 2494.55 1281.51Z" fill="#263238"/>
<path d="M2476.31 1309.49C2471.61 1313.49 2465.77 1315.92 2459.62 1316.45C2446.17 1317.53 2442 1306.24 2440.92 1295.89C2447.49 1293.9 2454.54 1294.16 2460.95 1296.62C2467.36 1299.09 2472.76 1303.61 2476.31 1309.49Z" fill="#FF9BBC"/>
<path d="M2227.62 1297.43C2271.82 1279.19 2216.03 1156.78 2216.03 1156.78C2234.15 1147.72 2249.34 1133.7 2259.82 1116.35C2270.29 1099.01 2275.64 1079.04 2275.22 1058.78C2275.22 1058.78 2464.88 1043.33 2491.62 969.442C2518.36 895.559 2465.96 801.119 2442.62 802.356C2419.28 803.592 2396.25 844.089 2396.25 844.089C2396.25 844.089 2371.67 814.103 2352.51 816.267C2322.99 819.513 2318.35 858.773 2306.14 871.602C2272.75 905.143 2157.75 942.239 2132.87 975.161C2125.74 983.273 2120.72 993.02 2118.27 1003.54C2115.82 1014.05 2116 1025.01 2118.8 1035.44C2108.38 1042.28 2099.82 1051.59 2093.86 1062.54C2087.9 1073.49 2084.73 1085.73 2084.64 1098.2C2080.93 1154 2183.1 1315.98 2227.62 1297.43Z" fill="#263238"/>
<path d="M2231.48 1286.77C2263.79 1240.4 2232.41 1177.18 2201.8 1137.46C2201.8 1137.46 2201.8 1136.22 2202.89 1137.46C2233.8 1173.78 2270.59 1245.65 2233.8 1288.93C2233.51 1289.24 2233.12 1289.42 2232.7 1289.44C2232.28 1289.45 2231.87 1289.3 2231.56 1289.01C2231.25 1288.72 2231.07 1288.33 2231.06 1287.9C2231.04 1287.48 2231.19 1287.08 2231.48 1286.77Z" fill="#263238"/>
<path d="M2244.31 1051.98C2287.72 1057.71 2331.74 1056.92 2374.92 1049.66C2394.53 1045.55 2413.62 1039.23 2431.8 1030.81C2449.88 1022.46 2482.03 1008.08 2489.14 987.527C2481.94 1003.8 2469.09 1016.92 2452.98 1024.47C2432.09 1037.29 2409.36 1046.83 2385.58 1052.75C2338.96 1064.87 2290.13 1065.83 2243.07 1055.54C2240.91 1055.23 2241.99 1051.83 2244.31 1051.98Z" fill="#263238"/>
<path d="M2151.42 946.876C2172.48 934.593 2194.32 923.699 2216.8 914.262C2244.31 900.815 2277.7 887.677 2299.49 865.728H2300.26C2284.95 881.393 2266.94 894.169 2247.09 903.442C2227.62 914.107 2207.68 924 2187.58 933.428C2164.71 944.248 2139.51 956.613 2125.76 979.798C2112 1002.98 2116.64 1026.17 2119.57 1049.51C2119.57 1049.97 2119.41 1050.42 2119.12 1050.78C2118.82 1051.14 2118.41 1051.39 2117.96 1051.48C2117.5 1051.57 2117.03 1051.5 2116.62 1051.28C2116.21 1051.06 2115.89 1050.71 2115.71 1050.28C2109.11 1031.55 2109.05 1011.13 2115.53 992.351C2122.01 973.575 2134.66 957.547 2151.42 946.876Z" fill="#263238"/>
<path d="M2108.29 1046.57C2059.76 1081.81 2084.49 1153.53 2109.37 1195.73C2131.13 1237.09 2165.51 1270.45 2207.52 1290.94C2209.53 1291.71 2207.52 1294.81 2205.98 1294.03C2155.59 1274.25 2118.49 1226.02 2095.31 1178.73C2078 1143.02 2058.52 1067.75 2108.29 1046.57Z" fill="#263238"/>
<path d="M2247.25 1270.23C2247.25 1270.23 2177.85 1206.55 2147.86 1232.98C2117.87 1259.41 2181.56 1359.72 2225.14 1365.75C2230.66 1366.91 2236.36 1366.95 2241.9 1365.85C2247.43 1364.76 2252.69 1362.56 2257.35 1359.38C2262.01 1356.21 2265.98 1352.12 2269.03 1347.37C2272.07 1342.62 2274.13 1337.31 2275.07 1331.75L2247.25 1270.23Z" fill="#EB9481"/>
<path d="M2166.87 1261.26V1262.35C2197.79 1267.6 2218.19 1290.32 2234.42 1315.21C2232.18 1312.74 2229.44 1310.8 2226.37 1309.5C2223.3 1308.21 2219.99 1307.6 2216.67 1307.72C2213.34 1307.83 2210.08 1308.68 2207.11 1310.18C2204.15 1311.69 2201.54 1313.83 2199.49 1316.44C2199.49 1316.44 2199.49 1318.14 2200.57 1317.84C2205.14 1315.12 2210.46 1313.91 2215.75 1314.39C2221.05 1314.86 2226.07 1316.98 2230.09 1320.46C2236.82 1326.21 2242.88 1332.69 2248.18 1339.78C2250.18 1342.1 2254.36 1339.78 2252.81 1337C2245.24 1300.37 2206.13 1256.32 2166.87 1261.26Z" fill="#263238"/>
<path d="M2452.36 1557.57H2451.58C2467.04 1602.08 2499.81 1705.95 2429.64 1718.47C2400.39 1720.95 2371.05 1714.83 2345.24 1700.85C2318.67 1688.58 2293.49 1673.5 2270.12 1655.87C2243.1 1636.84 2217.67 1615.65 2194.08 1592.5C2192.99 1591.42 2191.76 1592.5 2192.69 1594.05C2216.64 1617.23 2239.06 1642.27 2264.4 1663.14C2289.2 1683.52 2316.65 1700.42 2346.02 1713.37C2373.31 1727.49 2404.28 1732.89 2434.74 1728.83C2447.78 1725.77 2459.33 1718.23 2467.38 1707.52C2475.43 1696.82 2479.47 1683.63 2478.79 1670.25C2478.12 1631.23 2469.11 1592.81 2452.36 1557.57Z" fill="#263238"/>
<path d="M3855.51 6353.93H6369.39V5298.7H3855.51V6353.93Z" fill="#263238"/>
<path d="M3903.12 5298.7C3903.12 5298.7 3937.74 5143.36 4006.84 5119.56C4075.93 5095.76 4118.12 5165.93 4118.12 5165.93C4118.12 5165.93 4134.35 5017.55 4232.35 4973.19C4330.34 4928.82 4404.07 5019.56 4404.07 5019.56C4404.07 5019.56 4479.35 4831.29 4613.66 4831.29C4747.98 4831.29 4815.84 5106.73 4815.84 5106.73C4815.84 5106.73 4895.28 5024.66 4976.59 5071.03C5057.89 5117.4 5057.89 5299.17 5057.89 5299.17L3903.12 5298.7Z" fill="#37474F"/>
<path d="M5280.46 5298.7H6321.47C6321.47 5298.7 6287.16 5157.58 6218.07 5147.54C6148.98 5137.49 6116.83 5203.03 6116.83 5203.03C6116.83 5203.03 6119.92 5006.26 5991.01 4972.72C5862.1 4939.18 5753.9 5113.07 5753.9 5113.07C5753.9 5113.07 5672.91 5013.99 5562.7 5020.33C5452.5 5026.67 5424.52 5190.35 5424.52 5190.35C5424.52 5190.35 5324.67 5133.63 5280.46 5298.7Z" fill="#37474F"/>
<path d="M4983.23 5298.7H5623.14C5623.14 5298.7 5621.59 5207.2 5558.69 5182.93C5541.67 5175.7 5522.81 5174.03 5504.79 5178.17C5486.77 5182.31 5470.53 5192.03 5458.37 5205.96C5458.37 5205.96 5432.71 5037.64 5315.55 5037.64C5198.39 5037.64 5142.13 5182.93 5142.13 5182.93C5131.95 5168.87 5117.94 5158.02 5101.77 5151.69C5085.6 5145.36 5067.96 5143.81 5050.93 5147.23C4985.86 5155.26 4983.23 5298.7 4983.23 5298.7Z" fill="#455A64"/>
<path d="M4355.07 6350.99H6457.03V6226.41H4355.07V6350.99Z" fill="#FF725E"/>
<path d="M4355.07 6196.43H6457.03V6071.85H4355.07V6196.43Z" fill="#FF725E"/>
<path d="M4355.07 6041.71H6457.03V5917.12H4355.07V6041.71Z" fill="#FF725E"/>
<path d="M4355.07 5887.14H6457.03V5762.56H4355.07V5887.14Z" fill="#FF725E"/>
<path d="M4355.07 5732.42H6457.03V5607.84H4355.07V5732.42Z" fill="#FF725E"/>
<path d="M4355.07 5577.85H6457.03V5453.27H4355.07V5577.85Z" fill="#FF725E"/>
<path d="M4355.07 5423.13H6457.03V5298.55H4355.07V5423.13Z" fill="#FF725E"/>
<path d="M3767.88 6350.99H4355.07V6226.41H3767.88V6350.99Z" fill="#FF725E"/>
<path opacity="0.2" d="M3767.88 6350.99H4355.07V6226.41H3767.88V6350.99Z" fill="#020100"/>
<path d="M3767.88 6196.43H4355.07V6071.85H3767.88V6196.43Z" fill="#FF725E"/>
<path opacity="0.2" d="M3767.88 6196.43H4355.07V6071.85H3767.88V6196.43Z" fill="#020100"/>
<path d="M3767.88 6041.71H4355.07V5917.12H3767.88V6041.71Z" fill="#FF725E"/>
<path opacity="0.2" d="M3767.88 6041.71H4355.07V5917.12H3767.88V6041.71Z" fill="#020100"/>
<path d="M3767.88 5887.14H4355.07V5762.56H3767.88V5887.14Z" fill="#FF725E"/>
<path opacity="0.2" d="M3767.88 5887.14H4355.07V5762.56H3767.88V5887.14Z" fill="#020100"/>
<path d="M3767.88 5732.42H4355.07V5607.84H3767.88V5732.42Z" fill="#FF725E"/>
<path opacity="0.2" d="M3767.88 5732.42H4355.07V5607.84H3767.88V5732.42Z" fill="#020100"/>
<path d="M3767.88 5577.85H4355.07V5453.27H3767.88V5577.85Z" fill="#FF725E"/>
<path opacity="0.2" d="M3767.88 5577.85H4355.07V5453.27H3767.88V5577.85Z" fill="#020100"/>
<path d="M3767.88 5423.13H4355.07V5298.55H3767.88V5423.13Z" fill="#FF725E"/>
<path opacity="0.2" d="M3767.88 5423.13H4355.07V5298.55H3767.88V5423.13Z" fill="#020100"/>
</svg>
