<svg width="401" height="299" viewBox="0 0 401 299" fill="none" xmlns="http://www.w3.org/2000/svg">
<path d="M400.857 262.093H0.930267V262.293H400.857V262.093Z" fill="#EBEBEB"/>
<path d="M360.784 274.962H334.293V275.162H360.784V274.962Z" fill="#EBEBEB"/>
<path d="M242.038 275.066H235.087V275.266H242.038V275.066Z" fill="#EBEBEB"/>
<path d="M333.485 267.54H284.342V267.74H333.485V267.54Z" fill="#EBEBEB"/>
<path d="M181.009 272.259H170.859V272.459H181.009V272.259Z" fill="#EBEBEB"/>
<path d="M163.74 272.259H134.282V272.459H163.74V272.259Z" fill="#EBEBEB"/>
<path d="M63.2308 268.883H42.8906V269.083H63.2308V268.883Z" fill="#EBEBEB"/>
<path d="M127.931 268.883H68.03V269.083H127.931V268.883Z" fill="#EBEBEB"/>
<path d="M190.495 226.419H36.0518C34.8419 226.417 33.6823 225.935 32.8275 225.079C31.9727 224.222 31.4927 223.062 31.4927 221.852V4.74787C31.5032 3.54491 31.9879 2.39469 32.8416 1.54703C33.6952 0.699382 34.8488 0.222764 36.0518 0.220703H190.495C191.707 0.220703 192.868 0.701885 193.725 1.55839C194.581 2.4149 195.063 3.57658 195.063 4.78786V221.852C195.063 223.063 194.581 224.225 193.725 225.082C192.868 225.938 191.707 226.419 190.495 226.419ZM36.0518 0.380674C34.895 0.382793 33.7862 0.843841 32.9689 1.66262C32.1516 2.4814 31.6926 3.591 31.6926 4.74787V221.852C31.6926 223.009 32.1516 224.119 32.9689 224.937C33.7862 225.756 34.895 226.217 36.0518 226.219H190.495C191.653 226.217 192.763 225.756 193.581 224.938C194.4 224.119 194.861 223.01 194.863 221.852V4.74787C194.861 3.59027 194.4 2.48068 193.581 1.66213C192.763 0.843581 191.653 0.382789 190.495 0.380674H36.0518Z" fill="#EBEBEB"/>
<path d="M363.512 226.419H209.06C207.849 226.417 206.689 225.935 205.833 225.079C204.977 224.223 204.495 223.063 204.493 221.852V4.74787C204.506 3.54418 204.992 2.39397 205.847 1.54653C206.702 0.699102 207.856 0.222741 209.06 0.220703H363.512C364.713 0.224866 365.865 0.702414 366.717 1.54984C367.569 2.39727 368.052 3.54629 368.063 4.74787V221.852C368.063 223.061 367.584 224.22 366.731 225.076C365.878 225.932 364.72 226.415 363.512 226.419ZM209.06 0.380674C207.902 0.382789 206.793 0.843581 205.974 1.66213C205.156 2.48068 204.695 3.59027 204.693 4.74787V221.852C204.695 223.01 205.156 224.119 205.974 224.938C206.793 225.756 207.902 226.217 209.06 226.219H363.512C364.669 226.217 365.779 225.756 366.597 224.938C367.416 224.119 367.877 223.01 367.879 221.852V4.74787C367.877 3.59027 367.416 2.48068 366.597 1.66213C365.779 0.843581 364.669 0.382789 363.512 0.380674H209.06Z" fill="#EBEBEB"/>
<path d="M153.526 155.8L347.923 155.8V13.8021L153.526 13.8021L153.526 155.8Z" fill="#E6E6E6"/>
<path d="M144.936 155.8L345.931 155.8V13.8021L144.936 13.8021L144.936 155.8Z" fill="#F0F0F0"/>
<path d="M333.893 143.77V25.832L156.958 25.832V143.77H333.893Z" fill="#FAFAFA"/>
<path d="M290.885 143.762L250.604 25.832H212.14L252.42 143.762H290.885Z" fill="white"/>
<path d="M244.158 143.762L203.877 25.832H188.888L229.168 143.762H244.158Z" fill="white"/>
<path d="M158.493 143.77V25.832H156.966V143.77H158.493Z" fill="#E6E6E6"/>
<path d="M52.5768 117.175L121.22 117.175L121.22 19.8571L52.5768 19.8571L52.5768 117.175Z" fill="#E0E0E0"/>
<path d="M47.7217 117.175L118.477 117.175L118.477 19.8571L47.7217 19.8571L47.7217 117.175Z" fill="#F5F5F5"/>
<path d="M111.494 109.497V27.5198L54.7044 27.5198L54.7044 109.497H111.494Z" fill="white"/>
<path d="M79.2599 185.307C84.355 172.733 96.4727 168.054 100.664 160.111C106.143 149.713 106.111 134.108 101.464 128.485C97.4006 123.59 83.963 156.672 82.4513 160.367C78.3039 170.341 75.7089 180.89 74.7567 191.65C74.8687 183.883 74.9727 176.748 75.0607 171.245C75.3486 153.297 75.7005 147.522 75.8605 145.746C76.4204 144.874 77.0843 143.866 77.4602 143.346C80.7156 138.763 87.9303 133.3 91.5376 126.638C96.8007 116.903 95.9528 105.257 92.2575 100.922C88.3942 96.3871 81.5715 107.105 77.9481 117.719C74.3248 128.333 75.8685 138.515 74.8527 147.314C74.6447 149.041 74.4208 155.608 74.2208 164.727C73.117 154.92 70.9254 148.354 66.8702 142.227C61.8791 134.7 57.5679 125.534 53.4566 126.717C49.3454 127.901 51.553 140.035 54.8084 148.545C57.7198 156.128 71.9972 163.695 74.1008 169.79C73.8529 182.139 73.6289 197.784 73.477 212.366C72.3492 204.839 73.125 204.207 68.5019 192.681C65.7584 185.835 54.5204 177.388 53.1607 182.091C51.8009 186.794 53.8566 195.689 58.1038 201.928C61.5351 206.951 69.1418 206.943 70.9014 210.062C71.3094 210.79 72.6691 213.582 73.445 215.181C73.261 232.97 73.181 248.679 73.269 254.03L74.0049 254.086C74.0049 252.702 74.0608 243.688 74.2048 231.69C76.0525 225.291 88.4902 221.604 92.3295 214.973C96.3288 208.039 99.2402 199.944 97.5125 194.529C96.0728 190.01 84.7149 196.129 80.1477 203.639C77.0843 208.63 75.2126 213.949 74.3408 221.1C74.4448 212.942 74.5648 204.175 74.6767 195.905C75.6126 193.825 77.7162 189.074 79.2599 185.307Z" fill="#E6E6E6"/>
<path d="M86.5626 262.093H60.4234C59.7326 262.092 59.0632 261.853 58.5284 261.415C57.9936 260.978 57.626 260.37 57.4879 259.693L55.6322 250.575H91.3617L89.506 259.717C89.36 260.389 88.9885 260.992 88.4531 261.424C87.9177 261.856 87.2506 262.092 86.5626 262.093Z" fill="#F0F0F0"/>
<path d="M92.1135 254.086H54.8804C54.4491 254.085 54.0332 253.926 53.7118 253.638C53.3903 253.351 53.1857 252.955 53.1367 252.526L52.3368 245.768C52.3099 245.522 52.3349 245.274 52.4102 245.039C52.4854 244.804 52.6093 244.587 52.7738 244.403C52.9382 244.219 53.1395 244.072 53.3647 243.971C53.5898 243.87 53.8337 243.817 54.0805 243.816H92.8254C93.0726 243.816 93.3171 243.867 93.5428 243.968C93.7686 244.069 93.9704 244.216 94.1351 244.401C94.2998 244.585 94.4236 244.802 94.4984 245.038C94.5732 245.273 94.5973 245.522 94.5691 245.768L93.7692 252.526C93.7225 252.94 93.5304 253.324 93.2273 253.61C92.9241 253.895 92.5295 254.064 92.1135 254.086Z" fill="#F0F0F0"/>
<path d="M325.375 256.262H333.365V170.285H325.375V256.262Z" fill="#F0F0F0"/>
<path d="M162.549 261.989H330.302V256.262H162.549V261.989Z" fill="#F0F0F0"/>
<path d="M325.383 170.285H159.485V256.262H325.383V170.285Z" fill="#F5F5F5"/>
<path d="M327.262 170.285H335.517V164.862H327.262V170.285Z" fill="#E0E0E0"/>
<path d="M327.262 164.863H157.334V170.286H327.262V164.863Z" fill="#EBEBEB"/>
<path d="M313.473 207.383H171.387C169.69 207.383 168.062 206.709 166.862 205.509C165.662 204.309 164.988 202.681 164.988 200.984V182.587C164.988 180.89 165.662 179.263 166.862 178.063C168.062 176.863 169.69 176.188 171.387 176.188H313.473C315.17 176.188 316.798 176.863 317.998 178.063C319.198 179.263 319.872 180.89 319.872 182.587V200.984C319.872 202.681 319.198 204.309 317.998 205.509C316.798 206.709 315.17 207.383 313.473 207.383ZM171.387 177.788C170.114 177.788 168.894 178.294 167.993 179.194C167.093 180.094 166.588 181.314 166.588 182.587V200.984C166.588 202.257 167.093 203.477 167.993 204.377C168.894 205.277 170.114 205.783 171.387 205.783H313.473C314.746 205.783 315.966 205.277 316.866 204.377C317.766 203.477 318.272 202.257 318.272 200.984V182.587C318.272 181.314 317.766 180.094 316.866 179.194C315.966 178.294 314.746 177.788 313.473 177.788H171.387Z" fill="white"/>
<path d="M313.473 245.928H171.387C169.69 245.928 168.062 245.254 166.862 244.054C165.662 242.853 164.988 241.226 164.988 239.529V221.132C164.988 219.435 165.662 217.808 166.862 216.608C168.062 215.408 169.69 214.733 171.387 214.733H313.473C315.17 214.733 316.798 215.408 317.998 216.608C319.198 217.808 319.872 219.435 319.872 221.132V239.529C319.872 241.226 319.198 242.853 317.998 244.054C316.798 245.254 315.17 245.928 313.473 245.928ZM171.387 216.269C170.114 216.269 168.894 216.775 167.993 217.675C167.093 218.575 166.588 219.795 166.588 221.068V239.465C166.588 240.738 167.093 241.958 167.993 242.858C168.894 243.758 170.114 244.264 171.387 244.264H313.473C314.746 244.264 315.966 243.758 316.866 242.858C317.766 241.958 318.272 240.738 318.272 239.465V221.068C318.272 219.795 317.766 218.575 316.866 217.675C315.966 216.775 314.746 216.269 313.473 216.269H171.387Z" fill="white"/>
<path d="M281.183 194.585H203.677C203.127 194.585 202.599 194.367 202.209 193.979C201.82 193.591 201.6 193.064 201.597 192.513V190.994C201.6 190.444 201.82 189.917 202.209 189.528C202.599 189.14 203.127 188.922 203.677 188.922H281.183C281.733 188.922 282.261 189.14 282.651 189.528C283.04 189.917 283.26 190.444 283.262 190.994V192.513C283.26 193.064 283.04 193.591 282.651 193.979C282.261 194.367 281.733 194.585 281.183 194.585ZM203.677 190.586C203.552 190.588 203.432 190.638 203.343 190.726C203.253 190.814 203.201 190.932 203.197 191.058V192.577C203.201 192.703 203.253 192.822 203.343 192.909C203.432 192.997 203.552 193.047 203.677 193.049H281.183C281.309 193.049 281.43 193 281.519 192.912C281.609 192.823 281.661 192.703 281.663 192.577V191.058C281.661 190.932 281.609 190.812 281.519 190.724C281.43 190.635 281.309 190.586 281.183 190.586H203.677Z" fill="white"/>
<path d="M281.183 233.13H203.677C203.127 233.13 202.599 232.912 202.209 232.524C201.82 232.135 201.6 231.609 201.597 231.058V229.539C201.6 228.989 201.82 228.462 202.209 228.073C202.599 227.685 203.127 227.467 203.677 227.467H281.183C281.733 227.467 282.261 227.685 282.651 228.073C283.04 228.462 283.26 228.989 283.262 229.539V231.058C283.26 231.609 283.04 232.135 282.651 232.524C282.261 232.912 281.733 233.13 281.183 233.13ZM203.677 229.067C203.552 229.069 203.432 229.119 203.343 229.207C203.253 229.295 203.201 229.413 203.197 229.539V231.058C203.201 231.184 203.253 231.302 203.343 231.39C203.432 231.478 203.552 231.528 203.677 231.53H281.183C281.309 231.53 281.43 231.481 281.519 231.393C281.609 231.304 281.661 231.184 281.663 231.058V229.539C281.661 229.413 281.609 229.293 281.519 229.204C281.43 229.116 281.309 229.067 281.183 229.067H203.677Z" fill="white"/>
<path d="M196.894 298.214C282.545 298.214 351.978 294.16 351.978 289.16C351.978 284.159 282.545 280.105 196.894 280.105C111.244 280.105 41.8108 284.159 41.8108 289.16C41.8108 294.16 111.244 298.214 196.894 298.214Z" fill="#F5F5F5"/>
<path d="M300.708 90.4062L300.403 95.1155L301.201 95.1671L301.506 90.4578L300.708 90.4062Z" fill="#FF725E"/>
<path d="M301.921 71.2796L300.923 86.7566L301.721 86.8081L302.72 71.3311L301.921 71.2796Z" fill="#FF725E"/>
<path d="M292.429 48.8037H198.406C195.992 48.846 193.68 49.7864 191.921 51.4413C190.163 53.0961 189.084 55.3468 188.896 57.7541L176.746 245.32C176.657 246.469 176.809 247.625 177.19 248.713C177.572 249.801 178.176 250.798 178.963 251.641C179.751 252.483 180.705 253.152 181.765 253.606C182.825 254.06 183.967 254.289 185.12 254.278H279.127C281.546 254.238 283.863 253.298 285.626 251.641C287.388 249.985 288.471 247.731 288.661 245.32L300.803 57.7541C300.892 56.6047 300.741 55.4494 300.359 54.3617C299.977 53.274 299.373 52.2775 298.586 51.4358C297.798 50.594 296.844 49.9253 295.784 49.4722C294.724 49.019 293.581 48.7914 292.429 48.8037Z" fill="#FF725E"/>
<path opacity="0.7" d="M289.445 48.8037H198.406C195.992 48.846 193.68 49.7864 191.921 51.4413C190.163 53.0961 189.084 55.3468 188.896 57.7541L176.746 245.32C176.657 246.469 176.809 247.625 177.19 248.713C177.572 249.801 178.176 250.798 178.963 251.641C179.751 252.483 180.705 253.152 181.765 253.606C182.825 254.06 183.967 254.289 185.12 254.278H276.144C278.562 254.238 280.879 253.298 282.642 251.641C284.405 249.985 285.487 247.731 285.678 245.32L297.82 57.7541C297.909 56.6047 297.757 55.4494 297.376 54.3617C296.994 53.274 296.39 52.2775 295.602 51.4358C294.815 50.594 293.861 49.9253 292.801 49.4722C291.741 49.019 290.598 48.7914 289.445 48.8037Z" fill="white"/>
<path d="M281.767 240.417H181.625C181.251 240.417 180.88 240.341 180.536 240.193C180.192 240.045 179.882 239.827 179.626 239.554C179.369 239.281 179.172 238.959 179.045 238.606C178.918 238.254 178.866 237.879 178.89 237.505L189.88 67.7763C189.924 67.0831 190.231 66.4329 190.738 65.9576C191.244 65.4822 191.912 65.2174 192.607 65.2168H292.757C293.132 65.2171 293.502 65.2943 293.846 65.4435C294.19 65.5927 294.5 65.8109 294.756 66.0845C295.013 66.358 295.21 66.6812 295.337 67.0341C295.463 67.387 295.516 67.7621 295.492 68.1363L284.502 237.857C284.457 238.552 284.15 239.203 283.641 239.679C283.133 240.154 282.463 240.418 281.767 240.417Z" fill="white"/>
<path d="M259.515 59.6658H223.113C222.926 59.6675 222.741 59.6302 222.569 59.5564C222.396 59.4825 222.242 59.3737 222.114 59.2368C221.986 59.1 221.888 58.938 221.826 58.7613C221.764 58.5845 221.739 58.3968 221.754 58.2101C221.791 57.8222 221.968 57.461 222.252 57.1945C222.536 56.9279 222.908 56.7742 223.297 56.7624H259.699C259.886 56.7596 260.071 56.7958 260.243 56.8688C260.415 56.9417 260.57 57.0498 260.698 57.186C260.826 57.3223 260.924 57.4837 260.986 57.66C261.048 57.8364 261.073 58.0237 261.059 58.2101C261.024 58.5995 260.847 58.9625 260.563 59.2307C260.278 59.4989 259.906 59.6537 259.515 59.6658Z" fill="white"/>
<path d="M231.104 247.543C231.045 248.502 230.626 249.403 229.93 250.065C229.234 250.726 228.313 251.1 227.353 251.111C226.891 251.115 226.434 251.024 226.01 250.844C225.585 250.663 225.202 250.398 224.885 250.063C224.567 249.728 224.322 249.332 224.165 248.898C224.007 248.465 223.941 248.004 223.969 247.543C224.03 246.586 224.45 245.687 225.146 245.027C225.842 244.367 226.762 243.994 227.721 243.984C228.182 243.979 228.638 244.068 229.063 244.248C229.488 244.427 229.871 244.692 230.188 245.026C230.506 245.36 230.751 245.756 230.909 246.189C231.066 246.622 231.133 247.083 231.104 247.543Z" fill="white"/>
<path opacity="0.2" d="M270.857 112.2H185.344L179.905 196.105H270.857C273.23 196.1 275.505 195.156 277.184 193.479C278.863 191.802 279.809 189.527 279.815 187.154V121.182C279.817 118.804 278.875 116.521 277.195 114.837C275.515 113.153 273.235 112.204 270.857 112.2Z" fill="#FF725E"/>
<path d="M262.89 104.769H158.093C153.146 104.769 149.135 108.78 149.135 113.728V179.724C149.135 184.671 153.146 188.682 158.093 188.682H262.89C267.838 188.682 271.849 184.671 271.849 179.724V113.728C271.849 108.78 267.838 104.769 262.89 104.769Z" fill="#FF725E"/>
<path d="M146.272 103.802C146.062 103.801 145.861 103.717 145.712 103.57L144.272 102.138C144.121 101.987 144.037 101.783 144.037 101.57C144.037 101.357 144.121 101.153 144.272 101.002C144.423 100.851 144.627 100.767 144.84 100.767C145.053 100.767 145.257 100.851 145.408 101.002L146.839 102.442C146.988 102.592 147.072 102.794 147.072 103.006C147.072 103.217 146.988 103.42 146.839 103.57C146.765 103.644 146.676 103.702 146.579 103.742C146.481 103.782 146.377 103.802 146.272 103.802Z" fill="#FF725E"/>
<path d="M144.104 108.825H142.08C141.868 108.825 141.665 108.74 141.515 108.59C141.365 108.44 141.281 108.237 141.281 108.025C141.281 107.813 141.365 107.609 141.515 107.459C141.665 107.309 141.868 107.225 142.08 107.225H144.104C144.316 107.225 144.52 107.309 144.67 107.459C144.82 107.609 144.904 107.813 144.904 108.025C144.904 108.237 144.82 108.44 144.67 108.59C144.52 108.74 144.316 108.825 144.104 108.825Z" fill="#FF725E"/>
<path d="M151.367 101.642C151.164 101.642 150.968 101.566 150.82 101.428C150.671 101.29 150.581 101.1 150.567 100.898L150.423 98.8745C150.415 98.7694 150.428 98.6638 150.462 98.5639C150.495 98.4639 150.548 98.3715 150.617 98.292C150.686 98.2124 150.77 98.1474 150.865 98.1005C150.959 98.0535 151.062 98.0257 151.167 98.0186C151.378 98.0055 151.585 98.0763 151.744 98.2157C151.903 98.3551 152 98.5517 152.015 98.7625L152.167 100.786C152.174 100.891 152.161 100.997 152.128 101.097C152.094 101.197 152.042 101.289 151.972 101.369C151.903 101.448 151.819 101.513 151.725 101.56C151.63 101.607 151.528 101.635 151.423 101.642H151.367Z" fill="#FF725E"/>
<path d="M219.442 180.052L251.62 212.222V180.052H219.442Z" fill="#FF725E"/>
<path d="M228.265 165.958L226.665 159.167C226.261 157.382 226.261 155.53 226.665 153.744L228.888 144.074C229.798 139.951 229.306 135.641 227.489 131.829C225.672 128.017 222.634 124.92 218.858 123.03C218.929 122.852 218.991 122.671 219.042 122.486C219.174 121.9 219.188 121.293 219.085 120.701C218.982 120.108 218.763 119.542 218.441 119.035C218.119 118.527 217.7 118.088 217.208 117.742C216.717 117.396 216.162 117.151 215.575 117.019C214.988 116.888 214.381 116.873 213.789 116.977C213.197 117.08 212.631 117.299 212.123 117.621C211.616 117.943 211.176 118.361 210.831 118.853C210.485 119.345 210.239 119.9 210.108 120.487C210.068 120.674 210.044 120.864 210.036 121.054C205.815 121.154 201.747 122.658 198.477 125.329C195.207 128.001 192.922 131.687 191.983 135.804L189.816 145.482C189.417 147.264 188.625 148.934 187.496 150.369L183.185 155.848C182.763 156.386 182.484 157.021 182.374 157.695C182.265 158.369 182.327 159.061 182.556 159.704C182.785 160.348 183.174 160.923 183.685 161.376C184.196 161.829 184.814 162.145 185.48 162.295L223.473 170.805C224.138 170.949 224.827 170.923 225.479 170.729C226.13 170.535 226.722 170.18 227.199 169.697C227.677 169.214 228.025 168.618 228.211 167.964C228.397 167.311 228.416 166.621 228.265 165.958Z" fill="white"/>
<path d="M199.574 168.054C199.285 167.99 198.985 167.998 198.7 168.079C198.415 168.159 198.154 168.308 197.94 168.512C197.727 168.717 197.567 168.972 197.475 169.253C197.384 169.534 197.363 169.834 197.414 170.125C197.632 171.411 198.228 172.602 199.126 173.547C200.023 174.493 201.182 175.15 202.454 175.435C203.726 175.719 205.054 175.619 206.269 175.146C207.484 174.674 208.531 173.85 209.276 172.781C209.446 172.54 209.555 172.261 209.592 171.968C209.629 171.675 209.593 171.378 209.488 171.102C209.383 170.826 209.211 170.58 208.989 170.386C208.766 170.192 208.5 170.056 208.212 169.989L199.574 168.054Z" fill="white"/>
<path d="M170.395 154.592C170.197 154.594 170.002 154.545 169.827 154.452C169.652 154.358 169.504 154.222 169.395 154.056C165.618 148.396 164.243 141.468 165.573 134.794C166.904 128.121 170.831 122.249 176.49 118.471C176.755 118.295 177.079 118.231 177.391 118.294C177.703 118.357 177.978 118.542 178.154 118.807C178.33 119.072 178.393 119.396 178.33 119.708C178.267 120.02 178.083 120.294 177.818 120.47C172.694 123.902 169.143 129.227 167.943 135.275C166.743 141.324 167.993 147.601 171.419 152.729C171.596 152.993 171.661 153.316 171.599 153.628C171.538 153.94 171.355 154.215 171.091 154.392C170.885 154.528 170.642 154.598 170.395 154.592Z" fill="white"/>
<path d="M175.474 151.185C175.278 151.184 175.084 151.134 174.911 151.041C174.739 150.947 174.591 150.813 174.482 150.649C171.607 146.337 170.561 141.061 171.573 135.978C172.585 130.896 175.574 126.423 179.881 123.542C180.013 123.454 180.16 123.393 180.315 123.362C180.47 123.332 180.629 123.332 180.784 123.362C180.939 123.393 181.086 123.454 181.217 123.542C181.349 123.63 181.461 123.743 181.549 123.874C181.637 124.005 181.698 124.152 181.729 124.307C181.759 124.462 181.759 124.622 181.729 124.776C181.698 124.931 181.637 125.079 181.549 125.21C181.461 125.341 181.348 125.454 181.217 125.542C177.436 128.065 174.812 131.987 173.923 136.445C173.033 140.903 173.951 145.532 176.474 149.313C176.651 149.577 176.716 149.901 176.654 150.213C176.593 150.525 176.41 150.8 176.146 150.977C175.947 151.11 175.714 151.182 175.474 151.185Z" fill="white"/>
<path d="M180.561 147.786C180.365 147.787 180.172 147.739 179.999 147.647C179.826 147.555 179.678 147.421 179.569 147.258C178.589 145.79 177.908 144.144 177.565 142.413C177.222 140.682 177.224 138.901 177.57 137.17C177.916 135.44 178.6 133.795 179.583 132.33C180.566 130.864 181.828 129.606 183.297 128.629C183.561 128.465 183.878 128.41 184.182 128.475C184.486 128.541 184.753 128.722 184.926 128.98C185.099 129.238 185.166 129.554 185.111 129.86C185.056 130.166 184.885 130.439 184.633 130.621C183.428 131.425 182.393 132.459 181.587 133.663C180.782 134.868 180.222 136.219 179.939 137.64C179.656 139.061 179.656 140.524 179.938 141.945C180.221 143.366 180.78 144.717 181.585 145.922C181.76 146.187 181.824 146.51 181.762 146.821C181.701 147.132 181.519 147.407 181.257 147.586C181.051 147.721 180.808 147.791 180.561 147.786Z" fill="white"/>
<path d="M239.566 171.461C239.298 171.461 239.038 171.37 238.827 171.204C238.616 171.038 238.467 170.806 238.404 170.546C238.34 170.285 238.366 170.011 238.477 169.766C238.587 169.522 238.777 169.322 239.015 169.198C244.495 166.366 248.626 161.475 250.501 155.598C252.376 149.722 251.84 143.341 249.013 137.859C248.927 137.719 248.871 137.562 248.848 137.398C248.826 137.235 248.837 137.069 248.881 136.91C248.926 136.751 249.003 136.603 249.107 136.476C249.211 136.348 249.341 136.243 249.487 136.167C249.634 136.092 249.794 136.047 249.959 136.037C250.124 136.026 250.289 136.049 250.444 136.105C250.599 136.161 250.741 136.249 250.861 136.362C250.98 136.475 251.076 136.612 251.14 136.764C252.685 139.759 253.624 143.03 253.905 146.388C254.185 149.747 253.801 153.128 252.775 156.338C251.748 159.549 250.099 162.525 247.922 165.098C245.745 167.671 243.082 169.79 240.086 171.333C239.924 171.412 239.747 171.456 239.566 171.461Z" fill="white"/>
<path d="M236.759 166.03C236.491 166.029 236.23 165.939 236.02 165.773C235.809 165.607 235.66 165.375 235.596 165.115C235.533 164.854 235.558 164.579 235.669 164.335C235.78 164.091 235.969 163.891 236.207 163.767C238.209 162.735 239.987 161.318 241.441 159.598C242.895 157.879 243.995 155.889 244.679 153.744C245.363 151.598 245.618 149.339 245.428 147.095C245.239 144.851 244.608 142.667 243.574 140.667C243.427 140.384 243.4 140.054 243.496 139.75C243.593 139.446 243.806 139.193 244.09 139.047C244.373 138.901 244.703 138.873 245.006 138.97C245.31 139.066 245.563 139.28 245.709 139.563C246.888 141.843 247.606 144.333 247.822 146.891C248.038 149.449 247.748 152.024 246.968 154.469C246.188 156.915 244.933 159.182 243.276 161.143C241.619 163.103 239.592 164.718 237.311 165.894C237.141 165.985 236.951 166.032 236.759 166.03Z" fill="white"/>
<path d="M233.951 160.599C233.684 160.595 233.426 160.502 233.217 160.335C233.008 160.168 232.861 159.937 232.798 159.677C232.734 159.417 232.759 159.144 232.868 158.899C232.977 158.655 233.164 158.454 233.4 158.328C234.687 157.665 235.832 156.755 236.767 155.649C237.703 154.544 238.411 153.264 238.852 151.885C239.292 150.505 239.457 149.052 239.335 147.609C239.213 146.166 238.808 144.761 238.143 143.474C237.996 143.191 237.968 142.861 238.065 142.558C238.162 142.254 238.375 142.001 238.659 141.855C238.942 141.708 239.272 141.68 239.575 141.777C239.879 141.874 240.132 142.087 240.278 142.371C241.906 145.538 242.211 149.223 241.125 152.615C240.039 156.007 237.652 158.829 234.487 160.463C234.321 160.549 234.138 160.595 233.951 160.599Z" fill="white"/>
<path d="M163.588 56.8903H157.478C157.319 56.8943 157.167 56.9544 157.048 57.0598C156.93 57.1652 156.852 57.3091 156.83 57.4662L155.55 69.6559C155.541 69.7294 155.547 69.8039 155.569 69.8746C155.591 69.9453 155.628 70.0104 155.678 70.0657C155.727 70.121 155.787 70.1651 155.855 70.1951C155.923 70.2252 155.996 70.2404 156.07 70.2398H162.181C162.34 70.2355 162.493 70.1743 162.612 70.0673C162.731 69.9603 162.808 69.8144 162.829 69.6559L164.108 57.4662C164.118 57.3931 164.111 57.3189 164.089 57.2486C164.067 57.1784 164.03 57.1137 163.98 57.059C163.931 57.0043 163.87 56.961 163.803 56.9318C163.735 56.9027 163.662 56.8885 163.588 56.8903Z" fill="#FF725E"/>
<path opacity="0.4" d="M163.037 56.8903H157.478C157.319 56.8944 157.167 56.9544 157.048 57.0598C156.93 57.1652 156.852 57.3092 156.83 57.4662L155.55 69.656C155.541 69.7294 155.547 69.804 155.569 69.8746C155.591 69.9453 155.628 70.0104 155.678 70.0657C155.727 70.121 155.787 70.1651 155.855 70.1951C155.923 70.2252 155.996 70.2404 156.07 70.2399H161.669C161.828 70.2353 161.98 70.1738 162.097 70.0667C162.214 69.9595 162.29 69.8138 162.309 69.656L163.588 57.4662C163.6 57.39 163.594 57.3122 163.57 57.2388C163.547 57.1654 163.507 57.0983 163.454 57.0427C163.401 56.9871 163.335 56.9444 163.263 56.918C163.191 56.8916 163.113 56.8821 163.037 56.8903Z" fill="white"/>
<path d="M132.962 282.289C133.762 282.289 134.562 282.169 134.842 281.801C134.91 281.702 134.946 281.585 134.946 281.465C134.946 281.345 134.91 281.228 134.842 281.129C134.725 280.95 134.545 280.821 134.338 280.769C133.25 280.473 131.042 281.769 130.946 281.825C130.921 281.841 130.902 281.864 130.891 281.891C130.879 281.918 130.876 281.948 130.882 281.977C130.888 282.009 130.904 282.038 130.927 282.061C130.949 282.084 130.979 282.099 131.01 282.105C131.655 282.221 132.307 282.283 132.962 282.289ZM133.938 281.033C134.036 281.021 134.136 281.021 134.234 281.033C134.361 281.064 134.472 281.141 134.546 281.249C134.658 281.441 134.626 281.537 134.546 281.585C134.266 282.009 132.626 282.017 131.418 281.849C132.194 281.409 133.051 281.131 133.938 281.033Z" fill="#FF725E"/>
<path d="M130.994 282.105H131.058C131.858 281.753 133.314 280.353 133.162 279.617C133.162 279.449 132.994 279.233 132.57 279.193C132.42 279.177 132.268 279.191 132.124 279.235C131.979 279.279 131.846 279.352 131.73 279.449C130.93 280.129 130.842 281.849 130.834 281.945C130.833 281.973 130.839 282.001 130.852 282.026C130.865 282.051 130.883 282.073 130.906 282.089C130.934 282.103 130.964 282.108 130.994 282.105ZM132.466 279.481H132.554C132.834 279.481 132.858 279.617 132.858 279.649C132.954 280.089 131.946 281.193 131.17 281.673C131.219 280.939 131.499 280.239 131.97 279.673C132.109 279.555 132.284 279.487 132.466 279.481Z" fill="#FF725E"/>
<path d="M130.339 266.956H123.86V281.953H130.339V266.956Z" fill="#FF8B7B"/>
<path d="M76.8763 274.802L83.3471 275.506L87.5624 260.949L81.0916 260.245L76.8763 274.802Z" fill="#FF8B7B"/>
<path d="M86.3546 276.97C87.1544 277.178 87.9543 277.266 88.3142 276.97C88.4022 276.888 88.4619 276.781 88.4849 276.663C88.5079 276.545 88.493 276.423 88.4422 276.314C88.4093 276.214 88.357 276.122 88.2884 276.042C88.2198 275.963 88.1362 275.897 88.0423 275.85C87.0425 275.298 84.5629 275.994 84.4589 276.018C84.4285 276.026 84.4013 276.044 84.3812 276.068C84.3612 276.093 84.3492 276.123 84.347 276.154C84.3469 276.186 84.3559 276.217 84.3729 276.244C84.3899 276.271 84.4142 276.292 84.4429 276.306C85.0601 276.581 85.6997 276.803 86.3546 276.97ZM87.6184 276.01C87.7154 276.034 87.8094 276.068 87.8983 276.114C88.0168 276.17 88.1087 276.271 88.1543 276.394C88.2183 276.61 88.1543 276.69 88.1543 276.738C87.7703 277.066 86.1626 276.674 85.0188 276.21C85.8646 275.977 86.7476 275.912 87.6184 276.018V276.01Z" fill="#FF725E"/>
<path d="M84.4749 276.322H84.5389C85.3388 276.17 87.1784 275.194 87.2104 274.458C87.2104 274.282 87.1464 274.043 86.7385 273.899C86.5948 273.847 86.4422 273.824 86.2897 273.833C86.1373 273.841 85.988 273.88 85.8507 273.947C84.9069 274.402 84.379 276.05 84.355 276.114C84.3416 276.137 84.3346 276.163 84.3346 276.19C84.3346 276.217 84.3416 276.243 84.355 276.266C84.3685 276.285 84.3867 276.3 84.4077 276.31C84.4287 276.319 84.4518 276.324 84.4749 276.322ZM86.5546 274.17H86.6505C86.9145 274.266 86.9065 274.378 86.9065 274.41C86.9065 274.858 85.6267 275.666 84.7469 275.93C84.9684 275.238 85.4057 274.636 85.9947 274.21C86.1703 274.13 86.3692 274.116 86.5546 274.17Z" fill="#FF725E"/>
<path d="M83.6911 274.906L76.6124 272.875C76.4908 272.838 76.3602 272.845 76.2433 272.895C76.1264 272.945 76.0306 273.034 75.9725 273.147L73.365 278.322C73.3041 278.453 73.2728 278.595 73.2733 278.74C73.2738 278.884 73.3061 279.027 73.368 279.158C73.4298 279.288 73.5197 279.403 73.6311 279.495C73.7426 279.587 73.8729 279.654 74.0129 279.689C76.4924 280.353 77.7322 280.561 80.8436 281.449C82.7553 282.001 86.6505 283.329 89.2981 284.089C91.9456 284.848 92.9214 282.361 91.8976 281.817C87.3064 279.377 85.8347 277.41 84.6189 275.586C84.4008 275.256 84.0717 275.015 83.6911 274.906Z" fill="#263238"/>
<path d="M130.267 281.201H123.196C123.069 281.2 122.945 281.244 122.848 281.327C122.751 281.409 122.687 281.523 122.668 281.649L121.636 287.368C121.613 287.511 121.621 287.657 121.66 287.796C121.699 287.935 121.767 288.065 121.861 288.175C121.954 288.285 122.07 288.374 122.202 288.435C122.333 288.496 122.475 288.527 122.62 288.528C125.171 288.48 128.851 288.328 132.058 288.328C135.81 288.328 137.857 288.536 142.256 288.536C144.912 288.536 145.536 285.848 144.408 285.6C139.297 284.497 136.345 284.377 131.85 281.673C131.373 281.38 130.827 281.217 130.267 281.201Z" fill="#263238"/>
<path opacity="0.2" d="M130.339 266.956H123.86V274.69H130.339V266.956Z" fill="black"/>
<path opacity="0.2" d="M81.0916 260.253L87.5624 260.949L85.2188 269.027L78.916 267.756L81.0916 260.253Z" fill="black"/>
<path d="M119.684 117.799C119.684 117.799 116.109 166.702 112.91 185.243C109.382 205.551 88.8581 267.732 88.8581 267.732L77.1003 265.58C77.1003 265.58 91.9216 207.191 93.5613 187.082C95.3449 165.262 97.4886 120.287 97.4886 120.287L119.684 117.799Z" fill="#FF725E"/>
<path opacity="0.3" d="M113.662 138.115C114.301 135.428 115.773 138.811 117.485 144.674C116.189 159.183 114.501 175.988 112.886 185.251C112.526 187.322 111.982 189.834 111.286 192.681C111.902 171.981 111.926 145.386 113.662 138.115Z" fill="black"/>
<path d="M131.898 116.471C131.898 116.471 136.593 165.63 136.753 185.379C136.921 205.927 132.69 273.195 132.69 273.195H121.708C121.708 273.195 118.413 207.127 117.045 186.947C115.549 164.951 109.254 118.959 109.254 118.959L131.898 116.471Z" fill="#FF725E"/>
<path d="M91.3137 263.772C91.3617 263.772 89.466 268.036 89.466 268.036L76.2365 265.636L77.0363 261.677L91.3137 263.772Z" fill="#263238"/>
<path d="M134.61 268.819C134.658 268.819 134.186 273.379 134.186 273.379H120.844L120.3 269.315L134.61 268.819Z" fill="#263238"/>
<path d="M97.8085 72.6554C96.9286 74.3591 95.9608 76.1508 95.081 77.9184L92.3935 83.2455C91.5216 85.0211 90.6658 86.8048 89.8419 88.5885C89.0181 90.3721 88.2422 92.1478 87.5784 93.9235L87.5144 91.124C87.9819 92.5615 88.543 93.967 89.1941 95.3312C89.506 96.0351 89.9059 96.707 90.2499 97.4029C90.5938 98.0987 91.0497 98.7626 91.4576 99.4185C92.3063 100.774 93.2247 102.085 94.2091 103.346C94.7051 103.978 95.201 104.626 95.7289 105.233C96.2568 105.841 96.8327 106.473 97.3286 106.993L97.4885 107.169C97.857 107.574 98.0694 108.096 98.0877 108.643C98.1059 109.19 97.9288 109.726 97.5881 110.154C97.2474 110.582 96.7653 110.875 96.2283 110.981C95.6912 111.086 95.1342 110.996 94.6571 110.728C93.8303 110.263 93.0293 109.753 92.2575 109.201C91.4576 108.673 90.7538 108.121 90.0339 107.537C88.5928 106.355 87.2401 105.069 85.9867 103.69C84.707 102.288 83.5434 100.785 82.5073 99.1945C81.4426 97.5745 80.5168 95.8674 79.7398 94.0915C79.3975 93.3377 79.3379 92.486 79.5718 91.6919L79.6838 91.316C80.2917 89.2284 80.9716 87.2047 81.7234 85.2211C82.4753 83.2375 83.2752 81.2938 84.123 79.3822C84.9708 77.4705 85.8587 75.5829 86.7945 73.7192C87.7303 71.8555 88.6742 70.0319 89.754 68.1682C90.3507 67.1016 91.3442 66.3136 92.5187 65.9754C93.6931 65.6372 94.9536 65.776 96.0262 66.3619C97.0989 66.9477 97.897 67.9332 98.2472 69.1041C98.5974 70.275 98.4713 71.5369 97.8965 72.6154L97.8085 72.6554Z" fill="#FF8B7B"/>
<path d="M102.4 69.808C102.72 75.9109 95.7929 87.1168 95.7929 87.1168L81.5315 79.9901C83.2646 74.9352 85.9468 70.2577 89.434 66.2086C96.9766 57.8742 102.104 64.209 102.4 69.808Z" fill="#263238"/>
<path d="M92.7374 109.585L95.6089 114.384L101.584 110.561C100.54 108.69 98.9059 107.219 96.9366 106.377C96.4813 106.232 95.9889 106.254 95.5487 106.441C95.1085 106.627 94.7496 106.965 94.5371 107.393L92.7374 109.585Z" fill="#FF8B7B"/>
<path d="M98.0005 116.431L100.776 115.911C101.01 115.868 101.232 115.779 101.431 115.649C101.63 115.52 101.802 115.352 101.936 115.155C102.07 114.959 102.163 114.738 102.211 114.506C102.259 114.273 102.261 114.033 102.216 113.8L101.584 110.6L95.6089 114.424L96.0088 115.391C96.1724 115.766 96.4592 116.073 96.8214 116.262C97.1837 116.451 97.5997 116.511 98.0005 116.431Z" fill="#FF8B7B"/>
<path d="M114.853 39.1414C114.909 39.6614 115.237 40.0693 115.573 40.0373C115.909 40.0053 116.133 39.5654 116.069 39.0455C116.005 38.5256 115.685 38.1176 115.349 38.1416C115.013 38.1656 114.789 38.6135 114.853 39.1414Z" fill="#263238"/>
<path d="M115.189 40.0693C115.998 41.6228 117.007 43.0641 118.189 44.3565C117.389 45.2924 115.789 45.0204 115.789 45.0204L115.189 40.0693Z" fill="#FF5652"/>
<path d="M112.614 36.382C112.655 36.3882 112.698 36.3849 112.738 36.3724C112.778 36.36 112.815 36.3386 112.846 36.31C113.123 36.0503 113.46 35.8627 113.827 35.7637C114.194 35.6646 114.579 35.6572 114.949 35.7421C114.987 35.7542 115.027 35.7583 115.067 35.7543C115.106 35.7502 115.144 35.738 115.179 35.7185C115.213 35.699 115.243 35.6725 115.267 35.6408C115.291 35.6091 115.308 35.5727 115.317 35.5341C115.337 35.4547 115.326 35.3705 115.286 35.2991C115.246 35.2276 115.18 35.1743 115.101 35.1502C114.634 35.0386 114.146 35.0429 113.68 35.1628C113.215 35.2827 112.785 35.5145 112.43 35.8381C112.4 35.8665 112.376 35.9006 112.36 35.9384C112.344 35.9762 112.336 36.0169 112.336 36.058C112.336 36.0992 112.344 36.1399 112.36 36.1777C112.376 36.2155 112.4 36.2496 112.43 36.278C112.452 36.3067 112.48 36.3307 112.511 36.3486C112.543 36.3664 112.578 36.3778 112.614 36.382Z" fill="#263238"/>
<path d="M98.7283 44.9326C100.256 49.5638 102.288 58.0982 99.3922 61.5216C99.3922 61.5216 101.296 66.1847 110.062 65.4408C119.716 64.641 114.062 60.2818 114.062 60.2818C108.639 59.4819 108.271 55.5707 108.718 51.8353L98.7283 44.9326Z" fill="#FF8B7B"/>
<path d="M97.3206 63.2091C96.4167 61.7614 95.4089 60.1057 97.1206 59.4898C99.0003 58.8099 109.558 57.7061 113.318 58.6339C117.077 59.5618 116.309 62.6332 116.309 62.6332L97.3206 63.2091Z" fill="#FF725E"/>
<path d="M128.235 65.1607C129.611 66.4244 131.098 67.8242 132.578 69.1039C134.058 70.3837 135.554 71.6955 137.057 72.9592C138.561 74.223 140.097 75.4148 141.64 76.5746C143.184 77.7344 144.752 78.7902 146.32 79.774L143.12 79.47C144.45 79.1154 145.708 78.5336 146.839 77.7504C148.162 76.8263 149.389 75.7733 150.503 74.6069C151.703 73.3782 152.828 72.0774 153.87 70.7117C154.406 70.0158 154.942 69.3119 155.47 68.584C155.998 67.8562 156.478 67.0883 156.918 66.4164L157.006 66.2885C157.309 65.8245 157.77 65.4852 158.303 65.3324C158.836 65.1797 159.406 65.2238 159.91 65.4565C160.413 65.6893 160.816 66.0953 161.045 66.6004C161.274 67.1055 161.314 67.6761 161.157 68.2081C160.853 69.2479 160.533 70.1358 160.165 71.0636C159.797 71.9914 159.413 72.9033 158.981 73.7991C158.105 75.6265 157.081 77.3787 155.918 79.0381C154.697 80.7978 153.274 82.4085 151.679 83.8372C149.913 85.4137 147.863 86.6406 145.64 87.4526C145.162 87.6208 144.656 87.6926 144.151 87.6637C143.646 87.6349 143.151 87.506 142.696 87.2846L142.432 87.1486C140.446 86.1726 138.518 85.083 136.657 83.8852C134.842 82.7095 133.082 81.4857 131.386 80.1739C129.691 78.8622 128.051 77.5344 126.451 76.1747C124.852 74.8149 123.316 73.3912 121.756 71.7995C120.926 70.9338 120.464 69.7803 120.466 68.5811C120.468 67.3818 120.934 66.2299 121.767 65.367C122.6 64.5042 123.734 63.9973 124.933 63.9529C126.131 63.9085 127.3 64.3298 128.195 65.1287L128.235 65.1607Z" fill="#FF8B7B"/>
<path d="M123.348 61.0095C123.348 61.0095 131.41 68.832 132.346 117.215C119.453 120.343 107.047 121.494 97.4646 120.279C97.0086 114.208 96.3288 93.1396 90.1699 70.9277C89.9053 69.9921 89.8381 69.0118 89.9726 68.0489C90.107 67.086 90.4401 66.1616 90.9508 65.3343C91.4615 64.507 92.1385 63.7949 92.9391 63.2431C93.7396 62.6914 94.646 62.3121 95.6009 62.1293C96.8247 61.8893 98.1124 61.6734 99.3922 61.5054C104.254 60.81 109.152 60.396 114.062 60.2656C117.171 60.291 120.274 60.5396 123.348 61.0095Z" fill="#263238"/>
<path d="M117.093 69.44C117.893 75.4949 128.291 87.1327 128.291 87.1327L140.633 74.3351C136.966 70.4861 133.003 66.9318 128.779 63.705C119.732 56.9463 116.373 63.825 117.093 69.44Z" fill="#263238"/>
<path d="M160.357 70.3358L164.484 66.5524L159.541 61.4734C157.906 62.8657 156.781 64.7622 156.342 66.8644C156.293 67.345 156.421 67.8268 156.7 68.2209C156.979 68.6149 157.392 68.8945 157.861 69.008L160.357 70.3358Z" fill="#FF8B7B"/>
<path d="M166.004 63.8011L164.94 61.1855C164.85 60.9611 164.716 60.7571 164.546 60.5854C164.375 60.4138 164.172 60.2781 163.948 60.1864C163.725 60.0947 163.485 60.0487 163.243 60.0514C163.001 60.054 162.762 60.1051 162.541 60.2017L159.509 61.4735L164.452 66.5526L165.316 65.9687C165.663 65.7417 165.92 65.4022 166.046 65.0073C166.171 64.6124 166.156 64.1863 166.004 63.8011Z" fill="#FF8B7B"/>
<path d="M97.4965 39.4136C98.6563 45.8124 99.0083 49.6037 102.608 52.6512C108.023 57.2343 115.493 53.667 116.205 47.1322C116.877 41.2452 114.869 31.767 108.359 29.7034C101.848 27.6397 96.3368 33.0148 97.4965 39.4136Z" fill="#FF8B7B"/>
<path d="M110.11 41.7171C112.358 42.229 114.11 39.6295 114.349 38.8936C113.254 38.9976 111.31 38.4377 110.926 37.9418C112.126 38.0458 113.286 36.566 113.43 35.9981C112.157 35.7523 111.029 35.0208 110.286 33.9585C112.23 33.9185 114.565 30.4951 112.43 27.4317C110.294 24.3683 101.368 26.9358 100.112 24.7522C98.2404 25.84 99.9041 27.2877 99.9041 27.2877C99.9041 27.2877 87.2744 29.6873 93.0974 34.5584C88.8261 34.9423 88.2262 39.9894 91.7856 42.5569C95.3449 45.1245 95.5289 46.8201 94.1132 46.6122C94.6811 47.7 97.2166 47.844 97.3606 46.7882C97.9605 49.0037 99.6881 52.0032 103.671 51.5153C107.655 51.0274 111.558 45.4524 110.11 41.7171Z" fill="#263238"/>
<path d="M94.2012 33.8146C91.1937 34.2305 89.826 32.5348 90.5778 31.0391C86.8505 32.9427 90.9218 37.1499 94.2012 33.8146Z" fill="#263238"/>
<path d="M106.999 40.7412C107.516 42.0817 108.432 43.2316 109.622 44.0366C111.222 45.0924 112.67 44.0366 112.398 42.4368C112.15 40.9651 111.022 38.6375 109.358 38.2216C109.014 38.1085 108.644 38.0962 108.293 38.1861C107.941 38.276 107.623 38.4644 107.375 38.7291C107.127 38.9938 106.96 39.3238 106.894 39.6802C106.827 40.0367 106.863 40.4048 106.999 40.7412Z" fill="#FF8B7B"/>
<path d="M310.297 266.188C304.379 252.222 301.987 235.793 308.762 236.473C315.712 237.145 314.897 261.909 316.024 264.628C313.857 266.492 310.297 266.188 310.297 266.188Z" fill="#FF725E"/>
<path d="M312.217 239.689C310.761 245.016 309.218 253.246 308.042 260.221C308.714 262.221 309.474 264.22 310.297 266.188C310.297 266.188 313.849 266.492 316.032 264.628C315.137 262.485 315.457 246.615 312.217 239.689Z" fill="#263238"/>
<path d="M312.249 263.628C310.393 233.954 315.449 206.447 328.758 207.687C340.18 208.758 323.527 258.717 323.847 264.476C318.616 266.508 312.249 263.628 312.249 263.628Z" fill="#FF725E"/>
<path d="M320.872 263.436C322.959 242.104 334.213 217.213 339.044 225.531C345.179 236.089 329.446 261.237 329.022 265.372C325.087 266.22 320.872 263.436 320.872 263.436Z" fill="#FF725E"/>
<path d="M318.768 215.613C317.416 215.389 316.664 214.549 316.752 213.358C316.848 212.014 317.952 210.678 318.976 210.662C319.472 210.662 320.304 210.918 320.512 212.766L319.712 212.862C319.616 211.982 319.352 211.462 319 211.462C318.456 211.462 317.624 212.454 317.56 213.414C317.504 214.213 317.952 214.661 318.904 214.821L318.768 215.613Z" fill="#FF725E"/>
<path d="M333.133 220.98C332.552 220.933 331.996 220.719 331.534 220.364L331.966 219.7C332.709 220.18 333.285 220.308 333.509 220.036C333.845 219.604 333.613 218.341 332.917 217.677C332.357 217.141 331.702 217.181 330.974 217.821L330.454 217.213C330.641 217.002 330.869 216.831 331.124 216.711C331.379 216.59 331.656 216.523 331.938 216.512C332.219 216.502 332.5 216.549 332.764 216.65C333.027 216.751 333.267 216.904 333.469 217.101C334.445 218.029 334.773 219.724 334.133 220.532C334.015 220.682 333.862 220.801 333.688 220.879C333.514 220.957 333.324 220.991 333.133 220.98Z" fill="#FF725E"/>
<path d="M313.529 233.058C313.045 233.092 312.564 232.949 312.179 232.654C311.793 232.36 311.528 231.934 311.433 231.458C311.113 230.154 311.753 228.547 312.729 228.211C313.185 228.059 314.065 228.043 314.833 229.746L314.097 230.082C313.737 229.283 313.297 228.851 312.985 228.971C312.473 229.147 311.985 230.338 312.185 231.266C312.369 232.066 312.985 232.338 313.897 232.194L314.017 232.994C313.856 233.029 313.693 233.051 313.529 233.058Z" fill="#FF725E"/>
<path d="M305.01 249.623C304.621 249.632 304.237 249.523 303.91 249.31C303.584 249.098 303.329 248.791 303.179 248.431C302.619 247.207 302.947 245.504 303.835 244.992C304.259 244.752 305.122 244.576 306.194 246.112L305.538 246.567C305.026 245.84 304.539 245.512 304.235 245.688C303.763 245.96 303.507 247.223 303.907 248.087C304.235 248.799 304.858 248.991 305.762 248.671L306.026 249.431C305.701 249.554 305.358 249.619 305.01 249.623Z" fill="#FF725E"/>
<path d="M319.184 225.475C319.101 225.475 319.02 225.45 318.952 225.403C318.455 225.128 318.074 224.683 317.88 224.149C317.686 223.616 317.692 223.03 317.896 222.5C318.128 221.969 318.524 221.526 319.027 221.238C319.53 220.95 320.112 220.831 320.688 220.9C321.183 220.988 322.343 221.428 322.423 223.556C322.423 223.662 322.381 223.764 322.306 223.839C322.231 223.914 322.129 223.956 322.023 223.956C321.917 223.956 321.816 223.914 321.741 223.839C321.666 223.764 321.623 223.662 321.623 223.556C321.575 222.444 321.199 221.772 320.544 221.652C320.146 221.62 319.748 221.713 319.405 221.918C319.062 222.123 318.792 222.43 318.632 222.796C318.344 223.476 318.632 224.164 319.432 224.732C319.502 224.78 319.554 224.85 319.582 224.931C319.609 225.012 319.61 225.1 319.584 225.181C319.558 225.262 319.507 225.333 319.438 225.383C319.369 225.433 319.285 225.46 319.2 225.459L319.184 225.475Z" fill="white"/>
<path d="M328.662 247.063C328.57 247.065 328.481 247.033 328.411 246.974C328.341 246.916 328.293 246.834 328.278 246.743C328.266 246.692 328.265 246.64 328.274 246.588C328.283 246.537 328.302 246.487 328.331 246.443C328.359 246.399 328.396 246.362 328.439 246.332C328.482 246.302 328.531 246.282 328.582 246.271C329.67 246.048 330.27 245.56 330.286 244.896C330.25 244.498 330.091 244.121 329.832 243.817C329.573 243.514 329.225 243.298 328.838 243.2C328.118 243.024 327.478 243.416 327.054 244.296C327.031 244.343 326.999 244.385 326.96 244.42C326.92 244.455 326.874 244.482 326.825 244.499C326.775 244.516 326.722 244.523 326.67 244.52C326.617 244.516 326.566 244.503 326.519 244.48C326.471 244.457 326.429 244.425 326.394 244.385C326.359 244.346 326.333 244.3 326.316 244.25C326.298 244.2 326.291 244.148 326.295 244.095C326.298 244.043 326.311 243.991 326.335 243.944C326.531 243.413 326.908 242.969 327.399 242.69C327.891 242.41 328.466 242.313 329.022 242.416C329.587 242.556 330.092 242.872 330.463 243.32C330.835 243.768 331.053 244.323 331.086 244.904C331.086 245.408 330.83 246.623 328.75 247.055L328.662 247.063Z" fill="white"/>
<path d="M339.908 240.321C339.444 240.321 338.828 240.049 338.14 239.017L338.804 238.569C339.3 239.305 339.772 239.641 340.084 239.473C340.564 239.217 340.884 237.953 340.46 237.073C340.156 236.361 339.532 236.153 338.62 236.449L338.372 235.69C339.668 235.266 340.724 235.69 341.196 236.761C341.732 237.993 341.372 239.689 340.468 240.177C340.297 240.273 340.104 240.323 339.908 240.321Z" fill="#FF725E"/>
<path d="M337.524 271.267C337.53 266.998 336 262.87 333.213 259.637C333.487 259.597 333.737 259.461 333.919 259.252C334.101 259.044 334.202 258.778 334.205 258.501C334.203 258.189 334.077 257.89 333.856 257.669C333.634 257.449 333.334 257.325 333.021 257.325H306.242C305.951 257.329 305.671 257.442 305.458 257.642C305.246 257.842 305.116 258.114 305.094 258.405C305.072 258.696 305.159 258.984 305.339 259.214C305.519 259.443 305.779 259.597 306.066 259.645C304.315 261.679 303.045 264.082 302.35 266.675C301.656 269.268 301.555 271.984 302.055 274.622C302.556 277.259 303.645 279.749 305.24 281.908C306.836 284.066 308.898 285.837 311.273 287.088C311.015 287.221 310.808 287.438 310.688 287.703C310.567 287.968 310.539 288.266 310.608 288.548C310.678 288.831 310.84 289.082 311.07 289.261C311.299 289.44 311.582 289.537 311.873 289.536H327.382C327.725 289.533 328.054 289.396 328.296 289.154C328.539 288.911 328.676 288.583 328.678 288.24C328.677 288.003 328.612 287.771 328.489 287.568C328.367 287.365 328.191 287.199 327.982 287.088C330.862 285.569 333.273 283.293 334.955 280.505C336.636 277.717 337.525 274.523 337.524 271.267Z" fill="#263238"/>
</svg>
