<svg width="24" height="24" viewBox="0 0 24 24" fill="none" xmlns="http://www.w3.org/2000/svg">
<path fill-rule="evenodd" clip-rule="evenodd" d="M6.77129 4.04167C6.77129 2.49987 8.02116 1.25 9.56296 1.25H14.729C16.1097 1.25 17.229 2.36929 17.229 3.75C17.229 4.30228 17.6767 4.75 18.229 4.75H18.8183C20.4032 4.75 21.7971 5.97999 21.7325 7.66561C21.6497 9.82667 21.23 13.2931 19.5466 16.3608C19.0903 17.1923 18.4809 18.0092 17.8222 18.7703L17.7726 18.8276C16.8249 19.9226 16.0348 20.8356 15.1853 21.4579C14.2716 22.1273 13.2964 22.4607 12.0001 22.4607C10.7038 22.4607 9.72865 22.1273 8.81497 21.4579C7.9655 20.8356 7.17534 19.9226 6.22767 18.8276L6.17807 18.7703C5.51931 18.0092 4.90992 17.1923 4.45363 16.3608C2.82447 13.3918 2.37782 10.2575 2.2763 8.24648C2.19079 6.55273 3.59471 5.33333 5.17076 5.33333H5.47963C6.19299 5.33333 6.77129 4.75503 6.77129 4.04167ZM15.5841 10.4706C15.844 10.148 15.7932 9.67589 15.4706 9.416C15.1481 9.15611 14.6759 9.20689 14.4161 9.52943L12.3946 12.0382C11.9795 12.5533 11.7176 12.8755 11.4996 13.0791C11.3972 13.1747 11.3317 13.2173 11.2942 13.2361C11.2662 13.2501 11.2562 13.25 11.2508 13.25H11.2493C11.244 13.25 11.234 13.2501 11.206 13.2361C11.1684 13.2173 11.1029 13.1747 11.0005 13.0791C10.7825 12.8755 10.5206 12.5533 10.1056 12.0382L9.58407 11.391C9.32418 11.0685 8.85203 11.0177 8.52949 11.2776C8.20695 11.5375 8.15617 12.0096 8.41606 12.3321L8.97013 13.0198C9.34264 13.4822 9.67129 13.8901 9.97671 14.1753C10.3046 14.4816 10.7123 14.75 11.2501 14.75C11.7878 14.75 12.1955 14.4816 12.5234 14.1753C12.8288 13.8901 13.1575 13.4822 13.53 13.0198L15.5841 10.4706Z" fill="#2D264B"/>
</svg>
