<svg width="16" height="16" viewBox="0 0 16 16" fill="none" xmlns="http://www.w3.org/2000/svg">
<path d="M14.398 1.69537C14.0864 1.35978 13.5978 1.23408 13.131 1.18909C12.6406 1.14181 12.0532 1.17325 11.4207 1.25621C10.1524 1.42257 8.61997 1.80767 7.14797 2.2815C5.67505 2.75563 4.23927 3.32609 3.16401 3.87264C2.62887 4.14465 2.16473 4.41987 1.82731 4.68423C1.6593 4.81587 1.50599 4.95766 1.39066 5.10857C1.28066 5.25252 1.16493 5.45732 1.16652 5.70421C1.1707 6.35226 1.61203 6.81026 2.08202 7.11766C2.56173 7.43146 3.18649 7.66793 3.80758 7.85313C4.43533 8.04033 5.09548 8.18539 5.66299 8.30299C5.70019 8.31066 5.77453 8.32606 5.86562 8.34486C6.20866 8.41573 6.38018 8.45119 6.54142 8.40293C6.70264 8.35466 6.82664 8.23073 7.07451 7.98279L9.52844 5.52892C9.78877 5.26857 10.2109 5.26857 10.4712 5.52892C10.7316 5.78927 10.7316 6.21139 10.4712 6.47173L8.18284 8.76013C7.93011 9.01286 7.80377 9.13919 7.75597 9.30319C7.70811 9.46719 7.74671 9.64126 7.82384 9.98946C8.12277 11.3393 8.38237 12.4547 8.64137 13.2051C8.79264 13.6433 8.96284 14.0227 9.17837 14.3025C9.40331 14.5945 9.70931 14.8151 10.112 14.8329C10.3628 14.844 10.5712 14.7295 10.7142 14.6233C10.8648 14.5114 11.0065 14.3613 11.1379 14.1972C11.4019 13.8673 11.6793 13.4109 11.9553 12.8835C12.51 11.8235 13.0973 10.4022 13.5943 8.94006C14.091 7.47853 14.505 5.95406 14.7044 4.68706C14.8038 4.05519 14.853 3.46837 14.8257 2.97684C14.7998 2.5107 14.7004 2.02103 14.398 1.69537Z" fill="url(#paint0_linear_5640_12254)"/>
<defs>
<linearGradient id="paint0_linear_5640_12254" x1="0.0583947" y1="8.00033" x2="14.8332" y2="8.00033" gradientUnits="userSpaceOnUse">
<stop stop-color="#0A9FBF"/>
<stop offset="1" stop-color="#28D744"/>
</linearGradient>
</defs>
</svg>
