<svg width="41" height="40" viewBox="0 0 41 40" fill="none" xmlns="http://www.w3.org/2000/svg">
<rect x="0.75" width="40" height="40" rx="20" fill="#C2E7F0"/>
<path d="M16.4415 22.4733C19.0792 20.8422 22.425 20.8422 25.0627 22.4733C25.1405 22.5214 25.239 22.579 25.3522 22.6452C25.8645 22.945 26.6776 23.4208 27.2326 23.9849C27.5811 24.3391 27.9287 24.8221 27.992 25.4242C28.0599 26.0683 27.7865 26.6646 27.2649 27.1806C26.4033 28.033 25.3359 28.75 23.9365 28.75H17.5677C16.1683 28.75 15.1009 28.033 14.2393 27.1806C13.7178 26.6646 13.4444 26.0683 13.5122 25.4242C13.5755 24.8221 13.9231 24.3391 14.2717 23.9849C14.8266 23.4208 15.6397 22.945 16.152 22.6452C16.2652 22.579 16.3637 22.5214 16.4415 22.4733Z" fill="#3E515B"/>
<path d="M16.502 15.5C16.502 13.1528 18.4047 11.25 20.752 11.25C23.0992 11.25 25.002 13.1528 25.002 15.5C25.002 17.8472 23.0992 19.75 20.752 19.75C18.4047 19.75 16.502 17.8472 16.502 15.5Z" fill="#3E515B"/>
</svg>
